<?xml version="1.0" encoding="utf-8"?>
<!-- Generator: Adobe Illustrator 21.0.0, SVG Export Plug-In . SVG Version: 6.00 Build 0)  -->
<svg version="1.1" id="Layer_1" xmlns="http://www.w3.org/2000/svg" xmlns:xlink="http://www.w3.org/1999/xlink" x="0px" y="0px"
	 viewBox="0 0 2272 1872" style="enable-background:new 0 0 2272 1872;" xml:space="preserve">
<style type="text/css">
	.st0{clip-path:url(#SVGID_2_);fill:#8E6442;}
	.st1{clip-path:url(#SVGID_2_);fill:#606060;}
	.st2{clip-path:url(#SVGID_2_);}
	.st3{fill:#775135;}
	.st4{fill:#684932;}
	.st5{fill:#AF7448;}
	.st6{clip-path:url(#SVGID_2_);fill:#775135;}
	.st7{fill:#777777;}
	.st8{fill:#9E9E9E;}
	.st9{fill:#282828;}
	.st10{fill:#C1C1C1;}
	.st11{fill:#383838;}
	.st12{fill:#FFFFFF;}
	.st13{fill:#FF954D;}
	.st14{fill:#AF5156;}
	.st15{fill:#934149;}
	.st16{fill:#AA7F61;}
	.st17{fill:#C1916B;}
	.st18{fill:#E8B282;}
	.st19{fill:#7F5F49;}
	.st20{fill:#AF8264;}
	.st21{fill:#4B89DC;}
	.st22{fill:#AA5050;}
	.st23{fill:#F98282;}
	.st24{fill:#934444;}
	.st25{fill:#C66161;}
	.st26{fill:#9FCDFF;}
	.st27{fill:#773A3A;}
	.st28{fill:#CCCCCC;}
	.st29{opacity:0.6;}
	.st30{fill:#999999;}
	.st31{fill:#276861;}
	.st32{opacity:0.5;}
	.st33{fill:#C8D6B8;}
	.st34{fill:#242628;}
	.st35{fill:#46494C;}
	.st36{fill:#3E4042;}
	.st37{fill:none;}
	.st38{fill:#A5ACCE;}
	.st39{fill:#B8BDDE;}
	.st40{opacity:0.8;fill:#B8BDDE;}
	.st41{opacity:0.8;fill:#A5ACCE;}
</style>
<g id="Layer_1_1_">
</g>
<g id="Layer_2">
</g>
<g>
	<defs>
		<rect id="SVGID_1_" y="0.3" width="2272" height="1873.3"/>
	</defs>
	<clipPath id="SVGID_2_">
		<use xlink:href="#SVGID_1_"  style="overflow:visible;"/>
	</clipPath>
	<rect y="0.3" class="st0" width="2272" height="1873.3"/>
	<rect y="1413" class="st1" width="2272" height="459"/>
	<g class="st2">
		<path class="st3" d="M385.9-231.7C303.3-314.3,189.1-365.4,63-365.4c-126.1,0-240.3,51.1-322.9,133.7
			C-342.5-149-393.6-34.9-393.6,91.2s51.1,240.3,133.8,322.9C-177.2,496.8-63.1,547.9,63,547.9c126.1,0,240.3-51.1,322.9-133.7
			c82.6-82.6,133.8-196.8,133.8-322.9S468.6-149,385.9-231.7z"/>
		<rect y="1413" class="st4" width="2272" height="227.2"/>
		<rect y="1379.2" class="st5" width="2272" height="33.8"/>
	</g>
	<path class="st6" d="M1794.6,1379.2h-747.9V298.9h580.3c92.6,0,167.7,75.1,167.7,167.7V1379.2z"/>
	<g class="st2">
		<g>
			<g>
				<g>
					<path class="st7" d="M628.8,792.3L628.8,792.3c-7.4,0-13.4-6-13.4-13.4V608.5c0-7.4,6-13.4,13.4-13.4h0c7.4,0,13.4,6,13.4,13.4
						v170.4C642.2,786.3,636.2,792.3,628.8,792.3z"/>
					<path class="st7" d="M1636.7,792.3L1636.7,792.3c-7.4,0-13.4-6-13.4-13.4V608.5c0-7.4,6-13.4,13.4-13.4l0,0
						c7.4,0,13.4,6,13.4,13.4v170.4C1650.1,786.3,1644.1,792.3,1636.7,792.3z"/>
					<path class="st7" d="M628.8,581.2L628.8,581.2c-7.4,0-13.4-6-13.4-13.4v-63.6c0-7.4,6-13.4,13.4-13.4h0c7.4,0,13.4,6,13.4,13.4
						v63.6C642.2,575.2,636.2,581.2,628.8,581.2z"/>
					<path class="st7" d="M628.8,1032.8L628.8,1032.8c-7.4,0-13.4-6-13.4-13.4V849c0-7.4,6-13.4,13.4-13.4h0c7.4,0,13.4,6,13.4,13.4
						v170.4C642.2,1026.8,636.2,1032.8,628.8,1032.8z"/>
				</g>
				<path class="st8" d="M1530.1,203.2H741.9c-58.9,0-106.6,47.7-106.6,106.6v1563.8h1001.4V309.8
					C1636.7,250.9,1589,203.2,1530.1,203.2z"/>
				<path class="st9" d="M1507,228.8H765c-55.4,0-100.3,44.9-100.3,100.3V1872h942.7V329.1C1607.4,273.7,1562.5,228.8,1507,228.8z"
					/>
				<rect x="635.3" y="365.5" class="st10" width="29.3" height="62.6"/>
				<rect x="1607.4" y="365.5" class="st10" width="29.3" height="62.6"/>
				<rect x="664.6" y="365.5" class="st11" width="942.7" height="1511.2"/>
				<path class="st11" d="M1251.8,330.2h-226.9c-8.6,0-15.6-7-15.6-15.6v0c0-8.6,7-15.6,15.6-15.6h226.9c8.6,0,15.6,7,15.6,15.6v0
					C1267.4,323.2,1260.4,330.2,1251.8,330.2z"/>
			</g>
			<path class="st12" d="M920,428.1H749.8c-8.6,0-15.6-7-15.6-15.6v0c0-8.6,7-15.6,15.6-15.6H920c8.6,0,15.6,7,15.6,15.6v0
				C935.6,421,928.6,428.1,920,428.1z"/>
			<path class="st12" d="M1539.5,428.1h-170.2c-8.6,0-15.6-7-15.6-15.6v0c0-8.6,7-15.6,15.6-15.6h170.2c8.6,0,15.6,7,15.6,15.6v0
				C1555.1,421,1548.1,428.1,1539.5,428.1z"/>
		</g>
		<g>
			<g>
				<g>
					<g>
						<circle class="st13" cx="1417.3" cy="1202.5" r="149.8"/>
					</g>
					<g>
						<path class="st13" d="M1096.7,1187c35.1-8.3,61.1-39.8,61.1-77.4v-63.8c0-44-35.6-79.6-79.6-79.6H352.1
							c-44,0-79.6,35.6-79.6,79.6v63.8c0,44,35.6,79.6,79.6,79.6h645.7c28.6,65.3,170.8,58.2,170.8,58.2
							C1119.2,1238.1,1102.2,1209.5,1096.7,1187z"/>
					</g>
				</g>
				<g>
					<g>
						<path class="st12" d="M1076.8,1039.4h-211c-5.2,0-9.5-4.3-9.5-9.5s4.3-9.5,9.5-9.5h211c5.2,0,9.5,4.3,9.5,9.5
							S1082.1,1039.4,1076.8,1039.4z"/>
					</g>
					<g>
						<path class="st12" d="M819.7,1039.4H537.8c-5.2,0-9.5-4.3-9.5-9.5s4.3-9.5,9.5-9.5h281.9c5.2,0,9.5,4.3,9.5,9.5
							S825,1039.4,819.7,1039.4z"/>
					</g>
					<g>
						<path class="st12" d="M470.5,1039.4h-117c-5.2,0-9.5-4.3-9.5-9.5s4.3-9.5,9.5-9.5h117c5.2,0,9.5,4.3,9.5,9.5
							S475.7,1039.4,470.5,1039.4z"/>
					</g>
					<g>
						<path class="st12" d="M1076.8,1117.5H942.1c-5.2,0-9.5-4.3-9.5-9.5s4.3-9.5,9.5-9.5h134.7c5.2,0,9.5,4.3,9.5,9.5
							S1082.1,1117.5,1076.8,1117.5z"/>
					</g>
					<g>
						<path class="st12" d="M885.3,1117.5H578.6c-5.2,0-9.5-4.3-9.5-9.5s4.3-9.5,9.5-9.5h306.7c5.2,0,9.5,4.3,9.5,9.5
							S890.6,1117.5,885.3,1117.5z"/>
					</g>
					<g>
						<path class="st12" d="M537.8,1117.5H353.4c-5.2,0-9.5-4.3-9.5-9.5s4.3-9.5,9.5-9.5h184.4c5.2,0,9.5,4.3,9.5,9.5
							S543.1,1117.5,537.8,1117.5z"/>
					</g>
				</g>
				<g>
					<g>
						<path class="st14" d="M1417.3,1352.4c50.1,0,94.5-24.6,121.7-62.4c-22.1-38.8-67-65.4-118.7-65.4c-53.7,0-100.1,28.7-121.2,70
							C1326.4,1329.7,1369.2,1352.4,1417.3,1352.4z"/>
					</g>
					<g>
						<path class="st15" d="M1421.5,1315.3L1421.5,1315.3c40.3,0,75.4-22,93.9-54.7c-24.2-22.2-57.9-36-95.2-36
							c-36.4,0-69.4,13.2-93.5,34.5C1345,1292.6,1380.6,1315.3,1421.5,1315.3z"/>
					</g>
					<g>
						<ellipse class="st16" cx="1525.4" cy="1169.8" rx="28.2" ry="32.7"/>
					</g>
					<g>
						<ellipse class="st17" cx="1317.7" cy="1169.8" rx="28.2" ry="32.7"/>
					</g>
					<g>
						<path class="st18" d="M1313.5,1146.4v36.2c0,59.6,48.3,108,108,108h0c59.6,0,108-48.3,108-108v-36.2c0-59.6-48.3-108-108-108
							h0C1361.8,1038.4,1313.5,1086.7,1313.5,1146.4z"/>
					</g>
					<g>
						<path class="st17" d="M1421.5,1038.4L1421.5,1038.4c-0.8,0-1.7,0-2.5,0v252c0.8,0,1.7,0,2.5,0h0c59.6,0,108-48.3,108-108
							v-36.2C1529.4,1086.7,1481.1,1038.4,1421.5,1038.4z"/>
					</g>
					<g>
						<path class="st19" d="M1311.9,1185.8l-6.2-38.1c-7.5-61.5,19.8-78.1,28.7-81.9c2.1-0.9,4.1-1.9,6-3.2
							c134.3-90.7,185,16.5,199.1,58.8c2.9,8.6-1.8,17.9-10.5,20.7c-155.8,50.1-202.4-23.9-202.4-23.9v51.6L1311.9,1185.8z"/>
					</g>
					<g>
						<path class="st20" d="M1325.5,1071.3c-11.1,9-25.4,29.8-19.8,76.4l6.2,38.1l14.8-16v-51.6c0,0,46.6,74,202.4,23.9
							c4.4-1.4,7.7-4.5,9.6-8.3C1342.3,1173.7,1325.1,1100.3,1325.5,1071.3z"/>
					</g>
					<g>
						<g>
							<ellipse class="st19" cx="1373" cy="1191.4" rx="14.1" ry="21.6"/>
						</g>
						<g>
							<circle class="st12" cx="1360.4" cy="1190.5" r="7.6"/>
						</g>
					</g>
					<g>
						<g>
							<ellipse class="st19" cx="1475.6" cy="1191.4" rx="14.1" ry="21.6"/>
						</g>
						<g>
							<circle class="st12" cx="1463" cy="1190.5" r="7.6"/>
						</g>
					</g>
				</g>
			</g>
			<g>
				<g>
					<g>
						<path class="st21" d="M1941.8,517.9h-726.1c-44,0-79.6,35.6-79.6,79.6v63.8c0,31.5,18.3,58.7,44.8,71.6
							c-6.4,21.9-24,48.3-71,57.2c0,0,128.6,6.4,165.8-49.1h666.2c44,0,79.6-35.6,79.6-79.6v-63.8
							C2021.4,553.5,1985.7,517.9,1941.8,517.9z"/>
					</g>
					<g>
						<g>
							<g>
								<path class="st12" d="M1938.8,584.2h-211c-5.2,0-9.5-4.3-9.5-9.5s4.3-9.5,9.5-9.5h211c5.2,0,9.5,4.3,9.5,9.5
									S1944.1,584.2,1938.8,584.2z"/>
							</g>
						</g>
						<g>
							<g>
								<path class="st12" d="M1681.7,584.2h-281.9c-5.2,0-9.5-4.3-9.5-9.5s4.3-9.5,9.5-9.5h281.9c5.2,0,9.5,4.3,9.5,9.5
									S1687,584.2,1681.7,584.2z"/>
							</g>
						</g>
						<g>
							<g>
								<path class="st12" d="M1332.5,584.2h-117c-5.2,0-9.5-4.3-9.5-9.5s4.3-9.5,9.5-9.5h117c5.2,0,9.5,4.3,9.5,9.5
									S1337.7,584.2,1332.5,584.2z"/>
							</g>
						</g>
						<g>
							<g>
								<path class="st12" d="M1938.8,662.2h-134.7c-5.2,0-9.5-4.3-9.5-9.5s4.3-9.5,9.5-9.5h134.7c5.2,0,9.5,4.3,9.5,9.5
									S1944.1,662.2,1938.8,662.2z"/>
							</g>
						</g>
						<g>
							<g>
								<path class="st12" d="M1747.3,662.2h-306.7c-5.2,0-9.5-4.3-9.5-9.5s4.3-9.5,9.5-9.5h306.7c5.2,0,9.5,4.3,9.5,9.5
									S1752.6,662.2,1747.3,662.2z"/>
							</g>
						</g>
						<g>
							<g>
								<path class="st12" d="M1399.8,662.2h-184.4c-5.2,0-9.5-4.3-9.5-9.5s4.3-9.5,9.5-9.5h184.4c5.2,0,9.5,4.3,9.5,9.5
									S1405.1,662.2,1399.8,662.2z"/>
							</g>
						</g>
					</g>
				</g>
				<g>
					<g>
						<g>
							<circle class="st21" cx="884" cy="687.9" r="149.8"/>
						</g>
					</g>
					<g>
						<g>
							<path class="st22" d="M878.6,734.8c-43.6,0-79.9,30.8-86.8,71.2c25.4,19.8,57.4,31.7,92.1,31.7c30.4,0,58.7-9.1,82.3-24.6
								C962.6,769.3,924.7,734.8,878.6,734.8z"/>
						</g>
					</g>
					<g>
						<g>
							<path class="st23" d="M924.4,832.2c-4.6-20.1-22.5-35.1-44-35.1c-20.8,0-38.2,14-43.5,33.1c14.8,4.9,30.7,7.6,47.2,7.6
								C898,837.7,911.5,835.8,924.4,832.2z"/>
						</g>
					</g>
					<g>
						<g>
							<path class="st24" d="M878.6,734.8c-34.6,0-64.5,19.4-78.8,47.5c24.6,6.4,52.6,10,82.2,10c27.2,0,53.1-3.1,76.2-8.5
								C944.1,754.8,913.7,734.8,878.6,734.8z"/>
						</g>
					</g>
					<g>
						<g>
							<ellipse class="st25" cx="881.9" cy="685.5" rx="179.6" ry="90.4"/>
						</g>
					</g>
					<g>
						<g>
							<g>
								<path class="st12" d="M1044.4,700.1L1044.4,700.1c-1.2,0-2.2-1-2.2-2.2V520.1c0-1.2,1-2.2,2.2-2.2l0,0c1.2,0,2.2,1,2.2,2.2
									v177.7C1046.6,699.1,1045.6,700.1,1044.4,700.1z"/>
							</g>
						</g>
						<g>
							<g>
								<circle class="st21" cx="1044.4" cy="517.9" r="17.2"/>
							</g>
						</g>
						<g>
							<g>
								<circle class="st26" cx="1052.6" cy="514.1" r="6"/>
							</g>
						</g>
					</g>
					<g>
						<g>
							<g>
								<path class="st12" d="M719.5,700.1L719.5,700.1c-1.2,0-2.2-1-2.2-2.2V520.1c0-1.2,1-2.2,2.2-2.2l0,0c1.2,0,2.2,1,2.2,2.2
									v177.7C721.7,699.1,720.7,700.1,719.5,700.1z"/>
							</g>
						</g>
						<g>
							<g>
								<circle class="st21" cx="719.5" cy="517.9" r="17.2"/>
							</g>
						</g>
						<g>
							<g>
								<circle class="st26" cx="727.7" cy="514.1" r="6"/>
							</g>
						</g>
					</g>
					<g>
						<g>
							<g>
								<path class="st22" d="M1061.6,685.5c0-17.2-9.6-33.3-26.2-47c-7.9,13.6-12.6,30.7-12.6,49.4c0,17.2,4,33.1,10.8,46.1
									C1051.3,720,1061.6,703.3,1061.6,685.5z"/>
							</g>
						</g>
						<g>
							<g>
								<path class="st22" d="M725.5,641c-14.8,13.1-23.2,28.3-23.2,44.5c0,16.8,9.1,32.5,24.9,45.9c6-12.5,9.5-27.5,9.5-43.5
									C736.7,670.4,732.5,654.2,725.5,641z"/>
							</g>
						</g>
					</g>
					<g>
						<g>
							<path class="st22" d="M973.7,727.6H785.6c-19.7,0-35.8-16-35.8-35.8v0c0-19.7,16-35.8,35.8-35.8h188.1
								c19.7,0,35.8,16,35.8,35.8v0C1009.4,711.6,993.4,727.6,973.7,727.6z"/>
						</g>
					</g>
					<g>
						<g>
							<path class="st27" d="M973.7,723.6H785.6c-19.7,0-35.8-16-35.8-35.8v0c0-19.7,16-35.8,35.8-35.8h188.1
								c19.7,0,35.8,16,35.8,35.8v0C1009.4,707.6,993.4,723.6,973.7,723.6z"/>
						</g>
					</g>
					<g>
						<g>
							<circle class="st21" cx="794.4" cy="689.9" r="12.5"/>
						</g>
					</g>
					<g>
						<g>
							<path class="st21" d="M880.3,705.3c-8.5,0-15.5-6.9-15.5-15.5c0-1.7,1.3-3,3-3s3,1.3,3,3c0,5.2,4.2,9.5,9.5,9.5
								s9.5-4.2,9.5-9.5c0-1.7,1.3-3,3-3s3,1.3,3,3C895.8,698.4,888.8,705.3,880.3,705.3z"/>
						</g>
					</g>
					<g>
						<g>
							<circle class="st21" cx="966.2" cy="689.9" r="12.5"/>
						</g>
					</g>
					<g>
						<g>
							<ellipse class="st23" cx="969.8" cy="627.7" rx="16" ry="10.8"/>
						</g>
					</g>
					<g>
						<g>
							<path class="st23" d="M900,656.1H785.6c-2.2,0-4-1.8-4-4s1.8-4,4-4H900c2.2,0,4,1.8,4,4S902.2,656.1,900,656.1z"/>
						</g>
					</g>
					<g>
						<g>
							<path class="st23" d="M972.7,731.6H867.9c-2.2,0-4-1.8-4-4s1.8-4,4-4h104.8c16.8,0,30.5-13.7,30.5-30.5v-15.7
								c0-2.2,1.8-4,4-4s4,1.8,4,4v15.7C1011.2,714.4,993.9,731.6,972.7,731.6z"/>
						</g>
					</g>
				</g>
			</g>
			<g>
				<g>
					<g>
						<path class="st21" d="M1941.8,1472.6h-726.1c-44,0-79.6,35.6-79.6,79.6v63.8c0,31.5,18.3,58.7,44.8,71.6
							c-6.4,21.9-24,48.3-71,57.2c0,0,128.6,6.4,165.8-49.1h666.2c44,0,79.6-35.6,79.6-79.6v-63.8
							C2021.4,1508.2,1985.7,1472.6,1941.8,1472.6z"/>
					</g>
					<g>
						<g>
							<g>
								<path class="st12" d="M1938.8,1538.9h-211c-5.2,0-9.5-4.3-9.5-9.5s4.3-9.5,9.5-9.5h211c5.2,0,9.5,4.3,9.5,9.5
									S1944.1,1538.9,1938.8,1538.9z"/>
							</g>
						</g>
						<g>
							<g>
								<path class="st12" d="M1681.7,1538.9h-281.9c-5.2,0-9.5-4.3-9.5-9.5s4.3-9.5,9.5-9.5h281.9c5.2,0,9.5,4.3,9.5,9.5
									S1687,1538.9,1681.7,1538.9z"/>
							</g>
						</g>
						<g>
							<g>
								<path class="st12" d="M1332.5,1538.9h-117c-5.2,0-9.5-4.3-9.5-9.5s4.3-9.5,9.5-9.5h117c5.2,0,9.5,4.3,9.5,9.5
									S1337.7,1538.9,1332.5,1538.9z"/>
							</g>
						</g>
						<g>
							<g>
								<path class="st12" d="M1938.8,1616.9h-134.7c-5.2,0-9.5-4.3-9.5-9.5s4.3-9.5,9.5-9.5h134.7c5.2,0,9.5,4.3,9.5,9.5
									S1944.1,1616.9,1938.8,1616.9z"/>
							</g>
						</g>
						<g>
							<g>
								<path class="st12" d="M1747.3,1616.9h-306.7c-5.2,0-9.5-4.3-9.5-9.5s4.3-9.5,9.5-9.5h306.7c5.2,0,9.5,4.3,9.5,9.5
									S1752.6,1616.9,1747.3,1616.9z"/>
							</g>
						</g>
						<g>
							<g>
								<path class="st12" d="M1399.8,1616.9h-184.4c-5.2,0-9.5-4.3-9.5-9.5s4.3-9.5,9.5-9.5h184.4c5.2,0,9.5,4.3,9.5,9.5
									S1405.1,1616.9,1399.8,1616.9z"/>
							</g>
						</g>
					</g>
				</g>
				<g>
					<g>
						<g>
							<circle class="st21" cx="884" cy="1642.6" r="149.8"/>
						</g>
					</g>
					<g>
						<g>
							<path class="st22" d="M878.6,1689.5c-43.6,0-79.9,30.8-86.8,71.2c25.4,19.8,57.4,31.7,92.1,31.7c30.4,0,58.7-9.1,82.3-24.6
								C962.6,1724,924.7,1689.5,878.6,1689.5z"/>
						</g>
					</g>
					<g>
						<g>
							<path class="st23" d="M924.4,1786.9c-4.6-20.1-22.5-35.1-44-35.1c-20.8,0-38.2,14-43.5,33.1c14.8,4.9,30.7,7.6,47.2,7.6
								C898,1792.4,911.5,1790.5,924.4,1786.9z"/>
						</g>
					</g>
					<g>
						<g>
							<path class="st24" d="M878.6,1689.5c-34.6,0-64.5,19.4-78.8,47.5c24.6,6.4,52.6,10,82.2,10c27.2,0,53.1-3.1,76.2-8.5
								C944.1,1709.5,913.7,1689.5,878.6,1689.5z"/>
						</g>
					</g>
					<g>
						<g>
							<ellipse class="st25" cx="881.9" cy="1640.2" rx="179.6" ry="90.4"/>
						</g>
					</g>
					<g>
						<g>
							<g>
								<path class="st12" d="M1044.4,1654.8L1044.4,1654.8c-1.2,0-2.2-1-2.2-2.2v-177.7c0-1.2,1-2.2,2.2-2.2l0,0
									c1.2,0,2.2,1,2.2,2.2v177.7C1046.6,1653.8,1045.6,1654.8,1044.4,1654.8z"/>
							</g>
						</g>
						<g>
							<g>
								<circle class="st21" cx="1044.4" cy="1472.6" r="17.2"/>
							</g>
						</g>
						<g>
							<g>
								<circle class="st26" cx="1052.6" cy="1468.8" r="6"/>
							</g>
						</g>
					</g>
					<g>
						<g>
							<g>
								<path class="st12" d="M719.5,1654.8L719.5,1654.8c-1.2,0-2.2-1-2.2-2.2v-177.7c0-1.2,1-2.2,2.2-2.2l0,0c1.2,0,2.2,1,2.2,2.2
									v177.7C721.7,1653.8,720.7,1654.8,719.5,1654.8z"/>
							</g>
						</g>
						<g>
							<g>
								<circle class="st21" cx="719.5" cy="1472.6" r="17.2"/>
							</g>
						</g>
						<g>
							<g>
								<circle class="st26" cx="727.7" cy="1468.8" r="6"/>
							</g>
						</g>
					</g>
					<g>
						<g>
							<g>
								<path class="st22" d="M1061.6,1640.2c0-17.2-9.6-33.3-26.2-47c-7.9,13.6-12.6,30.7-12.6,49.4c0,17.2,4,33.1,10.8,46.1
									C1051.3,1674.7,1061.6,1658,1061.6,1640.2z"/>
							</g>
						</g>
						<g>
							<g>
								<path class="st22" d="M725.5,1595.7c-14.8,13.1-23.2,28.3-23.2,44.5c0,16.8,9.1,32.5,24.9,45.9c6-12.5,9.5-27.5,9.5-43.5
									C736.7,1625.1,732.5,1608.9,725.5,1595.7z"/>
							</g>
						</g>
					</g>
					<g>
						<g>
							<path class="st22" d="M973.7,1682.4H785.6c-19.7,0-35.8-16-35.8-35.8v0c0-19.7,16-35.8,35.8-35.8h188.1
								c19.7,0,35.8,16,35.8,35.8v0C1009.4,1666.3,993.4,1682.4,973.7,1682.4z"/>
						</g>
					</g>
					<g>
						<g>
							<path class="st27" d="M973.7,1678.4H785.6c-19.7,0-35.8-16-35.8-35.8v0c0-19.7,16-35.8,35.8-35.8h188.1
								c19.7,0,35.8,16,35.8,35.8v0C1009.4,1662.3,993.4,1678.4,973.7,1678.4z"/>
						</g>
					</g>
					<g>
						<g>
							<circle class="st21" cx="794.4" cy="1644.6" r="12.5"/>
						</g>
					</g>
					<g>
						<g>
							<path class="st21" d="M880.3,1660c-8.5,0-15.5-6.9-15.5-15.5c0-1.7,1.3-3,3-3s3,1.3,3,3c0,5.2,4.2,9.5,9.5,9.5
								s9.5-4.2,9.5-9.5c0-1.7,1.3-3,3-3s3,1.3,3,3C895.8,1653.1,888.8,1660,880.3,1660z"/>
						</g>
					</g>
					<g>
						<g>
							<circle class="st21" cx="966.2" cy="1644.6" r="12.5"/>
						</g>
					</g>
					<g>
						<g>
							<ellipse class="st23" cx="969.8" cy="1582.4" rx="16" ry="10.8"/>
						</g>
					</g>
					<g>
						<g>
							<path class="st23" d="M900,1610.8H785.6c-2.2,0-4-1.8-4-4s1.8-4,4-4H900c2.2,0,4,1.8,4,4S902.2,1610.8,900,1610.8z"/>
						</g>
					</g>
					<g>
						<g>
							<path class="st23" d="M972.7,1686.4H867.9c-2.2,0-4-1.8-4-4s1.8-4,4-4h104.8c16.8,0,30.5-13.7,30.5-30.5v-15.7
								c0-2.2,1.8-4,4-4s4,1.8,4,4v15.7C1011.2,1669.1,993.9,1686.4,972.7,1686.4z"/>
						</g>
					</g>
				</g>
			</g>
		</g>
	</g>
	<polygon class="st6" points="2273.7,118.4 2311.7,78.3 2250.5,20.3 2215.1,57.7 2215.1,57.7 2212.5,60.5 2200.5,49.1 2118,136.3 
		2109.2,127.9 2080.6,158.1 1937.5,262.8 1938.5,308.2 2041.3,405.5 2047,399.5 2047,399.5 2141.4,299.8 2206.3,231.3 2206.3,231.3 
		2212,225.2 2203.2,216.9 2285.7,129.8 	"/>
	<g class="st2">
		<g>
			<path class="st28" d="M2187,163.5c-0.4,0.4-1,0.4-1.4,0l-59.8-56.6c-0.4-0.4-0.4-1,0-1.4L2243-18.3c0.4-0.4,1-0.4,1.4,0
				l59.8,56.6c0.4,0.4,0.4,1,0,1.4L2187,163.5z"/>
		</g>
		<g class="st29">
			<path class="st28" d="M2187,163.5c-0.4,0.4-1,0.4-1.4,0l-59.8-56.6c-0.4-0.4-0.4-1,0-1.4l81.9-86.5c0.4-0.4,1-0.4,1.4,0
				l59.8,56.6c0.4,0.4,0.4,1,0,1.4L2187,163.5z"/>
		</g>
		<g>
			
				<rect x="2237.4" y="11.9" transform="matrix(0.6875 -0.7262 0.7262 0.6875 689.4478 1639.6172)" class="st30" width="24.5" height="13.7"/>
			
				<rect x="2254.6" y="28.2" transform="matrix(0.6875 -0.7262 0.7262 0.6875 683.0092 1657.1691)" class="st30" width="24.5" height="13.7"/>
		</g>
		<polyline class="st30" points="2246.7,42.7 2237.5,52.4 2233.9,49.1 		"/>
		<g>
			<path class="st31" d="M2115.4,263.2c-0.8,0.8-2,0.8-2.8,0.1l-82.3-77.9c-0.8-0.8-0.8-2-0.1-2.8l162.2-171.3
				c0.8-0.8,2-0.8,2.8-0.1l82.3,77.9c0.8,0.8,0.8,2,0.1,2.8L2115.4,263.2z"/>
		</g>
		<g class="st32">
			<path class="st33" d="M2115.4,263.2c-0.8,0.8-2,0.8-2.8,0.1l-82.3-77.9c-0.8-0.8-0.8-2-0.1-2.8l83.7-88.4c0.8-0.8,2-0.8,2.8-0.1
				l82.3,77.9c0.8,0.8,0.8,2,0.1,2.8L2115.4,263.2z"/>
		</g>
		<g>
			<path class="st31" d="M2038,362.5c-1.9,2-5.1,2.1-7.1,0.2l-95.5-90.4c-2-1.9-2.1-5.1-0.2-7.1l158.1-167c1.9-2,5.1-2.1,7.1-0.2
				l95.5,90.4c2,1.9,2.1,5.1,0.2,7.1L2038,362.5z"/>
		</g>
		<g>
			<path class="st21" d="M2043.8,356.4c-1.9,2-5.1,2.1-7.1,0.2l-95.5-90.4c-2-1.9-2.1-5.1-0.2-7.1l158.1-167c1.9-2,5.1-2.1,7.1-0.2
				l95.5,90.4c2,1.9,2.1,5.1,0.2,7.1L2043.8,356.4z"/>
		</g>
		
			<ellipse transform="matrix(0.6875 -0.7262 0.7262 0.6875 528.8583 1590.6615)" class="st34" cx="2112.5" cy="180.9" rx="42.6" ry="42.6"/>
		
			<ellipse transform="matrix(0.6875 -0.7262 0.7262 0.6875 526.0097 1589.6166)" class="st35" cx="2109.9" cy="183.7" rx="42.6" ry="42.6"/>
		<path class="st36" d="M2078.9,154.4c16.2-17.1,43.1-17.8,60.2-1.7c17.1,16.2,17.8,43.1,1.6,60.2
			C2127.4,200.3,2092,166.8,2078.9,154.4z"/>
	</g>
	<g class="st2">
		<path class="st37" d="M-7,88.3l70-70l-70-70c-17.9,17.9-29,42.7-29,70C-36,45.6-24.9,70.4-7,88.3z"/>
		<path class="st37" d="M133.1-51.8c-17.9-17.9-42.7-29-70.1-29c-27.3,0-52.1,11.1-70,29l70,70L133.1-51.8z"/>
		<path class="st37" d="M133.1,88.3c17.9-17.9,29-42.7,29-70c0-27.4-11.1-52.1-29-70l-70,70L133.1,88.3z"/>
		<path class="st37" d="M-7,88.3c17.9,17.9,42.7,29,70,29c27.4,0,52.1-11.1,70.1-29l-70-70L-7,88.3z"/>
		<path class="st38" d="M63-160c49.2,0,93.8,20,126.1,52.2l196.8-196.8C303.3-387.3,189.1-438.4,63-438.4
			c-126.1,0-240.3,51.1-322.9,133.7l196.8,196.8C-30.8-140.1,13.8-160,63-160z"/>
		<path class="st39" d="M-115.3,18.3c0-49.2,20-93.8,52.2-126.1l-196.8-196.8C-342.5-222-393.7-107.8-393.7,18.3
			s51.1,240.3,133.8,322.9l196.8-196.8C-95.3,112.1-115.3,67.5-115.3,18.3z"/>
		<path class="st39" d="M519.7,18.3c0-126.1-51.1-240.3-133.8-322.9L189.1-107.8c32.3,32.3,52.2,76.9,52.2,126.1
			c0,49.2-20,93.8-52.2,126.1l196.8,196.8C468.6,258.6,519.7,144.4,519.7,18.3z"/>
		<path class="st38" d="M63,196.6c-49.2,0-93.8-20-126.1-52.2l-196.8,196.8C-177.3,423.9-63.1,475,63,475
			c126.1,0,240.3-51.1,322.9-133.7L189.1,144.4C156.9,176.7,112.3,196.6,63,196.6z"/>
		<path class="st40" d="M-36,18.3c0-27.4,11.1-52.1,29-70l-56.1-56.1C-95.3-75.5-115.3-31-115.3,18.3c0,49.2,20,93.8,52.2,126.1
			L-7,88.3C-24.9,70.4-36,45.6-36,18.3z"/>
		<path class="st41" d="M63-160c-49.2,0-93.8,20-126.1,52.2L-7-51.7c17.9-17.9,42.7-29,70-29c27.4,0,52.1,11.1,70.1,29l56.1-56.1
			C156.9-140.1,112.3-160,63-160z"/>
		<path class="st40" d="M162.1,18.3c0,27.4-11.1,52.1-29,70l56.1,56.1c32.3-32.3,52.2-76.9,52.2-126.1c0-49.2-20-93.8-52.2-126.1
			l-56.1,56.1C151-33.8,162.1-9.1,162.1,18.3z"/>
		<path class="st41" d="M63,117.3c-27.3,0-52.1-11.1-70-29l-56.1,56.1c32.3,32.3,76.9,52.2,126.1,52.2c49.2,0,93.8-20,126.1-52.2
			l-56.1-56.1C115.1,106.3,90.4,117.3,63,117.3z"/>
	</g>
</g>
</svg>
