<svg id="Capa_1" enable-background="new 0 0 512 512" fill="white" height="512" viewBox="0 0 512 512" width="512" xmlns="http://www.w3.org/2000/svg"><g><path d="m212 53.5h30v60h-30z"/><path d="m137.377 68.343h30v60h-30z" transform="matrix(.924 -.383 .383 .924 -26.035 65.798)"/><path d="m74.114 110.614h30v59.999h-30z" transform="matrix(.707 -.707 .707 .707 -73.328 104.197)"/><path d="m271.623 83.343h60v30h-60z" transform="matrix(.383 -.924 .924 .383 95.341 339.374)"/><path d="m334.886 125.614h59.999v30h-59.999z" transform="matrix(.707 -.707 .707 .707 7.443 299.198)"/><path d="m89.501 338.5h-89.501v60h136.977c-5.638-4.239-10.994-8.886-16.042-13.934-13.352-13.351-23.915-28.846-31.434-46.066z"/><path d="m512 368.5-84.4-90v60h-200.6c-33.137 0-60-26.863-60-60s26.863-60 60-60 60 26.863 60 60c0 10.932-2.938 21.173-8.047 30h64.25c2.469-9.59 3.797-19.639 3.797-30 0-66.274-53.726-120-120-120s-120 53.726-120 120c0 21.858 5.847 42.349 16.058 60 20.749 35.867 59.526 60 103.942 60h200.6v60z"/></g></svg>