<?xml version="1.0" encoding="utf-8"?>
<!-- Generator: Adobe Illustrator 21.0.0, SVG Export Plug-In . SVG Version: 6.00 Build 0)  -->
<svg version="1.1" id="vv" xmlns="http://www.w3.org/2000/svg" xmlns:xlink="http://www.w3.org/1999/xlink" x="0px" y="0px"
	 viewBox="0 0 2272 1872" style="enable-background:new 0 0 2272 1872;" xml:space="preserve">
<style type="text/css">
	.st0{fill:#B29384;}
	.st1{fill:none;}
	.st2{fill:#8E7266;}
	.st3{fill:#7C6259;}
	.st4{fill:#7F7F7F;}
	.st5{fill:#A0A0A0;}
	.st6{fill:#B2B2B2;}
	.st7{fill:#A8A8A8;}
	.st8{fill:#282828;}
	.st9{fill:#565656;}
	.st10{fill:#353535;}
	.st11{fill:#444444;}
	.st12{fill:#5B5B5B;}
	.st13{fill:#CCFFC0;}
	.st14{fill:#DDDDDD;}
	.st15{fill:#49413C;}
	.st16{fill:#D1D0CF;}
	.st17{fill:#4C4C4C;}
	.st18{fill:#999999;}
</style>
<g id="Layer_1_1_">
</g>
<g id="Layer_2">
</g>
<g>
	<g>
		<rect x="0.2" class="st0" width="2271.8" height="1872"/>
	</g>
</g>
<g>
	<path class="st1" d="M444.7,256c0,0,0.1,0,0.1,0C444.8,256,444.7,256,444.7,256z"/>
	<path class="st2" d="M13.4,1670.4c18.6-8.8,38.2-16.3,55.8-26.9c8-4.9,15.8-10.2,23.8-15.2c8.2-5.1,16.8-9.6,25.2-14.4
		c17.4-9.8,35-18,53.6-25c19.1-7.2,37-16.1,55.3-25.1c19-9.3,38.1-18.4,57.3-27.4c37.1-17.4,74.3-34.9,112.6-49.4
		c18.5-7,37-14.4,55.9-20.4c19.4-6.2,38.8-9,59.1-9.2c5.2-0.1,10.3,0,15.5,0.1c2.2,0,5.2-0.4,6.9,0.8c5.8,4-1.3,10.6-4.3,13.5
		c-13,12.7-27.5,22.8-42.1,33.5c-7.9,5.8-15.3,12-22.8,18.2c-7.4,6.1-15.7,10.9-23.7,16c-16.7,10.6-33.2,21.3-50.7,30.6
		c-17.3,9.2-35,17.8-52.1,27.4c-16.9,9.5-33.1,20.3-50.4,29c-8.4,4.3-17.1,8-26.1,10.9c-5.5,1.8-11,4.5-16.8,5.3
		c-0.3,0-0.7,0-1.1-0.1c0.4-0.5,0.5-3,0.7-3.6c0.4-1.2,0.9-2.3,1.6-3.3c4.4-6.8,12.7-10.6,18.8-15.7c7.1-5.9,12.7-13.3,20.1-18.7
		c7.3-5.4,15.3-9.8,23.4-14c8.1-4.2,16.4-8,24.6-12c8.1-4,15.9-8.7,23.8-13c7.9-4.4,16.1-8.3,25-10.1c2.2-0.5,4.6-2.7,5-5
		c0.2-1,0.4-2,0.6-3c1.6-8.4-10.2-12.3-13.2-5c-18.1,4.1-33.7,16.1-50.2,24c-17.7,8.5-36.1,16.4-51.5,28.8
		c-7.7,6.2-13.7,14.2-21.9,19.9c-7,4.9-14.6,9.8-18.6,17.7c-3.4,6.6-5.4,15.2-1.1,21.9c4.7,7.4,13.2,7.2,20.7,5.2
		c37.8-9.6,69.3-32.7,103.1-50.9c18.6-10,37.7-19.1,56.2-29.5c9.4-5.3,18.5-11.1,27.6-17c8.9-5.7,18.1-10.9,26.7-16.9
		c8.4-5.8,15.8-12.8,23.8-19c8.2-6.4,16.9-12.1,25.3-18.3c8-5.8,15.5-12.1,22.6-18.8c5.7-5.4,12.1-11.2,14.2-19.1
		c2.3-8.7-2-18.2-9.6-22.9c-7.1-4.4-18.3-2.8-26.2-2.7c-22.3,0-44,2.7-65.3,9.3c-20.4,6.4-40.4,14.4-60.3,22.1
		c-20.7,7.9-41,16.7-61.2,25.8c-40.7,18.4-81.1,37.4-120.9,57.7c-10.1,5.2-20.2,10.4-30.8,14.6c-9.8,3.9-19.7,7.4-29.3,11.6
		c-19.4,8.4-37.7,19.6-55.7,30.5c-8.8,5.3-17.2,11.4-25.8,17c-8.7,5.7-17.7,10.6-27,15.4c-10.2,5.2-20.3,10.3-30.4,15.8
		c-3.1,1.7-6.2,3.2-9.4,4.7v10C4.5,1674.3,9,1672.5,13.4,1670.4z"/>
	<path class="st2" d="M1950.6,807.7c-30.3,14.7-60.1,30.2-91.2,43.1c-15.3,6.4-30.9,11.9-46.1,18.6c-14.9,6.5-29.5,13.8-44.1,21
		c-30.5,15-61.8,28.6-92.9,42.3c-31.7,13.9-63.5,27.6-95,41.9c-29.2,13.2-57.8,27.9-87.2,40.4c-5.5,2.4-10.8,5.2-14.9,9.6
		c-3.2,3.4,1.9,8.6,5.2,5.2c4.6-4.8,10.7-7.3,16.7-9.6c6.4-2.5,12.6-5.2,18.8-8.1c15.3-7.3,30.8-14.1,46.4-20.8
		c31.7-13.7,63.5-27,95.4-40.4c31.8-13.3,63.6-26.7,95.1-40.7c14.9-6.7,29.6-13.9,44.4-20.8c15.2-7.1,30.6-13.1,46.2-19.1
		c31.1-11.9,61-26.2,90.9-40.8c31-15.1,62.2-29.7,93.4-44.4c31.1-14.5,62-29.4,93.2-43.6c30.8-14,61.8-27.5,92.4-42
		c18.3-8.6,36.4-17.7,54.7-26.3V656c-14.4,6.6-28.5,13.5-42.7,20.5c-30.6,15-61.7,29.1-92.7,43.2c-31.1,14.2-61.9,29-92.7,43.6
		C2012.7,778,1981.6,792.7,1950.6,807.7z"/>
	<path class="st2" d="M2272,1236.4c-27.1,15.9-54.6,31.2-81.7,47c-61.6,35.9-122.9,72.6-179.2,116.6c-7.7,6-15.3,12.2-22.8,18.4
		c-7.2,6-14.1,12.5-21.6,18.2c-14.9,11.2-32.4,18.4-48.1,28.3c-9,5.6-1.2,18.7,8.2,14.1c15.1-7.4,30.7-14.5,44.6-24.1
		c14.5-10,27.2-22.7,40.9-33.8c27.9-22.8,57.2-43.7,87.3-63.4c56.4-36.9,115.6-69.1,172.5-105V1236.4z"/>
	<path class="st2" d="M2200.7,1428.2c-3.9-2.4-8.2-0.6-10.6,2.8c-17.2,23.2-49.1,28.3-74.1,39.1c-15.7,6.7-30.2,15.7-45.4,23.4
		c-15.8,8-32.6,12.4-48.9,18.9c-16.8,6.7-33.1,14.6-49.9,21.3c-18.1,7.2-36.4,14-54.6,20.7c-18,6.6-35.9,13-53.5,20.5
		c-17.3,7.4-34.2,15.6-51.1,23.8c-70.1,34.1-140.8,67-210.4,102.2c-34.6,17.5-69.1,35.3-104.2,51.6c-34.2,15.9-68.5,31.6-101.8,49.4
		c-16.6,8.9-32.9,18.3-49.6,27.1c-17,9-34.5,17-51.8,25.4c-11.8,5.7-23.4,11.6-35.1,17.6h27.2c14.7-7.1,29.7-13.7,44.4-20.7
		c17.4-8.3,34.4-17.3,51.4-26.5c33.1-18,66.8-34.8,101.2-50.3c35.3-15.9,70.1-32.8,104.8-50.1c70.3-35.1,141.4-68.3,212.2-102.4
		c33.9-16.3,67.5-33.2,103-45.8c36.1-12.8,71.9-26.5,107-41.8c8.5-3.7,17.1-7.3,25.8-10.4c8.5-3,17.1-5.3,25.5-8.8
		c15.9-6.6,30.6-15.4,45.8-23.4c26.2-13.7,57.4-18.8,81-37.1c5.8-4.5,10.6-9.7,14.8-15.8C2205.9,1435.3,2204.2,1430.2,2200.7,1428.2
		z"/>
	<path class="st2" d="M18.6,1152.1c27.3-9.9,54.4-19.9,81-31.5c27.3-12,54-24.9,80.6-38.4c13.4-6.8,26.6-13.6,40.4-19.5
		c13.6-5.9,27.4-11.4,41.1-17.3c7.3-3.2,14.7-6.4,21.8-10.2c6.6-3.5,12.7-7.9,19.5-11.1c4.5-2.1,9.9-2.5,14-5.3
		c6-4,6.9-10.9,3.3-16.9c-3.3-5.5-11.8-3.1-12,3.2c0,0.2,0,0.3,0.1,0.3c-1.5,0.7-3.3,0.9-4.9,1.4c-6.2,1.9-12,5.2-17.6,8.6
		c-12,7.2-24.5,13-37.3,18.6c-13.1,5.6-26.2,11-39.2,16.8c-13.1,5.9-25.7,12.7-38.4,19.4c-25.8,13.4-51.9,26.4-78.4,38.4
		c-25.4,11.5-51.3,21.6-77.3,31.8c-5.1,2-10.3,4.1-15.3,6.3v12.4C6.2,1156.7,12.4,1154.4,18.6,1152.1z"/>
	<path class="st2" d="M0,447.7c7.3-4.5,14.6-9.1,22-13.5c24.7-14.8,49.8-28.5,74.9-42.5c24.6-13.7,48.4-28.3,73.7-40.8
		c26.2-12.9,52.8-25,79.1-37.5c52.2-24.7,104.5-49.1,156.1-75.1c25.3-12.8,50.4-26.2,76.1-38.1c12.3-5.7,25-10.9,36.8-17.6
		c11.3-6.5,21.7-14.4,33.8-19.7c14.2-6.2,28.2-12.7,42.2-19.3c13.9-6.5,28.3-11.9,42.2-18.4c6.8-3.2,13.4-7,20.7-8.6
		c7.2-1.6,14.7-2,21.9-3.7c9.8-2.4,20.1-7.3,30.4-8.3c-2.9,3.5-6.1,6.7-9.3,9.9c-2.7,2.6-5.3,5.3-8.3,7.4
		c-5.3,3.7-11.2,6.6-16.6,10.3c-5.1,3.5-9.7,7.6-14.7,11.1c-5.4,3.8-11.4,6.7-17.1,9.9c-12.2,7-24.2,14.2-36.2,21.5
		c-23.6,14.3-47.7,27.5-72,40.5C512,228,488.4,241.7,462.9,251c-3.3,1.2-6.7,2.4-10.1,3.4c-0.9,0.3-2,0.5-3.2,0.7c0.8-1,1.7-2,2.8-3
		c4.5-3.8,9.7-6.9,13.7-11.2c5.1-5.5,8.2-12.4,12.6-18.4c3.9-5.2-4.5-11.4-8.9-6.9c-4.9,5.1-8.5,11.4-13.7,16.2
		c-4.3,4.1-9.6,7.1-14.2,10.9c-7.8,6.4-16,22.7-1.6,27.1c5.4,1.6,11,0.2,16.2-1.4c7.1-2.2,14.1-4.8,21-7.6
		c14-5.8,27.5-12.5,40.8-19.6c27.4-14.5,54.9-28.8,81.5-44.6c13.4-8,26.7-16.2,40.1-24.1c13-7.6,26-14.5,37.9-23.7
		c6.3-4.8,13.2-8.5,19.8-12.8c5.1-3.3,9.5-7.2,13.7-11.5c6.8-6.7,17.9-16.3,17.8-26.7c0-3.1-2.2-6.5-5.4-7.1
		c-13.4-2.8-26,1.1-38.7,5.1c-6,1.9-12,3.5-18.3,4.4c-6.5,0.9-13,1.6-19.1,3.8c-6.3,2.3-12.3,5.5-18.3,8.4
		c-6.8,3.2-13.8,5.8-20.6,8.7c-12.8,5.4-25.3,11.4-37.9,17.3c-12.5,5.8-25.7,10.6-37.6,17.5c-11.8,6.9-22.9,14.6-35.3,20.6
		c-12.4,6-25,11.3-37.3,17.5c-13.3,6.6-26.6,13.4-39.8,20.2c-51.8,26.5-104.3,51.6-156.7,77c-52.5,25.4-106.3,48.9-156,79.6
		c-27.4,16.9-55.9,31.8-83.2,48.9c-8.3,5.2-16.6,10.6-24.9,15.9V447.7z M444.8,256c0,0-0.1,0-0.1,0C444.7,256,444.8,256,444.8,256z"
		/>
</g>
<g>
	<g>
		<polygon class="st2" points="2125,1872 2272,1798.5 2272,1464.8 1457.4,1872 		"/>
	</g>
	<g>
		<polygon class="st2" points="789.9,1872 2272,1131.1 2272,797.4 122.3,1872 		"/>
	</g>
	<g>
		<polygon class="st2" points="0.2,1599.3 2272,463.7 2272,130 0.2,1265.6 		"/>
	</g>
	<g>
		<polygon class="st2" points="0.2,598.2 0.2,931.9 1864.5,0 1196.9,0 		"/>
	</g>
	<g>
		<polygon class="st2" points="0.2,0 0.2,318.2 636.9,0 		"/>
	</g>
</g>
<g>
	<g>
		<path class="st3" d="M834.7-0.5l474,933.7c30.3,59.8,97.4,80.5,150.8,51.2L2272,538.6V5L834.7-0.5z"/>
	</g>
	<g>
		<g>
			<path class="st4" d="M2001.3,591.5l-521,279.6c-12.3,6.9-25.4,10.9-38.5,12.2c-0.8,0.1-1.6,0.2-2.5,0.2c-2.5,0.2-4.9,0.3-7.4,0.3
				c-1.6,0-3.3,0-4.9-0.1s-3.3-0.2-4.9-0.4c-3.2-0.3-6.5-0.8-9.7-1.4c-1.6-0.3-3.2-0.7-4.8-1.1c-1.6-0.4-3.1-0.8-4.7-1.3
				s-3.1-1-4.6-1.5c-0.8-0.3-1.5-0.6-2.3-0.8c-3.3-1.3-6.5-2.7-9.7-4.3c-1.9-1-3.8-2-5.7-3.1c-2.8-1.7-5.5-3.5-8.2-5.4
				c-3.3-2.4-6.5-5.1-9.5-8c-1.2-1.1-2.4-2.3-3.5-3.5c-2.3-2.4-4.5-5-6.5-7.7c-1-1.3-2-2.7-3-4.1c-2.4-3.5-4.7-7.3-6.7-11.2L918.9,0
				h-27.4l443,864.8c25.6,50.1,87.8,68.9,136.9,41.4L2272,476.5v-30.3L2001.3,591.5z"/>
		</g>
		<g>
			<path class="st5" d="M1840.3,0.2c-0.1,0-0.1-0.1-0.2-0.2H1814c0,0.1,0,0.1,0,0.2L1840.3,0.2z"/>
		</g>
		<g>
			<path class="st5" d="M1705.4,0.2c0-0.1,0-0.1,0-0.2h-68.2l-0.5,0.2L1705.4,0.2z"/>
		</g>
		<g>
			<path class="st5" d="M1905.9,0.2c0,0,0-0.1,0-0.1h-45.1l-0.3,0.1L1905.9,0.2z"/>
		</g>
		<g>
			<polygon class="st5" points="1321.1,0.4 1320.9,0 1301.2,0 1301.4,0.4 			"/>
		</g>
		<g>
			<path class="st5" d="M1486.2,859.8L2272,438.1V47.9l-935.9,494.8c-27.5,14.5-61.5,4.3-76.4-23L1025.3,91.3
				c-18.2-33.3-0.8-74.8,35.6-85.2l19.7-5.6l161.1-0.1l0.7-0.4H930.6l418.7,818.4C1375,868.6,1437.1,887.4,1486.2,859.8z
				 M1745.7,372c2.9-3.6,6.6-6.7,11-9l342.5-176.5c4.4-2.3,9-3.5,13.7-3.7c8.6-1.6,17.4,1.2,23.4,7.5c3.6,2.9,6.7,6.6,9,11
				l94.2,182.7c2.2,4.4,3.5,9,3.8,13.8c1.6,8.5-1.2,17.2-7.4,23.2c-3,3.7-6.7,6.8-11.1,9l-342.5,176.5c-4.4,2.3-9.1,3.5-13.7,3.7
				c-8.5,1.6-17.3-1.2-23.3-7.5c-3.6-2.9-6.7-6.6-9-11l-94.2-182.7c-2.3-4.4-3.5-9-3.7-13.7C1736.5,386.9,1739.4,378,1745.7,372z"/>
		</g>
		<g>
			<path class="st5" d="M2098.4,0.1l0.1-0.1h-86.9c0,0,0,0.1,0,0.1L2098.4,0.1z"/>
		</g>
		<g>
			<path class="st5" d="M1565.5,0.3l20,0l-0.1-0.2h-20L1565.5,0.3C1565.5,0.2,1565.5,0.3,1565.5,0.3z"/>
		</g>
		<g>
			<path class="st5" d="M1461.4,0.3c0-0.1,0.1-0.2,0.1-0.3H1422c-0.1,0.1-0.1,0.2-0.2,0.3L1461.4,0.3z"/>
		</g>
		<g>
			<polygon class="st5" points="2272,0 2272,0 2157.2,0 2157.3,0.1 			"/>
		</g>
		<g>
			<polygon class="st5" points="2272,446.1 2272,446.1 2001.3,591.5 			"/>
		</g>
		<g>
			<path class="st5" d="M1386.5,872.9c-1.9-1-3.8-2-5.7-3.1C1382.6,870.8,1384.5,871.9,1386.5,872.9z"/>
		</g>
		<g>
			<path class="st6" d="M1350.1,840.9c1,1.4,2,2.8,3,4.1c2.1,2.7,4.3,5.3,6.5,7.7c1.1,1.2,2.3,2.4,3.5,3.5c3,2.9,6.2,5.5,9.5,8
				c2.6,2,5.4,3.8,8.2,5.4c1.9,1.1,3.8,2.2,5.7,3.1c3.1,1.6,6.4,3.1,9.7,4.3c0.8,0.3,1.5,0.6,2.3,0.8c1.5,0.5,3.1,1.1,4.6,1.5
				s3.1,0.9,4.7,1.3c1.6,0.4,3.2,0.7,4.8,1.1c3.2,0.6,6.4,1.1,9.7,1.4c1.6,0.2,3.3,0.3,4.9,0.4s3.3,0.1,4.9,0.1
				c2.5,0,4.9-0.1,7.4-0.3c0.8-0.1,1.6-0.1,2.5-0.2c13.1-1.3,26.2-5.3,38.5-12.2l521-279.6L2272,446.1v-0.6v-7.5l-785.8,421.8
				c-49.1,27.5-111.3,8.8-136.9-41.4L930.6,0h-9.2h-2.5l424.5,829.7C1345.4,833.7,1347.6,837.4,1350.1,840.9z"/>
		</g>
		<g>
			<path class="st4" d="M2169,21.6c2.8,5.2,2.4,11.3-0.6,15.9c-0.4,3-1.6,5.8-3.5,8.2c0.3,6.1-2.9,12.1-8.7,14.9L2098,89.2
				c-7.5,3.7-16.5,0.8-20.6-6.5l-17.3-31.2c-3.2-5.8-2.3-12.8,1.7-17.6c-0.2-3.3,0.7-6.6,2.4-9.3c0.6-5.1,3.7-9.8,8.7-12.2
				l25.4-12.2l-86.7,0c1.6,4.6,0.9,9.5-1.6,13.5c-0.4,3-1.6,5.8-3.5,8.2c0.3,6.1-2.9,12.1-8.7,14.9l-58.2,28.6
				c-7.5,3.7-16.5,0.8-20.6-6.5l-17.3-31.2c-3.2-5.8-2.3-12.8,1.7-17.6c-0.2-3.3,0.7-6.6,2.4-9.3c0-0.2,0.1-0.4,0.1-0.5l-45.4,0
				l-3.6,1.8c-5.6,2.7-12,1.9-16.6-1.8l-26.3,0c-0.4,1.6-1.1,3.1-1.9,4.4c-0.4,3-1.6,5.8-3.5,8.2c0.3,6.1-2.9,12.1-8.7,14.9
				l-58.2,28.6c-7.5,3.7-16.5,0.8-20.6-6.5l-17.3-31.2c-3.2-5.8-2.3-12.8,1.7-17.6c0-0.3,0-0.5,0-0.8l-68.7,0l-26.9,13.2
				c-7.5,3.7-16.5,0.8-20.6-6.5l-3.7-6.7l-20,0c2.8,5.2,2.3,11.2-0.6,15.8c-0.4,3-1.6,5.8-3.5,8.2c0.3,6.1-2.9,12.1-8.7,14.9
				l-58.2,28.6c-7.5,3.7-16.5,0.8-20.6-6.5l-17.3-31.2c-3.2-5.8-2.3-12.8,1.7-17.6c-0.2-3.3,0.7-6.6,2.4-9.3c0.1-1,0.3-2,0.6-2.9
				l-39.5,0c-1.5,2.4-3.7,4.5-6.4,5.9l-58.2,28.6c-7.5,3.7-16.5,0.8-20.6-6.5l-15.5-28l-19.8,0l11.6,21.2c2.8,5.2,2.4,11.3-0.6,15.9
				c-0.4,3-1.6,5.8-3.5,8.2c0.3,6.1-2.9,12.1-8.7,14.9L1242,89.2c-7.5,3.7-16.5,0.8-20.6-6.5l-17.3-31.2c-3.2-5.8-2.3-12.8,1.7-17.6
				c-0.2-3.3,0.7-6.6,2.4-9.3c0.6-5.1,3.7-9.8,8.7-12.2l24.8-11.9l-161.1,0.1l-19.7,5.6c-36.5,10.4-53.8,52-35.6,85.2l234.4,428.4
				c14.9,27.3,48.9,37.5,76.4,23L2272,47.9V0l-114.7,0L2169,21.6z M1790.6,55.1c0.6-5.1,3.7-9.8,8.7-12.2l58.6-28.2
				c7.5-3.6,16.5-0.7,20.5,6.6l16.8,30.9c2.8,5.2,2.4,11.3-0.6,15.9c-0.4,3-1.6,5.8-3.5,8.2c0.3,6.1-2.9,12.1-8.7,14.9l-58.2,28.6
				c-7.5,3.7-16.5,0.8-20.6-6.5L1786.5,82c-3.2-5.8-2.3-12.8,1.7-17.6C1788,61.1,1788.8,57.8,1790.6,55.1z M1742.7,69
				c7.5-3.6,16.5-0.7,20.5,6.6l16.8,30.9c2.8,5.2,2.4,11.3-0.6,15.9c-0.4,3-1.6,5.8-3.5,8.2c0.3,6.1-2.9,12.1-8.7,14.9l-58.2,28.6
				c-7.5,3.7-16.5,0.8-20.6-6.5l-17.3-31.2c-3.2-5.8-2.3-12.8,1.7-17.6c-0.2-3.3,0.7-6.6,2.4-9.3c0.6-5.1,3.7-9.8,8.7-12.2
				L1742.7,69z M1590.1,55.4c-0.2-3.3,0.7-6.6,2.4-9.3c0.6-5.1,3.7-9.8,8.7-12.2L1660,5.6c7.5-3.6,16.5-0.7,20.5,6.6l16.8,30.9
				c2.8,5.2,2.4,11.3-0.6,15.9c-0.4,3-1.6,5.8-3.5,8.2c0.3,6.1-2.9,12.1-8.7,14.9l-58.2,28.6c-7.5,3.7-16.5,0.8-20.6-6.5L1588.5,73
				C1585.2,67.2,1586.1,60.2,1590.1,55.4z M1652,199.9l-58.2,28.6c-7.5,3.7-16.5,0.8-20.6-6.5l-17.3-31.2
				c-3.2-5.8-2.3-12.8,1.7-17.6c-0.2-3.3,0.7-6.6,2.4-9.3c0.6-5.1,3.7-9.8,8.7-12.2l58.6-28.2c7.5-3.6,16.5-0.7,20.5,6.6l16.8,30.9
				c2.8,5.2,2.4,11.3-0.6,15.9c-0.4,3-1.6,5.8-3.5,8.2C1661,191,1657.8,197,1652,199.9z M1474.9,109.8c-0.2-3.3,0.7-6.6,2.4-9.3
				c0.6-5.1,3.7-9.8,8.7-12.2l58.6-28.2c7.5-3.6,16.5-0.7,20.5,6.6l16.8,30.9c2.8,5.2,2.4,11.3-0.6,15.9c-0.4,3-1.6,5.8-3.5,8.2
				c0.3,6.1-2.9,12.1-8.7,14.9l-58.2,28.6c-7.5,3.7-16.5,0.8-20.6-6.5l-17.3-31.2C1469.9,121.6,1470.8,114.6,1474.9,109.8z
				 M1536.7,254.2l-58.2,28.6c-7.5,3.7-16.5,0.8-20.6-6.5l-17.3-31.2c-3.2-5.8-2.3-12.8,1.7-17.6c-0.2-3.3,0.7-6.6,2.4-9.3
				c0.6-5.1,3.7-9.8,8.7-12.2l58.6-28.2c7.5-3.6,16.5-0.7,20.5,6.6l16.8,30.9c2.8,5.2,2.4,11.3-0.6,15.9c-0.4,3-1.6,5.8-3.5,8.2
				C1545.7,245.4,1542.5,251.4,1536.7,254.2z M1466.8,151.8c2.8,5.2,2.4,11.3-0.6,15.9c-0.4,3-1.6,5.8-3.5,8.2
				c0.3,6.1-2.9,12.1-8.7,14.9l-58.2,28.6c-7.5,3.7-16.5,0.8-20.6-6.5l-17.3-31.2c-3.2-5.8-2.3-12.8,1.7-17.6
				c-0.2-3.3,0.7-6.6,2.4-9.3c0.6-5.1,3.7-9.8,8.7-12.2l58.6-28.2c7.5-3.6,16.5-0.7,20.5,6.6L1466.8,151.8z M1343,66.9
				c-0.2-3.3,0.7-6.6,2.4-9.3c0.6-5.1,3.7-9.8,8.7-12.2l58.6-28.2c7.5-3.6,16.5-0.7,20.5,6.6l16.8,30.9c2.8,5.2,2.4,11.3-0.6,15.9
				c-0.4,3-1.6,5.8-3.5,8.2c0.3,6.1-2.9,12.1-8.7,14.9l-58.2,28.6c-7.5,3.7-16.5,0.8-20.6-6.5l-17.3-31.2
				C1338.1,78.7,1339,71.7,1343,66.9z M1227.8,121.3c-0.2-3.3,0.7-6.6,2.4-9.3c0.6-5.1,3.7-9.8,8.7-12.2l58.6-28.2
				c7.5-3.6,16.5-0.7,20.5,6.6l16.8,30.9c2.8,5.2,2.4,11.3-0.6,15.9c-0.4,3-1.6,5.8-3.5,8.2c0.3,6.1-2.9,12.1-8.7,14.9l-58.2,28.6
				c-7.5,3.7-16.5,0.8-20.6-6.5l-17.3-31.2C1222.8,133.1,1223.8,126.1,1227.8,121.3z M1088.8,146.3l-17.3-31.2
				c-3.2-5.9-2.3-12.8,1.7-17.6c-0.2-3.3,0.7-6.6,2.4-9.3c0.6-5.2,3.8-10,9-12.4l78.6-36.1c7.5-3.4,16.3-0.5,20.3,6.7l16.8,30.8
				c2.8,5.2,2.4,11.3-0.6,15.9c-0.4,3-1.6,5.8-3.5,8.2c0.4,6.2-3,12.3-9,15.1l-78.1,36.5C1101.7,156.4,1092.8,153.5,1088.8,146.3z
				 M1134.1,224.3l-17.3-31.2c-3.2-5.8-2.3-12.8,1.7-17.6c-0.2-3.3,0.7-6.6,2.4-9.3c0.6-5.1,3.7-9.8,8.7-12.2l58.6-28.2
				c7.5-3.6,16.5-0.7,20.5,6.6l16.8,30.9c2.8,5.2,2.4,11.3-0.6,15.9c-0.4,3-1.6,5.8-3.5,8.2c0.3,6.1-2.9,12.1-8.7,14.9l-58.2,28.6
				C1147.2,234.5,1138.2,231.6,1134.1,224.3z M1178.8,309.2l-17.4-31.3c-3.2-5.8-2.3-12.8,1.7-17.6c-0.2-3.3,0.7-6.6,2.4-9.3
				c0.6-5.1,3.7-9.7,8.6-12.2l141.6-69.9c7.5-3.7,16.7-0.8,20.7,6.5l16.8,30.8c2.8,5.2,2.4,11.3-0.6,15.9c-0.4,3-1.6,5.8-3.5,8.2
				c0.3,6-2.8,12-8.6,14.9l-141.1,70.4C1192,319.3,1182.9,316.5,1178.8,309.2z M1221.4,398.8l-17.4-31.3c-3.2-5.8-2.3-12.8,1.7-17.6
				c-0.2-3.3,0.7-6.6,2.4-9.4c0.6-4.9,3.5-9.5,8.3-12l178.5-93.4c7.6-4,16.9-1.1,21,6.4l16.8,30.8c2.8,5.2,2.4,11.3-0.6,15.9
				c-0.4,3-1.6,5.8-3.5,8.1c0.3,5.9-2.7,11.8-8.3,14.7L1242.4,405C1234.9,409,1225.6,406.2,1221.4,398.8z M1352.4,467.4l-58.2,28.6
				c-7.5,3.7-16.5,0.8-20.6-6.5l-17.3-31.2c-3.2-5.8-2.3-12.8,1.7-17.6c-0.2-3.3,0.7-6.6,2.4-9.3c0.6-5.1,3.7-9.8,8.7-12.2
				l58.6-28.2c7.5-3.6,16.5-0.7,20.5,6.6l16.8,30.9c2.8,5.2,2.4,11.3-0.6,15.9c-0.4,3-1.6,5.8-3.5,8.2
				C1361.4,458.5,1358.2,464.5,1352.4,467.4z M1459.1,411.7l-58.2,28.6c-7.5,3.7-16.5,0.8-20.6-6.5l-17.3-31.2
				c-3.2-5.8-2.3-12.8,1.7-17.6c-0.2-3.3,0.7-6.6,2.4-9.3c0.6-5.1,3.7-9.8,8.7-12.2l58.6-28.2c7.5-3.6,16.5-0.7,20.5,6.6l16.8,30.9
				c2.8,5.2,2.4,11.3-0.6,15.9c-0.4,3-1.6,5.8-3.5,8.2C1468.2,402.8,1465,408.8,1459.1,411.7z M1565.9,357.8l-58.2,28.6
				c-7.5,3.7-16.5,0.8-20.6-6.5l-17.3-31.2c-3.2-5.8-2.3-12.8,1.7-17.6c-0.2-3.3,0.7-6.6,2.4-9.3c0.6-5.1,3.7-9.8,8.7-12.2
				l58.6-28.2c7.5-3.6,16.5-0.7,20.5,6.6l16.8,30.9c2.8,5.2,2.4,11.3-0.6,15.9c-0.4,3-1.6,5.8-3.5,8.2
				C1575,348.9,1571.8,354.9,1565.9,357.8z M1672.7,299.6l-58.2,28.6c-7.5,3.7-16.5,0.8-20.6-6.5l-17.3-31.2
				c-3.2-5.8-2.3-12.8,1.7-17.6c-0.2-3.3,0.7-6.6,2.4-9.3c0.6-5.1,3.7-9.8,8.7-12.2l58.6-28.2c7.5-3.6,16.5-0.7,20.5,6.6l16.8,30.9
				c2.8,5.2,2.4,11.3-0.6,15.9c-0.4,3-1.6,5.8-3.5,8.2C1681.8,290.8,1678.6,296.8,1672.7,299.6z M2049.4,116.3l-328,159.9
				c-7.5,3.7-16.5,0.8-20.6-6.5l-17.3-31.2c-3.2-5.8-2.3-12.8,1.7-17.6c-0.2-3.3,0.7-6.6,2.4-9.3c0.6-5.1,3.7-9.8,8.7-12.2
				l328.5-159.5c7.5-3.6,16.5-0.7,20.5,6.6l16.8,30.9c2.8,5.2,2.4,11.3-0.6,15.9c-0.4,3-1.6,5.8-3.5,8.2
				C2058.4,107.4,2055.2,113.4,2049.4,116.3z"/>
		</g>
		<g>
			<path class="st7" d="M2136.3,190.3c-6-6.3-14.9-9.1-23.4-7.5C2121.3,182.3,2129.7,185,2136.3,190.3z"/>
		</g>
		<g>
			<path class="st7" d="M2241.5,410c-1.3,4-3.3,7.7-5.8,10.9c6.2-6,9-14.7,7.4-23.2C2243.4,401.8,2242.8,406,2241.5,410z"/>
		</g>
		<g>
			<path class="st7" d="M1845.1,602.8c6,6.2,14.8,9.1,23.3,7.5c-0.6,0-1.3,0.1-1.9,0.1C1858.7,610.3,1851.1,607.6,1845.1,602.8z"/>
		</g>
		<g>
			<path class="st7" d="M1839.4,590.1c3.7,7.2,10,12.6,17.8,15c7.7,2.5,16,1.8,23.2-1.9l342.5-176.5c7.2-3.7,12.6-10,15-17.8
				c2.5-7.7,1.8-16-1.9-23.2l-94.2-182.7c-3.7-7.2-10-12.6-17.8-15c-3.1-1-6.2-1.5-9.3-1.5c-4.8,0-9.5,1.1-13.9,3.4l-342.5,176.5
				c-14.9,7.7-20.8,26.1-13.1,41L1839.4,590.1z"/>
		</g>
		<g>
			<path class="st7" d="M1745.7,372c-6.3,6-9.1,14.9-7.5,23.4C1737.7,387,1740.4,378.6,1745.7,372z"/>
		</g>
		<g>
			<path class="st4" d="M1738.2,395.4c0.3,4.6,1.5,9.3,3.7,13.7l94.2,182.7c2.3,4.4,5.4,8.1,9,11c6.1,4.9,13.7,7.5,21.4,7.5
				c0.6,0,1.3,0,1.9-0.1c4.6-0.3,9.3-1.5,13.7-3.7L2224.6,430c4.4-2.2,8.1-5.3,11.1-9c2.6-3.2,4.6-6.9,5.8-10.9
				c1.3-4,1.8-8.2,1.6-12.3c-0.3-4.7-1.5-9.4-3.8-13.8l-94.2-182.7c-2.3-4.4-5.3-8.1-9-11c-6.6-5.3-15-8-23.4-7.5
				c-4.6,0.3-9.3,1.5-13.7,3.7L1756.6,363c-4.4,2.3-8.1,5.3-11,9C1740.4,378.6,1737.7,387,1738.2,395.4z M1758.4,366.4l342.5-176.5
				c4.4-2.3,9.1-3.4,13.9-3.4c3.1,0,6.2,0.5,9.3,1.5c7.7,2.5,14.1,7.8,17.8,15l94.2,182.7c3.7,7.2,4.4,15.5,1.9,23.2
				c-2.5,7.7-7.8,14.1-15,17.8l-342.5,176.5c-7.2,3.7-15.5,4.4-23.2,1.9c-7.7-2.5-14.1-7.8-17.8-15l-94.2-182.7
				C1737.6,392.4,1743.4,374,1758.4,366.4z"/>
		</g>
		<g>
			<path class="st8" d="M1196.2,101.3c-1.4,1.7-3.2,3.1-5.4,4.2l-78.1,36.5c-7.4,3.5-16.3,0.6-20.3-6.6l-17.3-31.2
				c-1.2-2.1-1.8-4.4-1.9-6.7c-4,4.8-4.9,11.8-1.7,17.6l17.3,31.2c4,7.2,12.9,10.1,20.3,6.6l78.1-36.5
				C1193.3,113.6,1196.6,107.5,1196.2,101.3z"/>
		</g>
		<g>
			<path class="st8" d="M1221.6,187.2c-1.4,1.6-3.1,3-5.1,4l-58.2,28.6c-7.5,3.7-16.5,0.8-20.6-6.5l-17.3-31.2
				c-1.2-2.1-1.8-4.4-1.9-6.7c-4,4.8-4.9,11.8-1.7,17.6l17.3,31.2c4,7.3,13.1,10.1,20.6,6.5l58.2-28.6
				C1218.7,199.3,1221.9,193.3,1221.6,187.2z"/>
		</g>
		<g>
			<path class="st8" d="M1356,456.5l-58.2,28.6c-7.5,3.7-16.5,0.8-20.6-6.5l-17.3-31.2c-1.2-2.1-1.8-4.4-1.9-6.7
				c-4,4.8-4.9,11.8-1.7,17.6l17.3,31.2c4,7.3,13.1,10.1,20.6,6.5l58.2-28.6c5.8-2.9,9.1-8.9,8.7-14.9
				C1359.7,454.1,1358,455.5,1356,456.5z"/>
		</g>
		<g>
			<path class="st8" d="M1462.8,400.7l-58.2,28.6c-7.5,3.7-16.5,0.8-20.6-6.5l-17.3-31.2c-1.2-2.1-1.8-4.4-1.9-6.7
				c-4,4.8-4.9,11.8-1.7,17.6l17.3,31.2c4,7.3,13.1,10.1,20.6,6.5l58.2-28.6c5.8-2.9,9.1-8.9,8.7-14.9
				C1466.5,398.4,1464.8,399.7,1462.8,400.7z"/>
		</g>
		<g>
			<path class="st8" d="M1569.5,346.8l-58.2,28.6c-7.5,3.7-16.5,0.8-20.6-6.5l-17.3-31.2c-1.2-2.1-1.8-4.4-1.9-6.7
				c-4,4.8-4.9,11.8-1.7,17.6l17.3,31.2c4,7.3,13.1,10.1,20.6,6.5l58.2-28.6c5.8-2.9,9.1-8.9,8.7-14.9
				C1573.3,344.5,1571.6,345.8,1569.5,346.8z"/>
		</g>
		<g>
			<path class="st8" d="M1540.3,243.3l-58.2,28.6c-7.5,3.7-16.5,0.8-20.6-6.5l-17.3-31.2c-1.2-2.1-1.8-4.4-1.9-6.7
				c-4,4.8-4.9,11.8-1.7,17.6l17.3,31.2c4,7.3,13.1,10.1,20.6,6.5l58.2-28.6c5.8-2.9,9.1-8.9,8.7-14.9
				C1544,240.9,1542.3,242.3,1540.3,243.3z"/>
		</g>
		<g>
			<path class="st8" d="M1655.6,188.9l-58.2,28.6c-7.5,3.7-16.5,0.8-20.6-6.5l-17.3-31.2c-1.2-2.1-1.8-4.4-1.9-6.7
				c-4,4.8-4.9,11.8-1.7,17.6l17.3,31.2c4,7.3,13.1,10.1,20.6,6.5l58.2-28.6c5.8-2.9,9.1-8.9,8.7-14.9
				C1659.3,186.5,1657.6,187.9,1655.6,188.9z"/>
		</g>
		<g>
			<path class="st8" d="M1770.9,134.6l-58.2,28.6c-7.5,3.7-16.5,0.8-20.6-6.5l-17.3-31.2c-1.2-2.1-1.8-4.4-1.9-6.7
				c-4,4.8-4.9,11.8-1.7,17.6l17.3,31.2c4,7.3,13.1,10.1,20.6,6.5l58.2-28.6c5.8-2.9,9.1-8.9,8.7-14.9
				C1774.6,132.2,1772.9,133.6,1770.9,134.6z"/>
		</g>
		<g>
			<path class="st8" d="M1786.5,82l17.3,31.2c4,7.3,13.1,10.1,20.6,6.5l58.2-28.6c5.8-2.9,9.1-8.9,8.7-14.9c-1.4,1.6-3.1,3-5.1,4
				l-58.2,28.6c-7.5,3.7-16.5,0.8-20.6-6.5l-17.3-31.2c-1.2-2.1-1.8-4.4-1.9-6.7C1784.1,69.2,1783.2,76.2,1786.5,82z"/>
		</g>
		<g>
			<path class="st8" d="M2001.4,25.8l-58.2,28.6c-7.5,3.7-16.5,0.8-20.6-6.5l-17.3-31.2c-1.2-2.1-1.8-4.4-1.9-6.7
				c-4,4.8-4.9,11.8-1.7,17.6l17.3,31.2c4,7.3,13.1,10.1,20.6,6.5l58.2-28.6c5.8-2.9,9.1-8.9,8.7-14.9
				C2005.2,23.4,2003.4,24.8,2001.4,25.8z"/>
		</g>
		<g>
			<path class="st8" d="M1457.6,179.9l-58.2,28.6c-7.5,3.7-16.5,0.8-20.6-6.5l-17.3-31.2c-1.2-2.1-1.8-4.4-1.9-6.7
				c-4,4.8-4.9,11.8-1.7,17.6l17.3,31.2c4,7.3,13.1,10.1,20.6,6.5l58.2-28.6c5.8-2.9,9.1-8.9,8.7-14.9
				C1461.3,177.6,1459.6,178.9,1457.6,179.9z"/>
		</g>
		<g>
			<path class="st8" d="M1490.5,158.7c4,7.3,13.1,10.1,20.6,6.5l58.2-28.6c5.8-2.9,9.1-8.9,8.7-14.9c-1.4,1.6-3.1,3-5.1,4
				l-58.2,28.6c-7.5,3.7-16.5,0.8-20.6-6.5l-17.3-31.2c-1.2-2.1-1.8-4.4-1.9-6.7c-4,4.8-4.9,11.8-1.7,17.6L1490.5,158.7z"/>
		</g>
		<g>
			<path class="st8" d="M1605.8,104.3c4,7.3,13.1,10.1,20.6,6.5l58.2-28.6c5.8-2.9,9.1-8.9,8.7-14.9c-1.4,1.6-3.1,3-5.1,4L1630,99.8
				c-7.5,3.7-16.5,0.8-20.6-6.5l-17.3-31.2c-1.2-2.1-1.8-4.4-1.9-6.7c-4,4.8-4.9,11.8-1.7,17.6L1605.8,104.3z"/>
		</g>
		<g>
			<path class="st8" d="M1703.7,18.7l17.3,31.2c4,7.3,13.1,10.1,20.6,6.5l58.2-28.6c5.8-2.9,9.1-8.9,8.7-14.9c-1.4,1.6-3.1,3-5.1,4
				l-58.2,28.6c-7.5,3.7-16.5,0.8-20.6-6.5l-17.3-31.2c-1.2-2.1-1.8-4.4-1.9-6.7C1701.4,5.8,1700.5,12.8,1703.7,18.7z"/>
		</g>
		<g>
			<path class="st8" d="M1856.9,2l3.6-1.8l0.3-0.1h-20.8c0.1,0.1,0.1,0.1,0.2,0.2C1844.9,3.8,1851.4,4.7,1856.9,2z"/>
		</g>
		<g>
			<path class="st8" d="M1243.4,170.1c4,7.3,13.1,10.1,20.6,6.5l58.2-28.6c5.8-2.9,9.1-8.9,8.7-14.9c-1.4,1.6-3.1,3-5.1,4
				l-58.2,28.6c-7.5,3.7-16.5,0.8-20.6-6.5l-17.3-31.2c-1.2-2.1-1.8-4.4-1.9-6.7c-4,4.8-4.9,11.8-1.7,17.6L1243.4,170.1z"/>
		</g>
		<g>
			<path class="st8" d="M1358.7,115.8c4,7.3,13.1,10.1,20.6,6.5l58.2-28.6c5.8-2.9,9.1-8.9,8.7-14.9c-1.4,1.6-3.1,3-5.1,4
				l-58.2,28.6c-7.5,3.7-16.5,0.8-20.6-6.5L1345,73.6c-1.2-2.1-1.8-4.4-1.9-6.7c-4,4.8-4.9,11.8-1.7,17.6L1358.7,115.8z"/>
		</g>
		<g>
			<path class="st8" d="M1556.3,28.3l-58.2,28.6c-7.5,3.7-16.5,0.8-20.6-6.5l-17.3-31.2c-1.2-2.1-1.8-4.4-1.9-6.7
				c-4,4.8-4.9,11.8-1.7,17.6l17.3,31.2c4,7.3,13.1,10.1,20.6,6.5l58.2-28.6c5.8-2.9,9.1-8.9,8.7-14.9
				C1560.1,25.9,1558.4,27.3,1556.3,28.3z"/>
		</g>
		<g>
			<path class="st8" d="M1589.3,7c4,7.3,13.1,10.1,20.6,6.5l26.9-13.2l0.5-0.2h-18.6l-5.1,2.5c-5.9,2.9-12.8,1.7-17.4-2.5h-10.6
				l0.1,0.2L1589.3,7z"/>
		</g>
		<g>
			<path class="st8" d="M1303.7,49.7l-58.2,28.6c-7.5,3.7-16.5,0.8-20.6-6.5l-17.3-31.2c-1.2-2.1-1.8-4.4-1.9-6.7
				c-4,4.8-4.9,11.8-1.7,17.6l17.3,31.2c4,7.3,13.1,10.1,20.6,6.5l58.2-28.6c5.8-2.9,9.1-8.9,8.7-14.9
				C1307.5,47.3,1305.8,48.7,1303.7,49.7z"/>
		</g>
		<g>
			<path class="st8" d="M1336.7,28.4c4,7.3,13.1,10.1,20.6,6.5l58.2-28.6c2.8-1.4,4.9-3.4,6.4-5.9c0.1-0.1,0.1-0.2,0.2-0.3h-12.7
				l-48.5,23.8c-7.5,3.7-16.5,0.8-20.6-6.5L1330.6,0h-9.7l0.2,0.3L1336.7,28.4z"/>
		</g>
		<g>
			<path class="st8" d="M1676.3,288.7l-58.2,28.6c-7.5,3.7-16.5,0.8-20.6-6.5l-17.3-31.2c-1.2-2.1-1.8-4.4-1.9-6.7
				c-4,4.8-4.9,11.8-1.7,17.6l17.3,31.2c4,7.3,13.1,10.1,20.6,6.5l58.2-28.6c5.8-2.9,9.1-8.9,8.7-14.9
				C1680.1,286.3,1678.4,287.7,1676.3,288.7z"/>
		</g>
		<g>
			<path class="st8" d="M2159.8,49.7l-58.2,28.6c-7.5,3.7-16.5,0.8-20.6-6.5l-17.3-31.2c-1.2-2.1-1.8-4.4-1.9-6.7
				c-4,4.8-4.9,11.8-1.7,17.6l17.3,31.2c4,7.3,13.1,10.1,20.6,6.5l58.2-28.6c5.8-2.9,9.1-8.9,8.7-14.9
				C2163.5,47.3,2161.8,48.7,2159.8,49.7z"/>
		</g>
		<g>
			<path class="st8" d="M2053,105.4l-328,159.9c-7.5,3.7-16.5,0.8-20.6-6.5l-17.3-31.2c-1.2-2.1-1.8-4.4-1.9-6.7
				c-4,4.8-4.9,11.8-1.7,17.6l17.3,31.2c4,7.3,13.1,10.1,20.6,6.5l328-159.9c5.8-2.9,9.1-8.9,8.7-14.9
				C2056.7,103,2055,104.4,2053,105.4z"/>
		</g>
		<g>
			<path class="st8" d="M1349.1,230.3c-1.3,1.6-3,3-5,4l-141.1,70.4c-7.5,3.7-16.6,0.9-20.7-6.4l-17.4-31.3
				c-1.2-2.1-1.8-4.4-1.9-6.7c-4,4.8-4.9,11.8-1.7,17.6l17.4,31.3c4.1,7.3,13.2,10.2,20.7,6.4l141.1-70.4
				C1346.3,242.3,1349.5,236.3,1349.1,230.3z"/>
		</g>
		<g>
			<path class="st8" d="M1428.6,296.4c-1.3,1.5-2.8,2.8-4.7,3.8L1246,394.1c-7.5,4-16.9,1.2-21-6.2l-17.4-31.3
				c-1.2-2.1-1.8-4.4-1.9-6.7c-4,4.8-4.9,11.8-1.7,17.6l17.4,31.3c4.1,7.4,13.5,10.2,21,6.2l177.9-93.9
				C1425.9,308.2,1428.9,302.3,1428.6,296.4z"/>
		</g>
		<g>
			<path class="st9" d="M1092.4,135.4c4,7.2,12.9,10.1,20.3,6.6l78.1-36.5c2.2-1,4-2.4,5.4-4.2c2-2.3,3.2-5.2,3.5-8.2
				c-1.5,2.4-3.8,4.5-6.6,5.8l-78.1,36.5c-7.4,3.5-16.3,0.6-20.3-6.6l-17.3-31.2c-1.7-3-2.2-6.3-1.9-9.4c-1.8,2.8-2.6,6-2.4,9.3
				c0.1,2.3,0.7,4.5,1.9,6.7L1092.4,135.4z"/>
		</g>
		<g>
			<path class="st9" d="M1137.7,213.4c4,7.3,13.1,10.1,20.6,6.5l58.2-28.6c2-1,3.7-2.4,5.1-4c2-2.3,3.2-5.2,3.5-8.2
				c-1.5,2.3-3.6,4.3-6.3,5.6l-58.2,28.6c-7.5,3.7-16.5,0.8-20.6-6.5l-17.3-31.2c-1.7-3-2.2-6.3-1.8-9.4c-1.8,2.8-2.6,6-2.4,9.3
				c0.1,2.3,0.7,4.6,1.9,6.7L1137.7,213.4z"/>
		</g>
		<g>
			<path class="st9" d="M1358.3,449.9l-58.2,28.6c-7.5,3.7-16.5,0.8-20.6-6.5l-17.3-31.2c-1.7-3-2.2-6.3-1.8-9.4
				c-1.8,2.8-2.6,6-2.4,9.3c0.1,2.3,0.7,4.6,1.9,6.7l17.3,31.2c4,7.3,13.1,10.1,20.6,6.5l58.2-28.6c2-1,3.7-2.4,5.1-4
				c2-2.3,3.2-5.2,3.5-8.2C1363.1,446.6,1361,448.6,1358.3,449.9z"/>
		</g>
		<g>
			<path class="st9" d="M1465.1,394.2l-58.2,28.6c-7.5,3.7-16.5,0.8-20.6-6.5l-17.3-31.2c-1.7-3-2.2-6.3-1.8-9.4
				c-1.8,2.8-2.6,6-2.4,9.3c0.1,2.3,0.7,4.6,1.9,6.7l17.3,31.2c4,7.3,13.1,10.1,20.6,6.5l58.2-28.6c2-1,3.7-2.4,5.1-4
				c2-2.3,3.2-5.2,3.5-8.2C1469.9,390.9,1467.8,392.9,1465.1,394.2z"/>
		</g>
		<g>
			<path class="st9" d="M1571.9,340.3l-58.2,28.6c-7.5,3.7-16.5,0.8-20.6-6.5l-17.3-31.2c-1.7-3-2.2-6.3-1.8-9.4
				c-1.8,2.8-2.6,6-2.4,9.3c0.1,2.3,0.7,4.6,1.9,6.7l17.3,31.2c4,7.3,13.1,10.1,20.6,6.5l58.2-28.6c2-1,3.7-2.4,5.1-4
				c2-2.3,3.2-5.2,3.5-8.2C1576.7,337,1574.6,339,1571.9,340.3z"/>
		</g>
		<g>
			<path class="st9" d="M1542.6,236.7l-58.2,28.6c-7.5,3.7-16.5,0.8-20.6-6.5l-17.3-31.2c-1.7-3-2.2-6.3-1.8-9.4
				c-1.8,2.8-2.6,6-2.4,9.3c0.1,2.3,0.7,4.6,1.9,6.7l17.3,31.2c4,7.3,13.1,10.1,20.6,6.5l58.2-28.6c2-1,3.7-2.4,5.1-4
				c2-2.3,3.2-5.2,3.5-8.2C1547.4,233.4,1545.3,235.4,1542.6,236.7z"/>
		</g>
		<g>
			<path class="st9" d="M1657.9,182.4l-58.2,28.6c-7.5,3.7-16.5,0.8-20.6-6.5l-17.3-31.2c-1.7-3-2.2-6.3-1.8-9.4
				c-1.8,2.8-2.6,6-2.4,9.3c0.1,2.3,0.7,4.6,1.9,6.7l17.3,31.2c4,7.3,13.1,10.1,20.6,6.5l58.2-28.6c2-1,3.7-2.4,5.1-4
				c2-2.3,3.2-5.2,3.5-8.2C1662.7,179.1,1660.6,181.1,1657.9,182.4z"/>
		</g>
		<g>
			<path class="st9" d="M1773.2,128l-58.2,28.6c-7.5,3.7-16.5,0.8-20.6-6.5l-17.3-31.2c-1.7-3-2.2-6.3-1.8-9.4
				c-1.8,2.8-2.6,6-2.4,9.3c0.1,2.3,0.7,4.6,1.9,6.7l17.3,31.2c4,7.3,13.1,10.1,20.6,6.5l58.2-28.6c2-1,3.7-2.4,5.1-4
				c2-2.3,3.2-5.2,3.5-8.2C1778,124.7,1775.9,126.7,1773.2,128z"/>
		</g>
		<g>
			<path class="st9" d="M1807.4,102.3c4,7.3,13.1,10.1,20.6,6.5l58.2-28.6c2-1,3.7-2.4,5.1-4c2-2.3,3.2-5.2,3.5-8.2
				c-1.5,2.3-3.6,4.3-6.3,5.6l-58.2,28.6c-7.5,3.7-16.5,0.8-20.6-6.5l-17.3-31.2c-1.7-3-2.2-6.3-1.8-9.4c-1.8,2.8-2.6,6-2.4,9.3
				c0.1,2.3,0.7,4.6,1.9,6.7L1807.4,102.3z"/>
		</g>
		<g>
			<path class="st9" d="M1903.4,10c0.1,2.3,0.7,4.6,1.9,6.7l17.3,31.2c4,7.3,13.1,10.1,20.6,6.5l58.2-28.6c2-1,3.7-2.4,5.1-4
				c2-2.3,3.2-5.2,3.5-8.2c-1.5,2.3-3.6,4.3-6.3,5.6l-58.2,28.6c-7.5,3.7-16.5,0.8-20.6-6.5l-17.3-31.2c-1.7-3-2.2-6.3-1.8-9.4
				C1904.1,3.5,1903.2,6.7,1903.4,10z"/>
		</g>
		<g>
			<path class="st9" d="M1459.9,173.4l-58.2,28.6c-7.5,3.7-16.5,0.8-20.6-6.5l-17.3-31.2c-1.7-3-2.2-6.3-1.8-9.4
				c-1.8,2.8-2.6,6-2.4,9.3c0.1,2.3,0.7,4.6,1.9,6.7l17.3,31.2c4,7.3,13.1,10.1,20.6,6.5l58.2-28.6c2-1,3.7-2.4,5.1-4
				c2-2.3,3.2-5.2,3.5-8.2C1464.7,170.1,1462.6,172.1,1459.9,173.4z"/>
		</g>
		<g>
			<path class="st9" d="M1494.1,147.7c4,7.3,13.1,10.1,20.6,6.5l58.2-28.6c2-1,3.7-2.4,5.1-4c2-2.3,3.2-5.2,3.5-8.2
				c-1.5,2.3-3.6,4.3-6.3,5.6l-58.2,28.6c-7.5,3.7-16.5,0.8-20.6-6.5l-17.3-31.2c-1.7-3-2.2-6.3-1.8-9.4c-1.8,2.8-2.6,6-2.4,9.3
				c0.1,2.3,0.7,4.6,1.9,6.7L1494.1,147.7z"/>
		</g>
		<g>
			<path class="st9" d="M1609.4,93.3c4,7.3,13.1,10.1,20.6,6.5l58.2-28.6c2-1,3.7-2.4,5.1-4c2-2.3,3.2-5.2,3.5-8.2
				c-1.5,2.3-3.6,4.3-6.3,5.6l-58.2,28.6c-7.5,3.7-16.5,0.8-20.6-6.5l-17.3-31.2c-1.7-3-2.2-6.3-1.8-9.4c-1.8,2.8-2.6,6-2.4,9.3
				c0.1,2.3,0.7,4.6,1.9,6.7L1609.4,93.3z"/>
		</g>
		<g>
			<path class="st9" d="M1705.4,1c0.1,2.3,0.7,4.6,1.9,6.7l17.3,31.2c4,7.3,13.1,10.1,20.6,6.5l58.2-28.6c2-1,3.7-2.4,5.1-4
				c2-2.3,3.2-5.2,3.5-8.2c-1.5,2.3-3.6,4.3-6.3,5.6l-58.2,28.6c-7.5,3.7-16.5,0.8-20.6-6.5l-17.3-31.2c-0.2-0.4-0.4-0.7-0.5-1.1
				h-3.8c0,0.1,0,0.1,0,0.2C1705.4,0.5,1705.4,0.8,1705.4,1z"/>
		</g>
		<g>
			<path class="st9" d="M1247,159.2c4,7.3,13.1,10.1,20.6,6.5l58.2-28.6c2-1,3.7-2.4,5.1-4c2-2.3,3.2-5.2,3.5-8.2
				c-1.5,2.3-3.6,4.3-6.3,5.6l-58.2,28.6c-7.5,3.7-16.5,0.8-20.6-6.5l-17.3-31.2c-1.7-3-2.2-6.3-1.8-9.4c-1.8,2.8-2.6,6-2.4,9.3
				c0.1,2.3,0.7,4.6,1.9,6.7L1247,159.2z"/>
		</g>
		<g>
			<path class="st9" d="M1362.3,104.8c4,7.3,13.1,10.1,20.6,6.5l58.2-28.6c2-1,3.7-2.4,5.1-4c2-2.3,3.2-5.2,3.5-8.2
				c-1.5,2.3-3.6,4.3-6.3,5.6l-58.2,28.6c-7.5,3.7-16.5,0.8-20.6-6.5L1347.3,67c-1.7-3-2.2-6.3-1.8-9.4c-1.8,2.8-2.6,6-2.4,9.3
				c0.1,2.3,0.7,4.6,1.9,6.7L1362.3,104.8z"/>
		</g>
		<g>
			<path class="st9" d="M1458.3,12.5c0.1,2.3,0.7,4.6,1.9,6.7l17.3,31.2c4,7.3,13.1,10.1,20.6,6.5l58.2-28.6c2-1,3.7-2.4,5.1-4
				c2-2.3,3.2-5.2,3.5-8.2c-1.5,2.3-3.6,4.3-6.3,5.6l-58.2,28.6c-7.5,3.7-16.5,0.8-20.6-6.5l-17.3-31.2c-1.7-3-2.2-6.3-1.8-9.4
				C1459,6,1458.1,9.2,1458.3,12.5z"/>
		</g>
		<g>
			<path class="st9" d="M1613.5,2.5l5.1-2.5H1596C1600.6,4.3,1607.5,5.4,1613.5,2.5z"/>
		</g>
		<g>
			<path class="st9" d="M1205.7,33.9c0.1,2.3,0.7,4.6,1.9,6.7l17.3,31.2c4,7.3,13.1,10.1,20.6,6.5l58.2-28.6c2-1,3.7-2.4,5.1-4
				c2-2.3,3.2-5.2,3.5-8.2c-1.5,2.3-3.6,4.3-6.3,5.6l-58.2,28.6c-7.5,3.7-16.5,0.8-20.6-6.5L1210,34c-1.7-3-2.2-6.3-1.8-9.4
				C1206.4,27.3,1205.5,30.6,1205.7,33.9z"/>
		</g>
		<g>
			<path class="st9" d="M1340.3,17.4c4,7.3,13.1,10.1,20.6,6.5L1409.3,0h-11l-35.1,17.3c-7.5,3.7-16.5,0.8-20.6-6.5l-6-10.8h-6
				L1340.3,17.4z"/>
		</g>
		<g>
			<path class="st9" d="M1678.7,282.1l-58.2,28.6c-7.5,3.7-16.5,0.8-20.6-6.5l-17.3-31.2c-1.7-3-2.2-6.3-1.8-9.4
				c-1.8,2.8-2.6,6-2.4,9.3c0.1,2.3,0.7,4.6,1.9,6.7l17.3,31.2c4,7.3,13.1,10.1,20.6,6.5l58.2-28.6c2-1,3.7-2.4,5.1-4
				c2-2.3,3.2-5.2,3.5-8.2C1683.5,278.8,1681.4,280.8,1678.7,282.1z"/>
		</g>
		<g>
			<path class="st9" d="M2061.8,33.9c0.1,2.3,0.7,4.6,1.9,6.7l17.3,31.2c4,7.3,13.1,10.1,20.6,6.5l58.2-28.6c2-1,3.7-2.4,5.1-4
				c2-2.3,3.2-5.2,3.5-8.2c-1.5,2.3-3.6,4.3-6.3,5.6L2104,71.7c-7.5,3.7-16.5,0.8-20.6-6.5L2066.1,34c-1.7-3-2.2-6.3-1.8-9.4
				C2062.5,27.3,2061.6,30.6,2061.8,33.9z"/>
		</g>
		<g>
			<path class="st9" d="M2055.4,98.8l-328,159.9c-7.5,3.7-16.5,0.8-20.6-6.5l-17.3-31.2c-1.7-3-2.2-6.3-1.8-9.4
				c-1.8,2.8-2.6,6-2.4,9.3c0.1,2.3,0.7,4.6,1.9,6.7l17.3,31.2c4,7.3,13.1,10.1,20.6,6.5l328-159.9c2-1,3.7-2.4,5.1-4
				c2-2.3,3.2-5.2,3.5-8.2C2060.1,95.5,2058,97.5,2055.4,98.8z"/>
		</g>
		<g>
			<path class="st9" d="M1182.4,298.2c4.1,7.3,13.2,10.2,20.7,6.4l141.1-70.4c2-1,3.7-2.4,5-4c2-2.3,3.2-5.2,3.5-8.2
				c-1.5,2.3-3.6,4.3-6.2,5.6l-141.1,70.4c-7.5,3.7-16.6,0.9-20.7-6.4l-17.4-31.3c-1.7-3-2.2-6.3-1.8-9.5c-1.8,2.8-2.6,6-2.4,9.3
				c0.1,2.3,0.7,4.6,1.9,6.7L1182.4,298.2z"/>
		</g>
		<g>
			<path class="st9" d="M1225,387.8c4.1,7.4,13.5,10.2,21,6.2l177.9-93.9c1.9-1,3.4-2.3,4.7-3.8c1.9-2.3,3.2-5.2,3.5-8.1
				c-1.4,2.2-3.4,4.1-5.9,5.4l-177.9,93.9c-7.5,4-16.9,1.2-21-6.2L1210,350c-1.7-3-2.2-6.3-1.8-9.5c-1.8,2.8-2.6,6.1-2.4,9.4
				c0.1,2.3,0.7,4.6,1.9,6.7L1225,387.8z"/>
		</g>
		<g>
			<path class="st10" d="M1077.5,97.6l17.3,31.2c4,7.2,12.9,10.1,20.3,6.6l78.1-36.5c2.8-1.3,5-3.4,6.6-5.8
				c2.9-4.6,3.4-10.7,0.6-15.9l-16.8-30.8c-3.9-7.2-12.8-10.2-20.3-6.7l-78.6,36.1c-5.2,2.4-8.4,7.2-9,12.4
				C1075.3,91.3,1075.8,94.6,1077.5,97.6z"/>
		</g>
		<g>
			<path class="st10" d="M1122.8,175.6l17.3,31.2c4,7.3,13.1,10.1,20.6,6.5l58.2-28.6c2.7-1.3,4.8-3.3,6.3-5.6
				c3-4.6,3.4-10.7,0.6-15.9l-16.8-30.9c-4-7.3-13-10.2-20.5-6.6l-58.6,28.2c-5,2.4-8.1,7.1-8.7,12.2
				C1120.5,169.3,1121.1,172.6,1122.8,175.6z"/>
		</g>
		<g>
			<path class="st10" d="M1262.3,440.8l17.3,31.2c4,7.3,13.1,10.1,20.6,6.5l58.2-28.6c2.7-1.3,4.8-3.3,6.3-5.6
				c3-4.6,3.4-10.7,0.6-15.9l-16.8-30.9c-4-7.3-13-10.2-20.5-6.6l-58.6,28.2c-5,2.4-8.1,7.1-8.7,12.2
				C1260,434.5,1260.6,437.8,1262.3,440.8z"/>
		</g>
		<g>
			<path class="st10" d="M1369,385.1l17.3,31.2c4,7.3,13.1,10.1,20.6,6.5l58.2-28.6c2.7-1.3,4.8-3.3,6.3-5.6
				c3-4.6,3.4-10.7,0.6-15.9l-16.8-30.9c-4-7.3-13-10.2-20.5-6.6l-58.6,28.2c-5,2.4-8.1,7.1-8.7,12.2
				C1366.8,378.8,1367.4,382.1,1369,385.1z"/>
		</g>
		<g>
			<path class="st10" d="M1475.8,331.2l17.3,31.2c4,7.3,13.1,10.1,20.6,6.5l58.2-28.6c2.7-1.3,4.8-3.3,6.3-5.6
				c3-4.6,3.4-10.7,0.6-15.9l-16.8-30.9c-4-7.3-13-10.2-20.5-6.6l-58.6,28.2c-5,2.4-8.1,7.1-8.7,12.2
				C1473.6,324.9,1474.2,328.2,1475.8,331.2z"/>
		</g>
		<g>
			<path class="st10" d="M1446.6,227.7l17.3,31.2c4,7.3,13.1,10.1,20.6,6.5l58.2-28.6c2.7-1.3,4.8-3.3,6.3-5.6
				c3-4.6,3.4-10.7,0.6-15.9l-16.8-30.9c-4-7.3-13-10.2-20.5-6.6l-58.6,28.2c-5,2.4-8.1,7.1-8.7,12.2
				C1444.3,221.4,1444.9,224.7,1446.6,227.7z"/>
		</g>
		<g>
			<path class="st10" d="M1561.9,173.3l17.3,31.2c4,7.3,13.1,10.1,20.6,6.5l58.2-28.6c2.7-1.3,4.8-3.3,6.3-5.6
				c3-4.6,3.4-10.7,0.6-15.9l-16.8-30.9c-4-7.3-13-10.2-20.5-6.6l-58.6,28.2c-5,2.4-8.1,7.1-8.7,12.2
				C1559.6,167,1560.2,170.3,1561.9,173.3z"/>
		</g>
		<g>
			<path class="st10" d="M1675.3,109.5c-0.4,3.1,0.2,6.4,1.8,9.4l17.3,31.2c4,7.3,13.1,10.1,20.6,6.5l58.2-28.6
				c2.7-1.3,4.8-3.3,6.3-5.6c3-4.6,3.4-10.7,0.6-15.9l-16.8-30.9c-4-7.3-13-10.2-20.5-6.6L1684,97.2
				C1679,99.6,1675.9,104.3,1675.3,109.5z"/>
		</g>
		<g>
			<path class="st10" d="M1792.4,64.5l17.3,31.2c4,7.3,13.1,10.1,20.6,6.5l58.2-28.6c2.7-1.3,4.8-3.3,6.3-5.6
				c3-4.6,3.4-10.7,0.6-15.9l-16.8-30.9c-4-7.3-13-10.2-20.5-6.6l-58.6,28.2c-5,2.4-8.1,7.1-8.7,12.2
				C1790.2,58.2,1790.8,61.5,1792.4,64.5z"/>
		</g>
		<g>
			<path class="st10" d="M1905.9,0.7c-0.4,3.1,0.2,6.4,1.8,9.4l17.3,31.2c4,7.3,13.1,10.1,20.6,6.5l58.2-28.6
				c2.7-1.3,4.8-3.3,6.3-5.6c2.5-3.9,3.2-8.9,1.6-13.5c0,0,0-0.1,0-0.1H1906c0,0,0,0.1,0,0.1C1905.9,0.4,1905.9,0.5,1905.9,0.7z"/>
		</g>
		<g>
			<path class="st10" d="M1429.4,114.4l-58.6,28.2c-5,2.4-8.1,7.1-8.7,12.2c-0.4,3.1,0.2,6.4,1.8,9.4l17.3,31.2
				c4,7.3,13.1,10.1,20.6,6.5l58.2-28.6c2.7-1.3,4.8-3.3,6.3-5.6c3-4.6,3.4-10.7,0.6-15.9l-16.8-30.9
				C1445.9,113.7,1436.9,110.8,1429.4,114.4z"/>
		</g>
		<g>
			<path class="st10" d="M1479.1,109.9l17.3,31.2c4,7.3,13.1,10.1,20.6,6.5l58.2-28.6c2.7-1.3,4.8-3.3,6.3-5.6
				c3-4.6,3.4-10.7,0.6-15.9l-16.8-30.9c-4-7.3-13-10.2-20.5-6.6L1486,88.2c-5,2.4-8.1,7.1-8.7,12.2
				C1476.9,103.6,1477.5,106.9,1479.1,109.9z"/>
		</g>
		<g>
			<path class="st10" d="M1594.4,55.5l17.3,31.2c4,7.3,13.1,10.1,20.6,6.5l58.2-28.6c2.7-1.3,4.8-3.3,6.3-5.6
				c3-4.6,3.4-10.7,0.6-15.9l-16.8-30.9c-4-7.3-13-10.2-20.5-6.6l-58.6,28.2c-5,2.4-8.1,7.1-8.7,12.2
				C1592.2,49.2,1592.8,52.5,1594.4,55.5z"/>
		</g>
		<g>
			<path class="st10" d="M1709.7,1.2l17.3,31.2c4,7.3,13.1,10.1,20.6,6.5l58.2-28.6c2.7-1.3,4.8-3.3,6.3-5.6
				c0.9-1.4,1.5-2.9,1.9-4.4c0-0.1,0-0.1,0-0.2h-104.9C1709.3,0.4,1709.5,0.8,1709.7,1.2z"/>
		</g>
		<g>
			<path class="st10" d="M1232,121.4l17.3,31.2c4,7.3,13.1,10.1,20.6,6.5l58.2-28.6c2.7-1.3,4.8-3.3,6.3-5.6
				c3-4.6,3.4-10.7,0.6-15.9l-16.8-30.9c-4-7.3-13-10.2-20.5-6.6l-58.6,28.2c-5,2.4-8.1,7.1-8.7,12.2
				C1229.8,115.1,1230.4,118.4,1232,121.4z"/>
		</g>
		<g>
			<path class="st10" d="M1347.3,67l17.3,31.2c4,7.3,13.1,10.1,20.6,6.5l58.2-28.6c2.7-1.3,4.8-3.3,6.3-5.6c3-4.6,3.4-10.7,0.6-15.9
				l-16.8-30.9c-4-7.3-13-10.2-20.5-6.6l-58.6,28.2c-5,2.4-8.1,7.1-8.7,12.2C1345.1,60.7,1345.7,64,1347.3,67z"/>
		</g>
		<g>
			<path class="st10" d="M1460.8,3.2c-0.4,3.1,0.2,6.4,1.8,9.4l17.3,31.2c4,7.3,13.1,10.1,20.6,6.5l58.2-28.6
				c2.7-1.3,4.8-3.3,6.3-5.6c2.9-4.6,3.4-10.6,0.6-15.8c0,0,0,0,0-0.1l-0.1-0.2h-103.9c0,0.1-0.1,0.2-0.1,0.3
				C1461.1,1.3,1460.9,2.2,1460.8,3.2z"/>
		</g>
		<g>
			<path class="st10" d="M1216.9,12.3c-5,2.4-8.1,7.1-8.7,12.2c-0.4,3.1,0.2,6.4,1.8,9.4l17.3,31.2c4,7.3,13.1,10.1,20.6,6.5
				l58.2-28.6c2.7-1.3,4.8-3.3,6.3-5.6c3-4.6,3.4-10.7,0.6-15.9l-11.6-21.2l-0.2-0.3h-58.8l-0.7,0.4L1216.9,12.3z"/>
		</g>
		<g>
			<path class="st10" d="M1342.6,10.9c4,7.3,13.1,10.1,20.6,6.5L1398.4,0h-61.7L1342.6,10.9z"/>
		</g>
		<g>
			<path class="st10" d="M1582.6,273l17.3,31.2c4,7.3,13.1,10.1,20.6,6.5l58.2-28.6c2.7-1.3,4.8-3.3,6.3-5.6
				c3-4.6,3.4-10.7,0.6-15.9l-16.8-30.9c-4-7.3-13-10.2-20.5-6.6l-58.6,28.2c-5,2.4-8.1,7.1-8.7,12.2
				C1580.4,266.7,1580.9,270,1582.6,273z"/>
		</g>
		<g>
			<path class="st10" d="M2073,12.3c-5,2.4-8.1,7.1-8.7,12.2c-0.4,3.1,0.2,6.4,1.8,9.4l17.3,31.2c4,7.3,13.1,10.1,20.6,6.5
				l58.2-28.6c2.7-1.3,4.8-3.3,6.3-5.6c3-4.6,3.4-10.7,0.6-15.9l-11.7-21.5l0,0h-58.8l-0.1,0.1L2073,12.3z"/>
		</g>
		<g>
			<path class="st10" d="M1689.4,221l17.3,31.2c4,7.3,13.1,10.1,20.6,6.5l328-159.9c2.7-1.3,4.8-3.3,6.3-5.6
				c3-4.6,3.4-10.7,0.6-15.9l-16.8-30.9c-4-7.3-13-10.2-20.5-6.6l-328.5,159.5c-5,2.4-8.1,7.1-8.7,12.2
				C1687.2,214.7,1687.7,218,1689.4,221z"/>
		</g>
		<g>
			<path class="st10" d="M1167.4,260.4l17.4,31.3c4.1,7.3,13.2,10.2,20.7,6.4l141.1-70.4c2.6-1.3,4.7-3.3,6.2-5.6
				c3-4.6,3.4-10.7,0.6-15.9l-16.8-30.8c-4-7.4-13.1-10.3-20.7-6.5l-141.6,69.9c-4.9,2.4-8,7.1-8.6,12.2
				C1165.2,254.1,1165.7,257.4,1167.4,260.4z"/>
		</g>
		<g>
			<path class="st10" d="M1210,350l17.4,31.3c4.1,7.4,13.5,10.2,21,6.2l177.9-93.9c2.5-1.3,4.5-3.2,5.9-5.4c3-4.7,3.4-10.7,0.6-15.9
				l-16.8-30.8c-4.1-7.5-13.4-10.3-21-6.4l-178.5,93.4c-4.7,2.5-7.7,7-8.3,12C1207.8,343.6,1208.3,346.9,1210,350z"/>
		</g>
	</g>
	<g>
		<ellipse class="st10" cx="1148.8" cy="477.3" rx="5.3" ry="12.2"/>
	</g>
	<g>
		<polygon class="st10" points="1070.3,310.2 1114.8,396.9 1108,411.4 1065.9,325.6 		"/>
	</g>
	<g>
		<polygon class="st10" points="1070.3,310.2 1114.8,396.9 1108,411.4 1008.4,457.9 966,379.6 968.1,359.4 		"/>
	</g>
	<g>
		<polygon class="st11" points="1010.8,440.7 968.5,359.2 968.1,359.4 966,379.6 1008.4,457.9 1108,411.4 1114.8,396.9 1114.4,396 
					"/>
	</g>
	<g>
		<polygon class="st12" points="1114.4,396 1011.1,440.6 1008.3,457.9 1008.4,457.9 1108,411.4 1114.8,396.9 		"/>
	</g>
	<g>
		<polygon class="st10" points="1041.2,249.6 1061.3,289.8 1056.5,308.3 1035.8,269 		"/>
	</g>
	<g>
		<polygon class="st10" points="1013.7,195.7 1033.8,235.9 1029,254.4 1008.4,215.1 		"/>
	</g>
	<g>
		<polygon class="st10" points="976,121.4 996.1,161.6 991.3,180.1 970.7,140.8 		"/>
	</g>
</g>
<g>
	<polygon class="st3" points="1286.7,1390.3 898,1203.3 728.5,1532.9 745.7,1561.4 1127.7,1732.4 1291.7,1420.2 	"/>
</g>
<g>
	<g>
		<path class="st3" d="M1456.3,1548.4c-21.7,0-43.7-1.7-65.5-5.8c-89.9-17-176.4-74.9-264.5-176.9c-23.1-26.8-45.5-55.1-67-82.4
			c-43.1-54.6-87.7-111.1-140.3-157.5c-48-42.3-93-66.3-137.5-73.3c-35.6-5.6-74.8-1.1-119.6,13.7c-43.3,14.2-73.6,33.1-92.8,57.6
			c-11.1,14.1-18.3,31.5-20.5,49c-2.3,18.4,1.2,35.4,10,49.1c8.1,12.5,20.4,22.2,32.3,31.1c40.7,30.4,84.7,56.7,130.7,78.2
			c4.3,2,6.1,7,4.1,11.3s-7,6.1-11.3,4.1c-47.1-22-92-48.9-133.7-80c-13.1-9.8-26.8-20.6-36.4-35.5c-11-17.1-15.4-38-12.6-60.4
			c2.5-20.5,11.1-40.9,24-57.4c21.3-27.2,54.3-47.9,100.9-63.3c47.5-15.7,89.3-20.3,127.6-14.3c47.9,7.5,95.7,32.8,146.1,77.3
			c53.8,47.5,98.9,104.5,142.4,159.8c21.5,27.2,43.6,55.3,66.6,81.8c85.5,99,168.8,155,254.8,171.3c62.3,11.8,126.7,2.6,181.6-8
			c124.9-24.2,246.2-64.8,360.4-120.9c75.6-37.1,127.8-71.8,169.1-112.3c43-42.2,70.2-89,78.6-135.4c9.9-54.8-7.9-110.1-45.4-141
			c-43.3-35.6-110.2-40.9-198.9-15.7c-52.6,14.9-104.2,35-153.4,59.6c-49.2,24.6-96.2,53.8-139.7,86.9c-8.2,6.2-16.6,12.8-24.8,19.2
			c-31.5,24.6-64.2,50.1-98.9,68.6c-40,21.3-77.1,30-113.4,26.5c-51.3-4.9-101.6-35.6-141.6-86.4c-29.4-37.3-50.2-80.5-70.4-122.3
			c-3.4-7.1-7-14.4-10.5-21.6c-5.3-10.8-10.7-21.6-16.3-32.3c-7.6,10.7-18.5,18.4-32.2,18.2c-10.5-0.2-19.3-5.2-27.5-10.3
			c-101.9-63.1-182.1-159.4-226-270.9c-6.4-16.4-10.9-41.7-2.2-59.2c4.3-8.6,11.3-14.6,20.4-17.2c12.9-3.7,25.7,1.2,35.4,6
			c52.7,25.7,91.1,73.9,124.7,122.2c37.2,53.4,71.8,109.5,103.4,167.4c1.3-33.4-14.7-67.5-31.2-97.1
			c-44.2-79.4-98.7-152.5-162.2-217.4c-1.5-1.5-3-3-4.4-4.5c-26.2-26.7-53.4-54.4-60.5-91.9c-3.9-20.6,5.2-45.8,25.6-71
			c30.1-37.1,75.6-64.5,108.2-65.1c4.7-0.1,8.6,3.6,8.7,8.3s-3.6,8.6-8.3,8.7c-27.6,0.5-68.6,25.8-95.4,58.8
			c-17.2,21.3-25.1,41.5-22.1,57.1c6.2,32.4,31.5,58.2,56,83.1c1.5,1.5,3,3,4.5,4.6c64.5,66,120,140.4,164.9,221.1
			c8.8,15.9,19.8,37,26.7,59.3c7.2,23.8,8.7,45.1,4.4,65.2c-0.4,1.9-0.9,3.8-1.5,5.6c7.6,14.5,15.1,29.2,22.3,43.9
			c3.5,7.2,7.1,14.6,10.5,21.7c19.8,41,40.3,83.4,68.5,119.2c50.1,63.6,102.9,77.4,129.9,80c73.9,7,138.2-43.1,200.3-91.6
			c8.2-6.4,16.7-13,24.9-19.3c44.3-33.7,92.2-63.6,142.4-88.6s102.7-45.5,156.3-60.7c94.4-26.8,166.5-20.4,214.3,18.9
			c42.2,34.7,62.3,96.4,51.3,157.1c-9,49.9-37.9,99.9-83.4,144.5c-54.7,53.7-121.5,89.9-173.5,115.4
			c-115.6,56.8-238.2,97.9-364.6,122.4C1541.3,1541.8,1499.4,1548.4,1456.3,1548.4z M912.3,666.9c-1.6,0-3.2,0.2-4.8,0.6
			c-4.5,1.3-7.7,4-9.8,8.3c-4,8.2-4.9,25.9,2.8,45.5C943,829.5,1020.8,922.8,1119.6,984c6.5,4,12.8,7.6,18.9,7.7
			c9.8,0.2,17.9-8.3,22.6-19c-33.8-63.8-71.4-125.4-112-183.8c-30.1-43.2-66.5-91.4-118.2-116.6
			C925.3,669.7,918.5,666.9,912.3,666.9z"/>
	</g>
</g>
<g>
	<g>
		<path class="st10" d="M1445.4,1518.8c-21.7,0-43.7-1.7-65.5-5.8c-89.9-17-176.4-74.9-264.5-176.9c-23.1-26.8-45.5-55.1-67-82.4
			c-43.1-54.6-87.7-111.1-140.3-157.5c-48-42.3-93-66.3-137.5-73.3c-35.6-5.6-74.8-1.1-119.6,13.7c-43.3,14.2-73.6,33.1-92.8,57.6
			c-11.1,14.1-18.3,31.5-20.5,49c-2.3,18.4,1.2,35.4,10,49.1c8.1,12.5,20.4,22.2,32.3,31.1c40.7,30.4,84.7,56.7,130.7,78.2
			c4.3,2,6.1,7,4.1,11.3c-2,4.3-7,6.1-11.3,4.1c-47.1-22-92-48.9-133.7-80c-13.1-9.8-26.8-20.6-36.4-35.5
			c-11-17.1-15.4-38-12.6-60.4c2.5-20.5,11.1-40.9,24-57.4c21.3-27.2,54.3-47.9,100.9-63.3c47.5-15.7,89.3-20.3,127.6-14.3
			c47.9,7.5,95.7,32.8,146.1,77.3c53.8,47.5,98.9,104.5,142.5,159.8c21.5,27.2,43.6,55.3,66.6,81.8c85.5,99,168.8,155,254.8,171.3
			c62.3,11.8,126.7,2.6,181.6-8c124.9-24.2,246.2-64.8,360.4-120.9c75.6-37.1,127.8-71.8,169.1-112.3c43-42.2,70.2-89,78.6-135.4
			c9.9-54.8-7.9-110.1-45.4-141c-43.3-35.6-110.2-40.9-198.9-15.7c-52.6,14.9-104.2,35-153.4,59.6c-49.2,24.6-96.2,53.8-139.7,86.9
			c-8.2,6.2-16.6,12.8-24.8,19.2c-31.5,24.6-64.2,50.1-98.9,68.6c-40,21.3-77.1,30-113.4,26.5c-51.3-4.9-101.6-35.6-141.6-86.4
			c-29.4-37.3-50.2-80.5-70.4-122.3c-3.4-7.1-7-14.4-10.5-21.6c-5.3-10.8-10.7-21.6-16.3-32.3c-7.6,10.7-18.6,18.4-32.2,18.2
			c-10.5-0.2-19.3-5.2-27.5-10.3c-101.9-63.1-182.1-159.4-226-270.9c-6.4-16.4-10.9-41.7-2.2-59.2c4.3-8.6,11.3-14.6,20.4-17.2
			c12.9-3.7,25.7,1.2,35.4,6c52.7,25.7,91.1,73.9,124.7,122.2c37.2,53.4,71.8,109.5,103.4,167.4c1.3-33.4-14.7-67.5-31.2-97.1
			c-44.2-79.4-98.7-152.5-162.2-217.4c-1.5-1.5-3-3-4.4-4.5c-26.2-26.7-53.4-54.4-60.5-91.9c-5.1-26.5,2.8-54.8,21.4-77.9
			s44.8-36.6,71.8-37.1c4.7-0.1,8.6,3.6,8.7,8.3c0.1,4.7-3.6,8.6-8.3,8.7c-21.9,0.4-43.4,11.7-58.9,30.8s-22.1,42.5-18,64
			c6.2,32.4,31.5,58.2,56,83.1c1.5,1.5,3,3,4.5,4.6c64.5,66,120,140.4,164.9,221.1c8.8,15.9,19.8,37,26.7,59.3
			c7.2,23.8,8.7,45.1,4.4,65.2c-0.4,1.9-0.9,3.8-1.5,5.6c7.6,14.5,15.1,29.2,22.3,43.9c3.5,7.2,7.1,14.6,10.5,21.7
			c19.8,41,40.3,83.4,68.5,119.2c50.1,63.6,102.9,77.4,129.9,80c73.9,7,138.2-43.1,200.3-91.6c8.2-6.4,16.7-13,24.9-19.3
			c44.3-33.7,92.2-63.6,142.4-88.6s102.7-45.5,156.3-60.7c94.4-26.8,166.5-20.4,214.3,18.9c42.2,34.7,62.3,96.4,51.3,157.1
			c-9,49.9-37.9,99.9-83.4,144.5c-54.7,53.7-121.5,89.9-173.5,115.4c-115.6,56.8-238.2,97.9-364.6,122.4
			C1530.3,1512.2,1488.4,1518.8,1445.4,1518.8z M901.3,637.3c-1.6,0-3.2,0.2-4.8,0.6c-4.5,1.3-7.7,4-9.8,8.3
			c-4,8.2-4.9,25.9,2.8,45.5c42.5,108.2,120.3,201.5,219.1,262.7c6.5,4,12.8,7.6,18.9,7.7c0.1,0,0.2,0,0.3,0c9.6,0,17.6-8.5,22.2-19
			c-33.8-63.8-71.4-125.4-112-183.8c-30.1-43.2-66.5-91.4-118.2-116.6C914.3,640.1,907.6,637.3,901.3,637.3z"/>
	</g>
</g>
<g>
	<polygon class="st10" points="729.4,1254.2 684.8,1340.8 691.6,1355.4 791.2,1401.9 833.6,1323.5 831.6,1303.3 	"/>
</g>
<g>
	<polygon class="st11" points="788.8,1384.6 831.1,1303.1 831.6,1303.3 833.6,1323.5 791.2,1401.9 691.6,1355.4 684.8,1340.8 
		685.3,1339.9 	"/>
</g>
<g>
	<polygon class="st12" points="685.3,1339.9 788.5,1384.5 791.3,1401.8 791.2,1401.9 691.6,1355.4 684.8,1340.8 	"/>
</g>
<g>
	<g>
		<g>
			<polygon class="st10" points="884.7,1167.9 715.2,1497.5 732.4,1526 1114.3,1697 1278.3,1384.7 1273.3,1354.8 			"/>
		</g>
	</g>
	<g>
		<g>
			<polygon class="st11" points="1110.7,1664 1271.6,1354 1273.3,1354.8 1278.3,1384.7 1114.3,1697 732.4,1526 715.2,1497.5 
				716.9,1494.1 			"/>
		</g>
	</g>
	<g>
		<g>
			<polygon class="st12" points="716.9,1494.1 1109.7,1663.6 1114.5,1696.7 1114.3,1697 732.4,1526 715.2,1497.5 			"/>
		</g>
	</g>
	<g>
		<g>
			<path class="st13" d="M761.5,1480.3l-3.6-1.3c-3.8-1.3-8,0.7-9.3,4.6l-1.3,3.6c-1.3,3.8,0.7,8,4.6,9.3l3.6,1.3
				c3.8,1.3,8-0.7,9.3-4.6l1.3-3.6C767.4,1485.8,765.4,1481.6,761.5,1480.3z"/>
		</g>
	</g>
	<g>
		<g>
			<polygon class="st14" points="1200.8,1354 1082.3,1587.8 992.1,1546 1114.5,1315.8 			"/>
		</g>
	</g>
	<g>
		<g>
			<path d="M1159.6,1387.2c-0.3-0.1-0.5-0.5-0.7-1c-0.2-0.6-0.3-0.9-0.5-1.1c-1.2-1.4-4.2-3-8.8-4.8l-1.9-0.7c0,0.1,0,0.2-0.1,0.4
				c-0.2,0.5-0.6,0.8-1.4,1.1s-1.3,0.2-1.8,0c-0.4-0.1-0.5-0.6-0.5-1.2c0.1-0.5,0.2-1,0.3-1.6c-1.5-0.6-3.1-1.1-4.6-1.7
				c-2-0.7-3.5-1.1-4.6-1.1c-0.9-0.1-1.5-0.1-1.7-0.2c-0.6-0.2-1.1-0.7-1.5-1.4c-0.3-0.7-0.4-1.4-0.1-2c0.5-1.2,1.4-1.8,2.9-1.7
				c0.3,0,1.5,0.3,3.5,0.9c0.7,0.2,1.6,0.5,2.6,0.9l2,0.8c1.3,0.5,2.4,0.8,3.3,1c0.7-1.9,1.2-4.2,1.8-7c0.4-2.4,0.9-4.7,1.3-7.1
				c-0.5,0-2.2-0.6-5.3-1.8c-2.4-0.9-4.2-1.2-5.2-0.8c-0.2,0-0.4,0-0.5,0c-0.8-0.3-1-1.1-0.5-2.4c0.5-1.2,1.2-2,2.2-2.4
				c0.6-0.2,4.1,0.6,10.5,2.7c0.4-0.6,0.9-0.9,1.7-1c0.7-0.1,1.5,0,2.1,0.2c0.4,0.1,0.6,0.5,0.6,0.9c0,0.5,0,0.9-0.1,1.4
				c0.4,0.2,1.1,0.6,2.2,1.1c0.9,0.5,1.6,0.8,2.2,1c5.6,2.2,9.1,3.9,10.4,5.1c1.1,1,1.3,2.1,0.9,3.4c-0.3,0.8-0.8,1.4-1.6,1.9
				s-1.5,0.6-2.2,0.3c-0.4-0.1-0.8-0.5-1.3-0.9c-0.6-0.7-1-1-1.1-1.1c-2.4-1.9-5.4-3.6-9.1-5c-0.6-0.2-1-0.4-1.1-0.4
				c-0.1,0.3-0.2,1.1-0.5,2.4c-0.7,4.1-1.7,7.8-3,11.1c4.7,1.9,7.7,3.2,9,3.9c4.4,2.3,6.3,4.3,5.6,6c-0.4,1-1.1,1.7-2.1,2
				S1160.6,1387.6,1159.6,1387.2z"/>
		</g>
		<g>
			<path d="M1126.9,1407.9c-4.1-1.6-7-2.9-8.6-3.8c-0.9-0.5-1.2-1.4-0.7-2.6c0.7-1.8,1.9-2.3,3.6-1.4c-0.1-1.9,0.1-3.7,0.8-5.5
				c0.6-1.7,1.7-3.1,3.1-4.3c1.7-1.4,3.3-1.8,4.8-1.2c1.5,0.6,2.5,2.2,3,4.7c0.5,2.3,0.4,4.3-0.3,5.9l-1.6,4.1l1.1,0.4
				c3.3,1.3,5.4,1,6.2-1c1-2.5,0.3-4.3-2.1-5.2c-0.8-0.3-1-0.9-0.7-1.8c0.2-0.5,0.7-1,1.4-1.4c0.7-0.4,1.4-0.5,1.9-0.3
				c1.8,0.7,3,1.9,3.7,3.6s0.6,3.5-0.1,5.3C1140.3,1409.7,1135.1,1411.1,1126.9,1407.9z M1127,1402.4c0.6,0.2,1.1-0.1,1.5-1.1
				c1.6-4,1.4-6.4-0.5-7.1c-1-0.4-1.9,0.3-2.6,2.1c-0.4,1.1-0.5,2.2-0.3,3.4C1125.4,1401.1,1126,1402,1127,1402.4z"/>
		</g>
		<g>
			<path d="M1126,1434.9c-0.2-0.1-0.6-0.3-1-0.5c-0.7-1-0.9-1.9-0.6-2.7c0.2-0.6,0.8-1,1.7-1.2c1.5,0.5,2.4,0.3,2.8-0.7
				c0.2-0.6-1-1.9-3.8-3.9c-1.2-0.9-3-1.8-5.4-2.8c-2.3-0.9-3.7-1.3-4.3-1.3c-0.7,0-1.2,0-1.4-0.1c-0.5-0.2-0.9-0.6-1-1.3
				c-0.1-0.6-0.1-1.2,0.1-1.8c0.7-1.7,1.8-2.3,3.4-1.6c0.2,0.1,0.4,0.2,0.6,0.4c0.3,0.2,0.5,0.3,0.6,0.4c1.6,0.6,4.1,1.5,7.4,2.6
				c3.3,1.1,5.7,1.9,7.3,2.6c1.4,0.6,1.8,1.7,1.2,3.4c-0.4,1-1,1.6-1.7,1.8c0.6,1.3,0.8,2.5,0.3,3.6c-0.3,0.8-0.8,1.4-1.5,2
				c-0.4,0.4-1.2,0.7-2.3,1C1127.3,1435,1126.5,1435.1,1126,1434.9z"/>
		</g>
		<g>
			<path d="M1128,1467.6c-0.7-0.3-1.6-0.7-2.6-1.4c-1.4-0.8-2.2-1.3-2.5-1.5c-1-0.5-3.8-1.8-8.6-3.9c-4.8-2.1-7.5-3.2-8-3.4
				c-3.1-1.2-5.5-1.8-7.3-1.7c-0.7-0.9-0.9-1.7-0.6-2.4c0.3-0.7,0.8-1.3,1.6-1.6c0.8-0.4,1.6-0.4,2.3-0.2c-0.8-2-0.9-3.9-0.3-5.4
				c0.9-2.3,2.4-3.8,4.6-4.5c1.9-0.6,4.1-0.5,6.5,0.5c2.8,1.1,5.5,2.8,7.9,5.1c3.1,2.9,4.2,5.5,3.3,7.9c-0.5,1.4-1.7,2.6-3.6,3.6
				c1.4,0.7,5.3,2.3,11.5,4.7c0.6,0.2,0.7,0.8,0.4,1.6c-0.4,1-1,1.8-1.8,2.4C1129.9,1467.9,1129,1468,1128,1467.6z M1113.8,1455.7
				c1.1,0.4,2.2,0.6,3.3,0.4c1.3-0.2,2.2-0.8,2.6-1.8c0.6-1.4-0.4-3.1-3-5c-1.8-1.4-3.7-2.4-5.7-3.2c-3-1.2-4.8-0.9-5.5,0.9
				c-0.7,1.8,0.1,3.6,2.5,5.4C1109.5,1453.7,1111.5,1454.8,1113.8,1455.7z"/>
		</g>
		<g>
			<path d="M1111.1,1479.4c-0.6-0.2-1.3-0.7-2.3-1.3s-1.7-1.1-2.3-1.3l-9.9-3.8c-0.6-0.2-1.6-0.4-3.1-0.5c-0.6-0.8-0.7-1.5-0.5-2
				c0.8-2,2.2-2.8,4.3-2.2c3.9,1.1,6.8,2.1,8.7,2.8c3.2,1.2,5.8,2.4,7.8,3.5c0.2,0.1,0.3,0.1,0.5,0.2c0.6,0.2,0.7,0.8,0.3,1.7
				c-0.3,0.8-0.8,1.5-1.4,2.2C1112.5,1479.3,1111.8,1479.7,1111.1,1479.4z M1117.7,1482.4c-0.7-0.3-1.2-0.7-1.5-1.4
				c-0.3-0.7-0.3-1.3,0-2c0.3-0.8,0.9-1.5,1.8-2c0.9-0.5,1.7-0.6,2.5-0.3c0.7,0.3,1.2,0.7,1.4,1.4c0.3,0.7,0.2,1.4,0,2.1
				c-0.3,0.9-0.9,1.5-1.7,2S1118.5,1482.8,1117.7,1482.4z"/>
		</g>
		<g>
			<path d="M1087,1501.1c-1.5-0.6-2.6-1.7-3.2-3.5c-0.7-1.9-0.5-4,0.4-6.4c0.4-1,1-2.1,1.9-3.1c2.9-3.3,4.9-4.8,5.8-4.4
				c1.4,0.5,1.7,1.8,0.9,3.9c-0.1,0.3-0.2,0.6-0.4,0.9c-1-0.3-2.1,0.2-3.2,1.4c-1,1.1-1.7,2.2-2,3.4c-0.3,1-0.1,1.6,0.5,1.8
				c0.1,0,0.2,0.1,0.5,0.1c0.2,0,0.4,0.1,0.5,0.1s0.6-0.5,1.5-1.5c1-1.2,1.5-1.9,1.6-2c3.6-2.8,6.9-3.6,10-2.4
				c1.9,0.7,3.4,1.9,4.5,3.6c1.3,1.9,1.6,3.7,0.9,5.4c-0.5,1.3-1.6,2.6-3.3,3.9c-1.7,1.3-3.2,1.9-4.5,1.8c-0.9-0.1-1.7-0.2-2.2-0.4
				c-0.6-0.2-1-0.5-1.4-0.8c-0.4-0.4-0.8-0.8-1.2-1.1c-0.2-0.8-0.2-1.5,0.1-2.1c0.1-0.3,0.5-0.8,1.2-1.4c0.7-0.6,1.2-0.8,1.5-0.7
				c0.1,0,0.5,0.4,1,1.1c0.3,0.4,0.6,0.6,0.9,0.7c1.9,0.7,3.2,0.4,3.8-1.1c0.3-0.9,0-1.8-0.9-2.7c-0.8-0.7-1.7-1.3-2.7-1.6
				c-1.3-0.5-2.8,0-4.5,1.4c-1.4,1.4-2.8,2.8-4.2,4.2C1089,1500.8,1087.8,1501.4,1087,1501.1z"/>
		</g>
		<g>
			<path d="M1069.2,1527.9c-0.4-1.6-0.5-2.7-0.2-3.4c0.4-0.9,1.8-1.9,4.5-2.9c1.8-0.7,3.7-1.4,5.5-2.1c1.1-0.4,2.7-1.1,4.8-2l0-0.2
				l-4.2-1.6c-0.3-0.1-0.7-0.1-1.3-0.1c-0.6,0-1,0-1.3-0.1c-0.5-0.2-0.8-0.6-0.9-1.2c-0.2-0.6-0.1-1.1,0-1.6
				c0.3-0.8,0.9-1.4,1.6-1.8c0.8-0.3,1.6-0.3,2.4,0l6.4,2.5c0.4,0.1,1,0.4,1.7,0.8c0.7,0.4,1.3,0.7,1.7,0.8l13,5
				c2,0.8,3.6,1.2,4.9,1.4c0.6,0.1,1,0.2,1.3,0.3c0.6,0.2,1,0.8,1.2,1.7c0.2,0.8,0.2,1.5-0.1,2.2c-0.2,0.5-0.6,0.9-1.2,1.4
				c-0.6,0.4-1.1,0.5-1.6,0.4c-0.1-0.1-0.5-0.3-1.2-0.8c-0.7-0.5-1.8-1.1-3.4-1.7c-0.5-0.2-4.8-1.9-12.8-5.1c0.1,0.2,1,2.5,2.7,7.1
				c1.5,3.8,2.1,5.9,2,6.4c-0.7,1.7-2,2.1-4.1,1.3l-0.5-0.2c-0.3-1.7-0.8-4-1.7-6.8c-1.1-3.6-2-5.5-2.7-5.8c-0.1,0-1.4,0.5-4,1.4
				c-2.5,0.9-4.1,1.5-4.7,1.8c-2.8,1.2-4.9,2.4-6.2,3.8L1069.2,1527.9z"/>
		</g>
	</g>
	<g>
		<g>
			<path d="M1054.1,1524.2c-2.1,0.2-3.2-0.6-3.3-2.3c0-0.4,0.1-1,0.3-1.8c0.2-0.8,0.3-1.5,0.3-1.9c-2.6-0.1-6.6-0.3-11.9-0.5l0,0.5
				c0.4,3.4-0.4,5.2-2.2,5.4c-2.1,0.2-3.2-0.6-3.3-2.3c0-0.4-0.1-1,0-1.8c0-0.8,0-1.4,0-1.8c-2.2,0-4.5,0.2-6.9,0.4
				c-0.2,0-0.5,0.1-0.8,0.2c-0.3,0.1-0.6,0.2-0.8,0.2c-0.8,0.1-1.5-0.2-2.1-0.8c-0.6-0.6-1-1.3-1.1-2.1c-0.1-1,0.3-1.9,1.3-2.5
				c0.8-0.6,1.8-1,2.8-1.1c2.1-0.2,4.6-0.2,7.4-0.1l-0.2-1.6c0-0.3-0.1-0.8-0.2-1.5c-5-0.2-7.7-0.2-8.2-0.2
				c-2.5,0.2-3.9-0.7-4.1-2.9c-0.1-0.6,0.2-1.2,0.8-1.8c0.6-0.6,1.2-0.9,1.8-1c1.7-0.2,4.3-0.1,7.8,0.1c-0.3-0.6-0.4-1-0.4-1.3
				c-0.1-0.8,0.4-1.4,1.5-2.1c0.9-0.6,1.8-0.9,2.6-0.9c1.3-0.1,1.9,0.2,2,1c0-0.1,0.1,1.1,0.3,3.5l11.6-0.1
				c-0.4-0.8-0.6-1.6-0.7-2.5c0-0.5,0.4-0.9,1.3-1.3c0.7-0.3,1.3-0.5,1.9-0.6c1.1-0.1,2.1,0.4,2.9,1.4l0.5,3.2c1.9-0.1,4.8,0,8.5,0
				c1,1.4,1.5,2.4,1.6,3.2c0.1,0.9-0.1,1.6-0.6,2.3c-0.5,0.6-1.2,1-2,1.1c-0.4,0-1.6-0.2-3.6-0.6c-0.6,0-1.6,0-2.8-0.1l0.3,3.7
				c1.4,0.1,4.2,0.2,8.5,0.4c1.2,1.5,1.8,2.4,1.8,2.8c0.1,0.9-0.1,1.7-0.6,2.6c-0.5,0.8-1.2,1.3-2.1,1.4c-0.5,0.1-1.6-0.1-3.2-0.5
				c-2-0.5-3.1-0.7-3.5-0.8l0,0.3c0.1,1.2-0.1,2.3-0.5,3.3C1056,1523.4,1055.2,1524.1,1054.1,1524.2z M1051.1,1512.5
				c0-0.5-0.1-1.2-0.2-2.1c-0.1-0.6-0.1-1.2-0.2-1.8c-2.8,0-7,0.1-12.7,0l0.4,3.3L1051.1,1512.5z"/>
		</g>
		<g>
			<path d="M1064,1538.2c-0.5,0-1.9-0.1-4.3-0.4c-6.1-0.7-10.7-0.9-14.1-0.6l-12.4,1.2c-3.3,0.3-5.1,0.6-5.5,1
				c-1,0.8-1.6,1.2-1.9,1.3c-0.6,0.1-1.1-0.1-1.6-0.6c-0.5-0.4-0.8-1-0.8-1.5c-0.1-0.9,0.2-2.1,0.7-3.7c1-0.6,2-1,2.8-1l26.2-2.5
				l0.7-1.1l2-0.2c1.8-0.2,4,0,6.6,0.7c3.2,0.8,4.8,2,5,3.4c0.1,0.8-0.3,1.7-1.1,2.6C1065.6,1537.6,1064.8,1538.1,1064,1538.2z"/>
		</g>
	</g>
</g>
<g>
	<g>
		<g>
			<path class="st15" d="M209.5,763.9c0.3,0.1,0.5,0.5,0.7,1.1c0.2,0.6,0.3,0.9,0.5,1.1c1.2,1.5,4.2,3.1,8.8,4.9l1.9,0.7
				c0-0.1,0-0.2,0.1-0.4c0.2-0.5,0.6-0.8,1.4-1c0.7-0.2,1.3-0.2,1.8,0c0.4,0.2,0.5,0.6,0.5,1.2c-0.1,0.5-0.2,1-0.3,1.6
				c1.5,0.6,3,1.1,4.6,1.7c2,0.7,3.5,1.1,4.6,1.1c0.9,0.1,1.5,0.1,1.7,0.2c0.6,0.3,1.1,0.7,1.5,1.4c0.3,0.7,0.4,1.4,0.1,2
				c-0.5,1.2-1.4,1.8-2.9,1.6c-0.3,0-1.5-0.3-3.5-0.9c-0.7-0.2-1.6-0.5-2.6-0.9l-2-0.8c-1.3-0.5-2.4-0.8-3.3-1
				c-0.7,1.9-1.3,4.2-1.8,6.9c-0.5,2.4-0.9,4.7-1.4,7.1c0.5,0,2.2,0.7,5.3,1.9c2.4,1,4.2,1.2,5.2,0.8c0.2,0,0.4,0,0.5,0
				c0.8,0.3,1,1.1,0.5,2.4c-0.5,1.2-1.2,2-2.2,2.3c-0.6,0.2-4.1-0.7-10.5-2.8c-0.4,0.6-0.9,0.9-1.7,1c-0.7,0.1-1.5,0-2.1-0.2
				c-0.4-0.2-0.6-0.5-0.5-0.9c0-0.5,0-0.9,0.1-1.4c-0.4-0.2-1.1-0.6-2.2-1.1c-0.9-0.5-1.6-0.8-2.1-1c-5.6-2.3-9.1-4-10.4-5.2
				c-1-1-1.3-2.1-0.8-3.4c0.3-0.8,0.8-1.4,1.6-1.9c0.8-0.5,1.5-0.6,2.2-0.3c0.4,0.2,0.8,0.5,1.3,1c0.6,0.7,1,1,1.1,1.1
				c2.3,1.9,5.4,3.7,9.1,5.1c0.6,0.2,1,0.4,1.1,0.4c0.1-0.3,0.3-1.1,0.5-2.4c0.7-4.1,1.8-7.8,3.1-11.1c-4.7-2-7.6-3.3-9-4
				c-4.4-2.4-6.2-4.4-5.6-6.1c0.4-1,1.1-1.7,2.1-2C207.5,763.5,208.5,763.5,209.5,763.9z"/>
			<path class="st15" d="M242.4,743.6c4.1,1.7,7,2.9,8.6,3.9c0.9,0.6,1.2,1.4,0.7,2.6c-0.7,1.8-1.9,2.2-3.6,1.3
				c0.1,1.9-0.2,3.7-0.8,5.4c-0.7,1.7-1.7,3.1-3.1,4.2c-1.7,1.4-3.3,1.8-4.9,1.2c-1.5-0.6-2.5-2.2-3-4.8c-0.4-2.3-0.3-4.3,0.3-5.9
				l1.6-4.1L237,747c-3.3-1.4-5.4-1-6.2,1c-1,2.5-0.3,4.3,2,5.2c0.8,0.3,1,0.9,0.6,1.8c-0.2,0.5-0.7,1-1.4,1.4
				c-0.7,0.4-1.4,0.5-1.9,0.3c-1.8-0.7-3-1.9-3.6-3.7c-0.6-1.7-0.6-3.5,0.1-5.3C229,741.7,234.3,740.3,242.4,743.6z M242.2,749.1
				c-0.6-0.3-1.2,0.1-1.5,1.1c-1.6,4-1.5,6.4,0.4,7.1c1,0.4,1.9-0.3,2.6-2c0.4-1.1,0.5-2.2,0.3-3.4
				C243.8,750.4,243.2,749.5,242.2,749.1z"/>
			<path class="st15" d="M243.5,716.6c0.2,0.1,0.6,0.3,1,0.5c0.7,1.1,0.9,2,0.6,2.7c-0.2,0.6-0.8,1-1.7,1.2
				c-1.5-0.5-2.4-0.3-2.8,0.7c-0.2,0.6,1,1.9,3.7,3.9c1.2,0.9,3,1.9,5.4,2.8c2.3,0.9,3.7,1.4,4.2,1.3c0.7,0,1.2,0.1,1.4,0.1
				c0.5,0.2,0.9,0.6,1,1.3c0.1,0.6,0.1,1.2-0.2,1.8c-0.7,1.7-1.8,2.2-3.4,1.6c-0.2-0.1-0.4-0.2-0.6-0.4c-0.3-0.2-0.4-0.3-0.6-0.4
				c-1.6-0.7-4.1-1.5-7.4-2.7c-3.3-1.1-5.7-2-7.3-2.7c-1.4-0.6-1.8-1.7-1.1-3.5c0.4-1,1-1.6,1.8-1.7c-0.6-1.3-0.7-2.5-0.3-3.6
				c0.3-0.8,0.8-1.4,1.5-2c0.4-0.4,1.2-0.7,2.3-1C242.3,716.4,243.1,716.4,243.5,716.6z"/>
			<path class="st15" d="M242,683.9c0.7,0.3,1.6,0.7,2.6,1.4c1.4,0.9,2.2,1.4,2.5,1.6c1,0.5,3.8,1.8,8.6,4c4.8,2.2,7.4,3.3,7.9,3.5
				c3.1,1.2,5.5,1.8,7.3,1.8c0.7,0.9,0.9,1.7,0.6,2.4c-0.3,0.7-0.8,1.3-1.6,1.6c-0.8,0.4-1.6,0.4-2.3,0.2c0.8,2.1,0.8,3.9,0.2,5.4
				c-0.9,2.3-2.5,3.8-4.6,4.4c-1.9,0.6-4.1,0.4-6.5-0.6c-2.8-1.1-5.4-2.8-7.9-5.2c-3.1-2.9-4.2-5.6-3.2-8c0.6-1.4,1.8-2.6,3.6-3.6
				c-1.4-0.8-5.2-2.4-11.4-4.9c-0.6-0.2-0.7-0.8-0.3-1.6c0.4-1,1-1.8,1.8-2.4C240,683.5,241,683.4,242,683.9z M256,695.9
				c-1.1-0.4-2.2-0.6-3.3-0.5c-1.3,0.2-2.2,0.8-2.6,1.7c-0.6,1.4,0.4,3.1,2.9,5c1.8,1.4,3.7,2.5,5.7,3.3c3,1.2,4.8,0.9,5.5-0.8
				c0.7-1.8-0.1-3.6-2.4-5.5C260.3,698,258.3,696.9,256,695.9z"/>
			<path class="st15" d="M252.5,669.2c0.7,0.3,1.2,0.8,1.4,1.4c0.3,0.7,0.2,1.3,0,2c-0.3,0.8-0.9,1.5-1.8,2s-1.7,0.6-2.5,0.2
				c-0.7-0.3-1.2-0.8-1.4-1.4s-0.2-1.4,0.1-2.1c0.3-0.9,0.9-1.5,1.8-2C250.8,668.9,251.6,668.8,252.5,669.2z M259,672.3
				c0.6,0.2,1.3,0.7,2.3,1.4c1,0.7,1.7,1.1,2.3,1.4l9.9,4c0.6,0.2,1.6,0.4,3.1,0.6c0.5,0.8,0.7,1.5,0.5,2c-0.8,2-2.3,2.7-4.4,2.1
				c-3.9-1.2-6.7-2.1-8.6-2.9c-3.2-1.3-5.8-2.5-7.8-3.6c-0.2-0.1-0.3-0.1-0.5-0.2c-0.6-0.2-0.7-0.8-0.3-1.7c0.3-0.8,0.8-1.5,1.4-2.2
				C257.6,672.3,258.4,672,259,672.3z"/>
			<path class="st15" d="M283.4,650.9c1.5,0.6,2.6,1.8,3.2,3.5c0.7,1.9,0.5,4-0.4,6.4c-0.4,1-1,2.1-1.9,3.1c-3,3.3-4.9,4.7-5.8,4.4
				c-1.4-0.6-1.7-1.9-0.9-3.9c0.1-0.3,0.3-0.6,0.4-0.9c1,0.3,2.1-0.2,3.2-1.4c1-1,1.7-2.2,2.1-3.3c0.3-1,0.2-1.6-0.4-1.8
				c-0.1,0-0.2-0.1-0.5-0.1c-0.2,0-0.4-0.1-0.5-0.1c-0.1,0-0.6,0.5-1.5,1.5c-1,1.2-1.5,1.9-1.6,2c-3.6,2.8-7,3.5-10.1,2.3
				c-1.9-0.7-3.4-2-4.5-3.6c-1.3-1.9-1.5-3.7-0.8-5.4c0.5-1.3,1.6-2.6,3.3-3.9s3.2-1.9,4.5-1.8c0.9,0.1,1.7,0.2,2.2,0.4
				c0.6,0.2,1,0.5,1.3,0.8c0.4,0.4,0.8,0.8,1.2,1.2c0.2,0.8,0.1,1.5-0.1,2.1c-0.1,0.3-0.5,0.8-1.2,1.4c-0.7,0.6-1.2,0.8-1.5,0.7
				c-0.1-0.1-0.5-0.4-1-1.1c-0.3-0.4-0.6-0.6-0.9-0.8c-1.9-0.8-3.2-0.4-3.8,1.1c-0.4,0.9-0.1,1.8,0.9,2.8c0.8,0.7,1.6,1.3,2.7,1.7
				c1.3,0.5,2.8,0.1,4.5-1.3c1.4-1.4,2.8-2.7,4.3-4.1C281.3,651.1,282.5,650.5,283.4,650.9z"/>
			<path class="st15" d="M301.4,624.2c0.4,1.6,0.5,2.7,0.2,3.4c-0.4,0.9-1.9,1.9-4.5,2.9c-1.8,0.7-3.7,1.4-5.6,2.1
				c-1.1,0.4-2.7,1-4.8,2l0,0.2l4.2,1.7c0.3,0.1,0.7,0.2,1.3,0.1c0.6,0,1,0,1.3,0.2c0.4,0.2,0.7,0.6,0.9,1.2s0.1,1.1-0.1,1.6
				c-0.3,0.8-0.9,1.4-1.6,1.7c-0.8,0.3-1.6,0.3-2.4,0l-6.3-2.5c-0.4-0.2-0.9-0.4-1.7-0.8c-0.7-0.4-1.3-0.7-1.7-0.8l-12.9-5.2
				c-1.9-0.8-3.6-1.3-4.9-1.5c-0.6-0.1-1-0.2-1.3-0.3c-0.6-0.2-1-0.8-1.2-1.8c-0.2-0.8-0.2-1.5,0.1-2.2c0.2-0.5,0.6-0.9,1.2-1.3
				c0.6-0.4,1.1-0.5,1.6-0.3c0.1,0.1,0.5,0.3,1.2,0.8c0.7,0.5,1.8,1.1,3.4,1.7c0.5,0.2,4.8,2,12.7,5.3c-0.1-0.2-1-2.5-2.7-7.1
				c-1.5-3.8-2.1-5.9-1.9-6.4c0.7-1.7,2-2.1,4.1-1.2l0.5,0.2c0.2,1.7,0.8,4,1.6,6.9c1,3.6,1.9,5.6,2.6,5.9c0.1,0,1.4-0.4,4.1-1.4
				c2.5-0.9,4.1-1.5,4.7-1.7c2.8-1.1,4.9-2.4,6.3-3.7L301.4,624.2z"/>
		</g>
		<g>
			<path class="st15" d="M315.6,634.2c2.1-0.2,3.2,0.6,3.3,2.3c0,0.4-0.1,1-0.3,1.8c-0.2,0.8-0.3,1.5-0.3,1.9
				c2.6,0.2,6.6,0.4,11.9,0.7l0-0.5c-0.3-3.4,0.4-5.2,2.3-5.3c2.1-0.2,3.2,0.6,3.3,2.3c0,0.4,0,1,0,1.8c0,0.8,0,1.4,0,1.8
				c2.2,0,4.5-0.1,6.9-0.3c0.2,0,0.5-0.1,0.8-0.2c0.4-0.1,0.6-0.2,0.8-0.2c0.8-0.1,1.5,0.2,2.1,0.8c0.6,0.6,1,1.3,1,2.1
				c0.1,1-0.4,1.9-1.3,2.5c-0.8,0.6-1.8,1-2.8,1.1c-2.1,0.2-4.6,0.2-7.4,0l0.1,1.6c0,0.3,0.1,0.8,0.2,1.5c5,0.2,7.7,0.3,8.2,0.3
				c2.5-0.2,3.9,0.8,4.1,2.9c0,0.6-0.2,1.2-0.8,1.8c-0.6,0.6-1.2,0.9-1.8,1c-1.7,0.1-4.3,0.1-7.8-0.2c0.3,0.6,0.4,1,0.4,1.3
				c0.1,0.8-0.5,1.4-1.6,2c-0.9,0.5-1.8,0.8-2.6,0.9c-1.3,0.1-1.9-0.2-2-1c0,0.1-0.1-1.1-0.3-3.5l-11.6,0c0.4,0.8,0.6,1.6,0.7,2.5
				c0,0.5-0.4,0.9-1.3,1.3c-0.7,0.3-1.3,0.5-1.9,0.5c-1.1,0.1-2-0.4-2.9-1.4l-0.5-3.2c-1.9,0-4.8,0-8.5-0.1c-1-1.4-1.5-2.4-1.5-3.2
				c-0.1-0.9,0.1-1.6,0.6-2.2s1.2-1,2.1-1c0.4,0,1.6,0.2,3.6,0.7c0.6,0,1.6,0,2.8,0.1l-0.3-3.7c-1.4-0.1-4.2-0.3-8.5-0.5
				c-1.1-1.5-1.7-2.4-1.8-2.8c-0.1-0.9,0.1-1.7,0.6-2.6c0.5-0.8,1.2-1.3,2.1-1.3c0.5,0,1.6,0.1,3.2,0.6c1.9,0.5,3.1,0.7,3.5,0.8
				l0-0.3c-0.1-1.2,0.1-2.3,0.6-3.3C313.6,634.9,314.5,634.3,315.6,634.2z M318.4,645.8c0,0.5,0.1,1.2,0.2,2.1
				c0,0.6,0.1,1.2,0.1,1.8c2.8,0,7,0,12.7,0.1l-0.4-3.3L318.4,645.8z"/>
			<path class="st15" d="M339.1,594.5c0.6,0,1.2,0.1,1.8,0.5c0.6,0.4,0.9,0.9,1,1.4c0,0.5,0,1.3-0.2,2.3c-0.2,1.1-0.2,1.9-0.2,2.4
				c0.5,6.7,2.1,13.2,4.7,19.7c0.5,1.3,0.7,2.1,0.8,2.5c0.1,1-0.2,1.9-0.7,2.7c-0.5,0.8-1.3,1.2-2.3,1.3c-1.1,0.1-2.2-0.4-3.4-1.3
				c-0.5-0.3-1.3-1.2-2.6-2.6c-3.8-4-7.9-7.5-12.3-10.6c-5.8-3.9-10.7-5.7-14.6-5.4c-1.6,0.1-2.8,0.8-3.6,2
				c-0.9,1.2-1.2,2.6-1.1,4.1c0.1,1.7,1,3.6,2.6,5.5c1.6,1.9,3.2,3.1,4.9,3.5c1.5,0.2,2.9,0.3,4.4,0.5c1.9,0.4,2.9,1.2,3,2.4
				c0.1,0.6-0.2,1.4-0.9,2.4c-0.6,1-1.3,1.5-1.8,1.5c-2.5,0.2-5.2-0.7-8.3-2.8c-2.8-1.9-4.9-4-6.3-6.4c-1.2-2.1-1.9-4.3-2.1-6.7
				c-0.2-2.9,0.6-5.7,2.5-8.1c1.9-2.5,4.4-3.8,7.3-4.1c4.4-0.4,9.4,1.5,14.8,5.5c1.9,1.4,5.9,5.1,12.2,11c0.6,0.6,1.2,1.1,1.7,1.5
				l-4.8-20.5c-0.1-0.2-0.1-0.4-0.1-0.7c-0.1-1,0.3-1.8,1-2.4C337.2,594.9,338.1,594.6,339.1,594.5z"/>
		</g>
	</g>
	<g>
		<polygon class="st3" points="667.5,720.9 667.5,720.9 667.5,720.9 664.8,704.6 662.5,691.1 661.7,690.7 273.9,504.1 106.1,830.3 
			106.1,830.3 105.6,831.3 92.9,856 503.5,1033.2 503.5,1033.2 503.7,1033 503.7,1032.9 640,773.4 		"/>
	</g>
	<g>
		<polygon class="st3" points="728,636.8 728,636.8 728,636.8 725.3,620.4 723.1,606.9 722.2,606.5 334.4,420 166.6,746.2 
			166.6,746.2 166.1,747.2 153.4,771.9 530.8,955 		"/>
	</g>
	<g>
		<g>
			<polygon class="st10" points="259.4,469.2 89.9,798.8 107.1,827.3 489.1,998.3 653.1,686 648.1,656.1 			"/>
		</g>
		<g>
			<polygon class="st11" points="485.5,965.3 646.3,655.3 648.1,656.1 653.1,686 489.1,998.3 107.1,827.3 89.9,798.8 91.7,795.3 			
				"/>
		</g>
		<g>
			<polygon class="st12" points="91.7,795.3 484.4,964.9 489.2,998 489.1,998.3 107.1,827.3 89.9,798.8 			"/>
		</g>
		<g>
			<path class="st14" d="M590.2,656.9l-3.6-1.3c-3.8-1.3-8,0.7-9.3,4.6l-1.3,3.6c-1.3,3.8,0.7,8,4.6,9.3l3.6,1.3
				c3.8,1.3,8-0.7,9.3-4.6l1.3-3.6C596.1,662.4,594.1,658.3,590.2,656.9z"/>
		</g>
		<g>
			<g>
				<polygon class="st14" points="153.4,761.7 274.6,529.3 364.3,572.1 239.3,800.9 				"/>
			</g>
			<g>
				<path d="M195,729c0.3,0.1,0.5,0.5,0.7,1.1c0.2,0.6,0.3,0.9,0.5,1.1c1.2,1.5,4.2,3.1,8.8,4.9l1.9,0.7c0-0.1,0-0.2,0.1-0.4
					c0.2-0.5,0.6-0.8,1.4-1c0.7-0.2,1.3-0.2,1.8,0c0.4,0.2,0.5,0.6,0.5,1.2c-0.1,0.5-0.2,1-0.3,1.6c1.5,0.6,3,1.1,4.6,1.7
					c2,0.7,3.5,1.1,4.6,1.1c0.9,0.1,1.5,0.1,1.7,0.2c0.6,0.3,1.1,0.7,1.5,1.4c0.3,0.7,0.4,1.4,0.1,2c-0.5,1.2-1.4,1.8-2.9,1.6
					c-0.3,0-1.5-0.3-3.5-0.9c-0.7-0.2-1.6-0.5-2.6-0.9l-2-0.8c-1.3-0.5-2.4-0.8-3.3-1c-0.7,1.9-1.3,4.2-1.8,6.9
					c-0.5,2.4-0.9,4.7-1.4,7.1c0.5,0,2.2,0.7,5.3,1.9c2.4,1,4.2,1.2,5.2,0.8c0.2,0,0.4,0,0.5,0c0.8,0.3,1,1.1,0.5,2.4
					c-0.5,1.2-1.2,2-2.2,2.3c-0.6,0.2-4.1-0.7-10.5-2.8c-0.4,0.6-0.9,0.9-1.7,1c-0.7,0.1-1.5,0-2.1-0.2c-0.4-0.2-0.6-0.5-0.5-0.9
					c0-0.5,0-0.9,0.1-1.4c-0.4-0.2-1.1-0.6-2.2-1.1c-0.9-0.5-1.6-0.8-2.1-1c-5.6-2.3-9.1-4-10.4-5.2c-1-1-1.3-2.1-0.8-3.4
					c0.3-0.8,0.8-1.4,1.6-1.9c0.8-0.5,1.5-0.6,2.2-0.3c0.4,0.2,0.8,0.5,1.3,1c0.6,0.7,1,1,1.1,1.1c2.3,1.9,5.4,3.7,9.1,5.1
					c0.6,0.2,1,0.4,1.1,0.4c0.1-0.3,0.3-1.1,0.5-2.4c0.7-4.1,1.8-7.8,3.1-11.1c-4.7-2-7.6-3.3-9-4c-4.4-2.4-6.2-4.4-5.6-6.1
					c0.4-1,1.1-1.7,2.1-2C193,728.5,194,728.6,195,729z"/>
				<path d="M228,708.6c4.1,1.7,7,2.9,8.6,3.9c0.9,0.6,1.2,1.4,0.7,2.6c-0.7,1.8-1.9,2.2-3.6,1.3c0.1,1.9-0.2,3.7-0.8,5.4
					c-0.7,1.7-1.7,3.1-3.1,4.2c-1.7,1.4-3.3,1.8-4.9,1.2c-1.5-0.6-2.5-2.2-3-4.8c-0.4-2.3-0.3-4.3,0.3-5.9l1.6-4.1l-1.1-0.5
					c-3.3-1.4-5.4-1-6.2,1c-1,2.5-0.3,4.3,2,5.2c0.8,0.3,1,0.9,0.6,1.8c-0.2,0.5-0.7,1-1.4,1.4c-0.7,0.4-1.4,0.5-1.9,0.3
					c-1.8-0.7-3-1.9-3.6-3.7c-0.6-1.7-0.6-3.5,0.1-5.3C214.6,706.7,219.8,705.4,228,708.6z M227.8,714.2c-0.6-0.3-1.2,0.1-1.5,1.1
					c-1.6,4-1.5,6.4,0.4,7.1c1,0.4,1.9-0.3,2.6-2c0.4-1.1,0.5-2.2,0.3-3.4C229.4,715.5,228.8,714.6,227.8,714.2z"/>
				<path d="M229.1,681.6c0.2,0.1,0.6,0.3,1,0.5c0.7,1.1,0.9,2,0.6,2.7c-0.2,0.6-0.8,1-1.7,1.2c-1.5-0.5-2.4-0.3-2.8,0.7
					c-0.2,0.6,1,1.9,3.7,3.9c1.2,0.9,3,1.9,5.4,2.8c2.3,0.9,3.7,1.4,4.2,1.3c0.7,0,1.2,0.1,1.4,0.1c0.5,0.2,0.9,0.6,1,1.3
					c0.1,0.6,0.1,1.2-0.2,1.8c-0.7,1.7-1.8,2.2-3.4,1.6c-0.2-0.1-0.4-0.2-0.6-0.4c-0.3-0.2-0.4-0.3-0.6-0.4
					c-1.6-0.7-4.1-1.5-7.4-2.7c-3.3-1.1-5.7-2-7.3-2.7c-1.4-0.6-1.8-1.7-1.1-3.5c0.4-1,1-1.6,1.8-1.7c-0.6-1.3-0.7-2.5-0.3-3.6
					c0.3-0.8,0.8-1.4,1.5-2c0.4-0.4,1.2-0.7,2.3-1C227.8,681.5,228.6,681.5,229.1,681.6z"/>
				<path d="M227.5,648.9c0.7,0.3,1.6,0.7,2.6,1.4c1.4,0.9,2.2,1.4,2.5,1.6c1,0.5,3.8,1.8,8.6,4c4.8,2.2,7.4,3.3,7.9,3.5
					c3.1,1.2,5.5,1.8,7.3,1.8c0.7,0.9,0.9,1.7,0.6,2.4c-0.3,0.7-0.8,1.3-1.6,1.6c-0.8,0.4-1.6,0.4-2.3,0.2c0.8,2.1,0.8,3.9,0.2,5.4
					c-0.9,2.3-2.5,3.8-4.6,4.4c-1.9,0.6-4.1,0.4-6.5-0.6c-2.8-1.1-5.4-2.8-7.9-5.2c-3.1-2.9-4.2-5.6-3.2-8c0.6-1.4,1.8-2.6,3.6-3.6
					c-1.4-0.8-5.2-2.4-11.4-4.9c-0.6-0.2-0.7-0.8-0.3-1.6c0.4-1,1-1.8,1.8-2.4C225.6,648.6,226.5,648.5,227.5,648.9z M241.6,661
					c-1.1-0.4-2.2-0.6-3.3-0.5c-1.3,0.2-2.2,0.8-2.6,1.7c-0.6,1.4,0.4,3.1,2.9,5c1.8,1.4,3.7,2.5,5.7,3.3c3,1.2,4.8,0.9,5.5-0.8
					c0.7-1.8-0.1-3.6-2.4-5.5C245.8,663,243.9,661.9,241.6,661z"/>
				<path d="M238.1,634.2c0.7,0.3,1.2,0.8,1.4,1.4c0.3,0.7,0.2,1.3,0,2c-0.3,0.8-0.9,1.5-1.8,2s-1.7,0.6-2.5,0.2
					c-0.7-0.3-1.2-0.8-1.4-1.4s-0.2-1.4,0.1-2.1c0.3-0.9,0.9-1.5,1.8-2C236.3,633.9,237.2,633.9,238.1,634.2z M244.6,637.3
					c0.6,0.2,1.3,0.7,2.3,1.4c1,0.7,1.7,1.1,2.3,1.4l9.9,4c0.6,0.2,1.6,0.4,3.1,0.6c0.5,0.8,0.7,1.5,0.5,2c-0.8,2-2.3,2.7-4.4,2.1
					c-3.9-1.2-6.7-2.1-8.6-2.9c-3.2-1.3-5.8-2.5-7.8-3.6c-0.2-0.1-0.3-0.1-0.5-0.2c-0.6-0.2-0.7-0.8-0.3-1.7
					c0.3-0.8,0.8-1.5,1.4-2.2C243.2,637.4,243.9,637.1,244.6,637.3z"/>
				<path d="M269,616c1.5,0.6,2.6,1.8,3.2,3.5c0.7,1.9,0.5,4-0.4,6.4c-0.4,1-1,2.1-1.9,3.1c-3,3.3-4.9,4.7-5.8,4.4
					c-1.4-0.6-1.7-1.9-0.9-3.9c0.1-0.3,0.3-0.6,0.4-0.9c1,0.3,2.1-0.2,3.2-1.4c1-1,1.7-2.2,2.1-3.3c0.3-1,0.2-1.6-0.4-1.8
					c-0.1,0-0.2-0.1-0.5-0.1c-0.2,0-0.4-0.1-0.5-0.1c-0.1,0-0.6,0.5-1.5,1.5c-1,1.2-1.5,1.9-1.6,2c-3.6,2.8-7,3.5-10.1,2.3
					c-1.9-0.7-3.4-2-4.5-3.6c-1.3-1.9-1.5-3.7-0.8-5.4c0.5-1.3,1.6-2.6,3.3-3.9s3.2-1.9,4.5-1.8c0.9,0.1,1.7,0.2,2.2,0.4
					c0.6,0.2,1,0.5,1.3,0.8c0.4,0.4,0.8,0.8,1.2,1.2c0.2,0.8,0.1,1.5-0.1,2.1c-0.1,0.3-0.5,0.8-1.2,1.4c-0.7,0.6-1.2,0.8-1.5,0.7
					c-0.1-0.1-0.5-0.4-1-1.1c-0.3-0.4-0.6-0.6-0.9-0.8c-1.9-0.8-3.2-0.4-3.8,1.1c-0.4,0.9-0.1,1.8,0.9,2.8c0.8,0.7,1.6,1.3,2.7,1.7
					c1.3,0.5,2.8,0.1,4.5-1.3c1.4-1.4,2.8-2.7,4.3-4.1C266.9,616.2,268.1,615.6,269,616z"/>
				<path d="M287,589.3c0.4,1.6,0.5,2.7,0.2,3.4c-0.4,0.9-1.9,1.9-4.5,2.9c-1.8,0.7-3.7,1.4-5.6,2.1c-1.1,0.4-2.7,1-4.8,2l0,0.2
					l4.2,1.7c0.3,0.1,0.7,0.2,1.3,0.1c0.6,0,1,0,1.3,0.2c0.4,0.2,0.7,0.6,0.9,1.2s0.1,1.1-0.1,1.6c-0.3,0.8-0.9,1.4-1.6,1.7
					c-0.8,0.3-1.6,0.3-2.4,0l-6.3-2.5c-0.4-0.2-0.9-0.4-1.7-0.8c-0.7-0.4-1.3-0.7-1.7-0.8l-12.9-5.2c-1.9-0.8-3.6-1.3-4.9-1.5
					c-0.6-0.1-1-0.2-1.3-0.3c-0.6-0.2-1-0.8-1.2-1.8c-0.2-0.8-0.2-1.5,0.1-2.2c0.2-0.5,0.6-0.9,1.2-1.3c0.6-0.4,1.1-0.5,1.6-0.3
					c0.1,0.1,0.5,0.3,1.2,0.8c0.7,0.5,1.8,1.1,3.4,1.7c0.5,0.2,4.8,2,12.7,5.3c-0.1-0.2-1-2.5-2.7-7.1c-1.5-3.8-2.1-5.9-1.9-6.4
					c0.7-1.7,2-2.1,4.1-1.2l0.5,0.2c0.2,1.7,0.8,4,1.6,6.9c1,3.6,1.9,5.6,2.6,5.9c0.1,0,1.4-0.4,4.1-1.4c2.5-0.9,4.1-1.5,4.7-1.7
					c2.8-1.1,4.9-2.4,6.3-3.7L287,589.3z"/>
			</g>
			<g>
				<path d="M301.1,599.2c2.1-0.2,3.2,0.6,3.3,2.3c0,0.4-0.1,1-0.3,1.8c-0.2,0.8-0.3,1.5-0.3,1.9c2.6,0.2,6.6,0.4,11.9,0.7l0-0.5
					c-0.3-3.4,0.4-5.2,2.3-5.3c2.1-0.2,3.2,0.6,3.3,2.3c0,0.4,0,1,0,1.8c0,0.8,0,1.4,0,1.8c2.2,0,4.5-0.1,6.9-0.3
					c0.2,0,0.5-0.1,0.8-0.2c0.4-0.1,0.6-0.2,0.8-0.2c0.8-0.1,1.5,0.2,2.1,0.8c0.6,0.6,1,1.3,1,2.1c0.1,1-0.4,1.9-1.3,2.5
					c-0.8,0.6-1.8,1-2.8,1.1c-2.1,0.2-4.6,0.2-7.4,0l0.1,1.6c0,0.3,0.1,0.8,0.2,1.5c5,0.2,7.7,0.3,8.2,0.3c2.5-0.2,3.9,0.8,4.1,2.9
					c0,0.6-0.2,1.2-0.8,1.8c-0.6,0.6-1.2,0.9-1.8,1c-1.7,0.1-4.3,0.1-7.8-0.2c0.3,0.6,0.4,1,0.4,1.3c0.1,0.8-0.5,1.4-1.6,2
					c-0.9,0.5-1.8,0.8-2.6,0.9c-1.3,0.1-1.9-0.2-2-1c0,0.1-0.1-1.1-0.3-3.5l-11.6,0c0.4,0.8,0.6,1.6,0.7,2.5c0,0.5-0.4,0.9-1.3,1.3
					c-0.7,0.3-1.3,0.5-1.9,0.5c-1.1,0.1-2-0.4-2.9-1.4l-0.5-3.2c-1.9,0-4.8,0-8.5-0.1c-1-1.4-1.5-2.4-1.5-3.2
					c-0.1-0.9,0.1-1.6,0.6-2.2s1.2-1,2.1-1c0.4,0,1.6,0.2,3.6,0.7c0.6,0,1.6,0,2.8,0.1l-0.3-3.7c-1.4-0.1-4.2-0.3-8.5-0.5
					c-1.1-1.5-1.7-2.4-1.8-2.8c-0.1-0.9,0.1-1.7,0.6-2.6c0.5-0.8,1.2-1.3,2.1-1.3c0.5,0,1.6,0.1,3.2,0.6c1.9,0.5,3.1,0.7,3.5,0.8
					l0-0.3c-0.1-1.2,0.1-2.3,0.6-3.3C299.2,600,300,599.3,301.1,599.2z M303.9,610.9c0,0.5,0.1,1.2,0.2,2.1c0,0.6,0.1,1.2,0.1,1.8
					c2.8,0,7,0,12.7,0.1l-0.4-3.3L303.9,610.9z"/>
				<path d="M324.7,559.5c0.6,0,1.2,0.1,1.8,0.5c0.6,0.4,0.9,0.9,1,1.4c0,0.5,0,1.3-0.2,2.3c-0.2,1.1-0.2,1.9-0.2,2.4
					c0.5,6.7,2.1,13.2,4.7,19.7c0.5,1.3,0.7,2.1,0.8,2.5c0.1,1-0.2,1.9-0.7,2.7c-0.5,0.8-1.3,1.2-2.3,1.3c-1.1,0.1-2.2-0.4-3.4-1.3
					c-0.5-0.3-1.3-1.2-2.6-2.6c-3.8-4-7.9-7.5-12.3-10.6c-5.8-3.9-10.7-5.7-14.6-5.4c-1.6,0.1-2.8,0.8-3.6,2
					c-0.9,1.2-1.2,2.6-1.1,4.1c0.1,1.7,1,3.6,2.6,5.5c1.6,1.9,3.2,3.1,4.9,3.5c1.5,0.2,2.9,0.3,4.4,0.5c1.9,0.4,2.9,1.2,3,2.4
					c0.1,0.6-0.2,1.4-0.9,2.4c-0.6,1-1.3,1.5-1.8,1.5c-2.5,0.2-5.2-0.7-8.3-2.8c-2.8-1.9-4.9-4-6.3-6.4c-1.2-2.1-1.9-4.3-2.1-6.7
					c-0.2-2.9,0.6-5.7,2.5-8.1c1.9-2.5,4.4-3.8,7.3-4.1c4.4-0.4,9.4,1.5,14.8,5.5c1.9,1.4,5.9,5.1,12.2,11c0.6,0.6,1.2,1.1,1.7,1.5
					l-4.8-20.5c-0.1-0.2-0.1-0.4-0.1-0.7c-0.1-1,0.3-1.8,1-2.4C322.8,560,323.6,559.6,324.7,559.5z"/>
			</g>
		</g>
	</g>
	<g>
		<g>
			<polygon class="st10" points="315.9,326.9 146.4,656.5 163.6,685 545.5,856 709.5,543.8 704.5,513.9 			"/>
		</g>
		<g>
			<polygon class="st11" points="541.9,823.1 702.8,513 704.5,513.9 709.5,543.8 545.5,856 163.6,685 146.4,656.5 148.1,653.1 			
				"/>
		</g>
		<g>
			<polygon class="st12" points="148.1,653.1 540.9,822.6 545.7,855.8 545.5,856 163.6,685 146.4,656.5 			"/>
		</g>
		<g>
			<path class="st14" d="M646.7,514.7l-3.6-1.3c-3.8-1.3-8,0.7-9.3,4.6l-1.3,3.6c-1.3,3.8,0.7,8,4.6,9.3l3.6,1.3
				c3.8,1.3,8-0.7,9.3-4.6l1.3-3.6C652.6,520.2,650.5,516,646.7,514.7z"/>
		</g>
		<g>
			<g>
				<polygon class="st14" points="209.8,619.5 331,387 420.8,429.8 295.8,658.6 				"/>
			</g>
			<g>
				<path d="M251.5,586.7c0.3,0.1,0.5,0.5,0.7,1.1c0.2,0.6,0.3,0.9,0.5,1.1c1.2,1.5,4.2,3.1,8.8,4.9l1.9,0.7c0-0.1,0-0.2,0.1-0.4
					c0.2-0.5,0.6-0.8,1.4-1c0.7-0.2,1.3-0.2,1.8,0c0.4,0.2,0.5,0.6,0.5,1.2c-0.1,0.5-0.2,1-0.3,1.6c1.5,0.6,3,1.1,4.6,1.7
					c2,0.7,3.5,1.1,4.6,1.1c0.9,0.1,1.5,0.1,1.7,0.2c0.6,0.3,1.1,0.7,1.5,1.4c0.3,0.7,0.4,1.4,0.1,2c-0.5,1.2-1.4,1.8-2.9,1.6
					c-0.3,0-1.5-0.3-3.5-0.9c-0.7-0.2-1.6-0.5-2.6-0.9l-2-0.8c-1.3-0.5-2.4-0.8-3.3-1c-0.7,1.9-1.3,4.2-1.8,6.9
					c-0.5,2.4-0.9,4.7-1.4,7.1c0.5,0,2.2,0.7,5.3,1.9c2.4,1,4.2,1.2,5.2,0.8c0.2,0,0.4,0,0.5,0c0.8,0.3,1,1.1,0.5,2.4
					c-0.5,1.2-1.2,2-2.2,2.3c-0.6,0.2-4.1-0.7-10.5-2.8c-0.4,0.6-0.9,0.9-1.7,1c-0.7,0.1-1.5,0-2.1-0.2c-0.4-0.2-0.6-0.5-0.5-0.9
					c0-0.5,0-0.9,0.1-1.4c-0.4-0.2-1.1-0.6-2.2-1.1c-0.9-0.5-1.6-0.8-2.1-1c-5.6-2.3-9.1-4-10.4-5.2c-1-1-1.3-2.1-0.8-3.4
					c0.3-0.8,0.8-1.4,1.6-1.9c0.8-0.5,1.5-0.6,2.2-0.3c0.4,0.2,0.8,0.5,1.3,1c0.6,0.7,1,1,1.1,1.1c2.3,1.9,5.4,3.7,9.1,5.1
					c0.6,0.2,1,0.4,1.1,0.4c0.1-0.3,0.3-1.1,0.5-2.4c0.7-4.1,1.8-7.8,3.1-11.1c-4.7-2-7.6-3.3-9-4c-4.4-2.4-6.2-4.4-5.6-6.1
					c0.4-1,1.1-1.7,2.1-2C249.5,586.3,250.5,586.3,251.5,586.7z"/>
				<path d="M284.4,566.4c4.1,1.7,7,2.9,8.6,3.9c0.9,0.6,1.2,1.4,0.7,2.6c-0.7,1.8-1.9,2.2-3.6,1.3c0.1,1.9-0.2,3.7-0.8,5.4
					c-0.7,1.7-1.7,3.1-3.1,4.2c-1.7,1.4-3.3,1.8-4.9,1.2c-1.5-0.6-2.5-2.2-3-4.8c-0.4-2.3-0.3-4.3,0.3-5.9l1.6-4.1l-1.1-0.5
					c-3.3-1.4-5.4-1-6.2,1c-1,2.5-0.3,4.3,2,5.2c0.8,0.3,1,0.9,0.6,1.8c-0.2,0.5-0.7,1-1.4,1.4c-0.7,0.4-1.4,0.5-1.9,0.3
					c-1.8-0.7-3-1.9-3.6-3.7c-0.6-1.7-0.6-3.5,0.1-5.3C271,564.5,276.3,563.1,284.4,566.4z M284.2,571.9c-0.6-0.3-1.2,0.1-1.5,1.1
					c-1.6,4-1.5,6.4,0.4,7.1c1,0.4,1.9-0.3,2.6-2c0.4-1.1,0.5-2.2,0.3-3.4C285.8,573.2,285.2,572.3,284.2,571.9z"/>
				<path d="M285.6,539.4c0.2,0.1,0.6,0.3,1,0.5c0.7,1.1,0.9,2,0.6,2.7c-0.2,0.6-0.8,1-1.7,1.2c-1.5-0.5-2.4-0.3-2.8,0.7
					c-0.2,0.6,1,1.9,3.7,3.9c1.2,0.9,3,1.9,5.4,2.8c2.3,0.9,3.7,1.4,4.2,1.3c0.7,0,1.2,0.1,1.4,0.1c0.5,0.2,0.9,0.6,1,1.3
					c0.1,0.6,0.1,1.2-0.2,1.8c-0.7,1.7-1.8,2.2-3.4,1.6c-0.2-0.1-0.4-0.2-0.6-0.4c-0.3-0.2-0.4-0.3-0.6-0.4
					c-1.6-0.7-4.1-1.5-7.4-2.7c-3.3-1.1-5.7-2-7.3-2.7c-1.4-0.6-1.8-1.7-1.1-3.5c0.4-1,1-1.6,1.8-1.7c-0.6-1.3-0.7-2.5-0.3-3.6
					c0.3-0.8,0.8-1.4,1.5-2c0.4-0.4,1.2-0.7,2.3-1C284.3,539.3,285.1,539.2,285.6,539.4z"/>
				<path d="M284,506.7c0.7,0.3,1.6,0.7,2.6,1.4c1.4,0.9,2.2,1.4,2.5,1.6c1,0.5,3.8,1.8,8.6,4c4.8,2.2,7.4,3.3,7.9,3.5
					c3.1,1.2,5.5,1.8,7.3,1.8c0.7,0.9,0.9,1.7,0.6,2.4c-0.3,0.7-0.8,1.3-1.6,1.6c-0.8,0.4-1.6,0.4-2.3,0.2c0.8,2.1,0.8,3.9,0.2,5.4
					c-0.9,2.3-2.5,3.8-4.6,4.4c-1.9,0.6-4.1,0.4-6.5-0.6c-2.8-1.1-5.4-2.8-7.9-5.2c-3.1-2.9-4.2-5.6-3.2-8c0.6-1.4,1.8-2.6,3.6-3.6
					c-1.4-0.8-5.2-2.4-11.4-4.9c-0.6-0.2-0.7-0.8-0.3-1.6c0.4-1,1-1.8,1.8-2.4C282,506.3,283,506.3,284,506.7z M298,518.8
					c-1.1-0.4-2.2-0.6-3.3-0.5c-1.3,0.2-2.2,0.8-2.6,1.7c-0.6,1.4,0.4,3.1,2.9,5c1.8,1.4,3.7,2.5,5.7,3.3c3,1.2,4.8,0.9,5.5-0.8
					c0.7-1.8-0.1-3.6-2.4-5.5C302.3,520.8,300.3,519.7,298,518.8z"/>
				<path d="M294.5,492c0.7,0.3,1.2,0.8,1.4,1.4c0.3,0.7,0.2,1.3,0,2c-0.3,0.8-0.9,1.5-1.8,2s-1.7,0.6-2.5,0.2
					c-0.7-0.3-1.2-0.8-1.4-1.4s-0.2-1.4,0.1-2.1c0.3-0.9,0.9-1.5,1.8-2C292.8,491.7,293.6,491.6,294.5,492z M301,495.1
					c0.6,0.2,1.3,0.7,2.3,1.4c1,0.7,1.7,1.1,2.3,1.4l9.9,4c0.6,0.2,1.6,0.4,3.1,0.6c0.5,0.8,0.7,1.5,0.5,2c-0.8,2-2.3,2.7-4.4,2.1
					c-3.9-1.2-6.7-2.1-8.6-2.9c-3.2-1.3-5.8-2.5-7.8-3.6c-0.2-0.1-0.3-0.1-0.5-0.2c-0.6-0.2-0.7-0.8-0.3-1.7
					c0.3-0.8,0.8-1.5,1.4-2.2C299.6,495.1,300.4,494.8,301,495.1z"/>
				<path d="M325.4,473.7c1.5,0.6,2.6,1.8,3.2,3.5c0.7,1.9,0.5,4-0.4,6.4c-0.4,1-1,2.1-1.9,3.1c-3,3.3-4.9,4.7-5.8,4.4
					c-1.4-0.6-1.7-1.9-0.9-3.9c0.1-0.3,0.3-0.6,0.4-0.9c1,0.3,2.1-0.2,3.2-1.4c1-1,1.7-2.2,2.1-3.3c0.3-1,0.2-1.6-0.4-1.8
					c-0.1,0-0.2-0.1-0.5-0.1c-0.2,0-0.4-0.1-0.5-0.1c-0.1,0-0.6,0.5-1.5,1.5c-1,1.2-1.5,1.9-1.6,2c-3.6,2.8-7,3.5-10.1,2.3
					c-1.9-0.7-3.4-2-4.5-3.6c-1.3-1.9-1.5-3.7-0.8-5.4c0.5-1.3,1.6-2.6,3.3-3.9s3.2-1.9,4.5-1.8c0.9,0.1,1.7,0.2,2.2,0.4
					c0.6,0.2,1,0.5,1.3,0.8c0.4,0.4,0.8,0.8,1.2,1.2c0.2,0.8,0.1,1.5-0.1,2.1c-0.1,0.3-0.5,0.8-1.2,1.4c-0.7,0.6-1.2,0.8-1.5,0.7
					c-0.1-0.1-0.5-0.4-1-1.1c-0.3-0.4-0.6-0.6-0.9-0.8c-1.9-0.8-3.2-0.4-3.8,1.1c-0.4,0.9-0.1,1.8,0.9,2.8c0.8,0.7,1.6,1.3,2.7,1.7
					c1.3,0.5,2.8,0.1,4.5-1.3c1.4-1.4,2.8-2.7,4.3-4.1C323.3,473.9,324.5,473.4,325.4,473.7z"/>
				<path d="M343.4,447.1c0.4,1.6,0.5,2.7,0.2,3.4c-0.4,0.9-1.9,1.9-4.5,2.9c-1.8,0.7-3.7,1.4-5.6,2.1c-1.1,0.4-2.7,1-4.8,2l0,0.2
					l4.2,1.7c0.3,0.1,0.7,0.2,1.3,0.1c0.6,0,1,0,1.3,0.2c0.4,0.2,0.7,0.6,0.9,1.2s0.1,1.1-0.1,1.6c-0.3,0.8-0.9,1.4-1.6,1.7
					c-0.8,0.3-1.6,0.3-2.4,0l-6.3-2.5c-0.4-0.2-0.9-0.4-1.7-0.8c-0.7-0.4-1.3-0.7-1.7-0.8l-12.9-5.2c-1.9-0.8-3.6-1.3-4.9-1.5
					c-0.6-0.1-1-0.2-1.3-0.3c-0.6-0.2-1-0.8-1.2-1.8c-0.2-0.8-0.2-1.5,0.1-2.2c0.2-0.5,0.6-0.9,1.2-1.3c0.6-0.4,1.1-0.5,1.6-0.3
					c0.1,0.1,0.5,0.3,1.2,0.8c0.7,0.5,1.8,1.1,3.4,1.7c0.5,0.2,4.8,2,12.7,5.3c-0.1-0.2-1-2.5-2.7-7.1c-1.5-3.8-2.1-5.9-1.9-6.4
					c0.7-1.7,2-2.1,4.1-1.2l0.5,0.2c0.2,1.7,0.8,4,1.6,6.9c1,3.6,1.9,5.6,2.6,5.9c0.1,0,1.4-0.4,4.1-1.4c2.5-0.9,4.1-1.5,4.7-1.7
					c2.8-1.1,4.9-2.4,6.3-3.7L343.4,447.1z"/>
			</g>
			<g>
				<path d="M357.6,457c2.1-0.2,3.2,0.6,3.3,2.3c0,0.4-0.1,1-0.3,1.8c-0.2,0.8-0.3,1.5-0.3,1.9c2.6,0.2,6.6,0.4,11.9,0.7l0-0.5
					c-0.3-3.4,0.4-5.2,2.3-5.3c2.1-0.2,3.2,0.6,3.3,2.3c0,0.4,0,1,0,1.8c0,0.8,0,1.4,0,1.8c2.2,0,4.5-0.1,6.9-0.3
					c0.2,0,0.5-0.1,0.8-0.2c0.4-0.1,0.6-0.2,0.8-0.2c0.8-0.1,1.5,0.2,2.1,0.8c0.6,0.6,1,1.3,1,2.1c0.1,1-0.4,1.9-1.3,2.5
					c-0.8,0.6-1.8,1-2.8,1.1c-2.1,0.2-4.6,0.2-7.4,0l0.1,1.6c0,0.3,0.1,0.8,0.2,1.5c5,0.2,7.7,0.3,8.2,0.3c2.5-0.2,3.9,0.8,4.1,2.9
					c0,0.6-0.2,1.2-0.8,1.8c-0.6,0.6-1.2,0.9-1.8,1c-1.7,0.1-4.3,0.1-7.8-0.2c0.3,0.6,0.4,1,0.4,1.3c0.1,0.8-0.5,1.4-1.6,2
					c-0.9,0.5-1.8,0.8-2.6,0.9c-1.3,0.1-1.9-0.2-2-1c0,0.1-0.1-1.1-0.3-3.5l-11.6,0c0.4,0.8,0.6,1.6,0.7,2.5c0,0.5-0.4,0.9-1.3,1.3
					c-0.7,0.3-1.3,0.5-1.9,0.5c-1.1,0.1-2-0.4-2.9-1.4l-0.5-3.2c-1.9,0-4.8,0-8.5-0.1c-1-1.4-1.5-2.4-1.5-3.2
					c-0.1-0.9,0.1-1.6,0.6-2.2s1.2-1,2.1-1c0.4,0,1.6,0.2,3.6,0.7c0.6,0,1.6,0,2.8,0.1l-0.3-3.7c-1.4-0.1-4.2-0.3-8.5-0.5
					c-1.1-1.5-1.7-2.4-1.8-2.8c-0.1-0.9,0.1-1.7,0.6-2.6c0.5-0.8,1.2-1.3,2.1-1.3c0.5,0,1.6,0.1,3.2,0.6c1.9,0.5,3.1,0.7,3.5,0.8
					l0-0.3c-0.1-1.2,0.1-2.3,0.6-3.3C355.6,457.7,356.5,457.1,357.6,457z M360.4,468.7c0,0.5,0.1,1.2,0.2,2.1c0,0.6,0.1,1.2,0.1,1.8
					c2.8,0,7,0,12.7,0.1l-0.4-3.3L360.4,468.7z"/>
				<path d="M370.2,415.2c2.8-0.2,5.3,0.5,7.7,2c5.4,3.6,8.4,9,9,16.1c0.3,3.2,0.2,6.1-0.3,8.7c-0.3,1.7-1,3.5-2.2,5.3
					c-1.4,2.1-2.9,3.2-4.4,3.4c-0.7,0.1-1.4-0.2-2-0.8c-0.6-0.6-1-1.3-1-2c-0.1-1.2,0.4-2.2,1.5-2.9c1.6-0.9,2.6-1.7,3.1-2.3
					c1-1.5,1.4-3.8,1.1-7.1c-0.2-2.8-0.9-5.3-2.2-7.6c-1.4-2.5-3.2-4.3-5.5-5.5c-1.6-0.8-2.9-1.2-3.9-1.1c-2,0.2-3.6,1.5-4.8,4.1
					c-1.1,2.2-1.5,4.3-1.3,6.5c0,0.6,0.7,2.1,1.8,4.6c1.2,2.5,1.8,4.4,1.9,5.9c0.1,0.8,0,1.6-0.3,2.3c-0.3,0.9-0.8,1.3-1.5,1.4
					c-0.9,0.1-1.8-0.3-2.9-1.2c-1-0.8-1.7-2.5-2.1-4.9c-0.4-2.9-0.8-4.7-1.1-5.4c-0.6-1.2-2-2.7-4.3-4.4c-2.1-1.6-4.1-2.3-5.9-2.1
					c-2.3,0.2-3.4,1.5-3.2,3.9c0.1,1.3,0.8,3.2,2.1,5.6c1.3,2.4,2.4,3.9,3.4,4.5l0.2,0c0,0,0.3-0.1,0.9-0.4c1,0.4,2.1,1.2,3.3,2.4
					c1.2,1.3,1.9,2.5,1.9,3.5c0.1,0.7-0.1,1.5-0.6,2.2c-0.5,0.8-1,1.2-1.7,1.3c-0.9,0.1-2.2-0.4-3.7-1.4c-2.6-1.7-4.9-4.2-7.1-7.7
					c-2.2-3.5-3.4-6.7-3.6-9.6c-0.2-2.7,0.3-4.9,1.5-6.8c1.3-2.1,3.3-3.2,5.9-3.4c1.8-0.1,3.7,0.3,5.9,1.2c1.9,0.9,3.6,2.1,5,3.5
					C361.6,419.5,364.8,415.6,370.2,415.2z"/>
			</g>
		</g>
	</g>
</g>
<g>
	<g>
		<g>
			<path class="st2" d="M2257.9,1327.9c-8.9,4.5-17.6,9.4-27.1,12.5c-7.7,2.5-15.2,5.2-21.3,10.8c-3,2.7,1.3,6.7,4.3,4.3
				c6.7-5.3,15.5-6.4,23.4-9.4c8.5-3.2,16.4-7.7,24.5-11.8C2265.9,1332.2,2262.2,1325.8,2257.9,1327.9L2257.9,1327.9z"/>
		</g>
	</g>
</g>
<g>
	<polygon class="st3" points="39,1271.9 39,1275.5 39,1325.3 39,1327.7 39,1374.2 39,1376.6 39,1423.1 39,1425.5 39,1472 39,1474.4 
		39,1520.9 39,1523.3 39,1557 39,1559.4 39,1593.1 39,1595.5 39,1629.2 39,1631.5 39,1664.6 39,1667 39,1701.3 39,1703.7 39,1737.4 
		39,1739.7 39,1773.5 39,1775.8 39,1872 301.9,1376.3 0,1210.2 	"/>
	<path class="st3" d="M755.2,1603.8l-453.3-227.4l-1.9,3.6l0,0L39.2,1872H637h9h0l117.4-240.5
		C769.2,1621.6,765.4,1608.9,755.2,1603.8z"/>
</g>
<g>
	<g>
		<path class="st14" d="M716.2,1603.8l-453.3-227.4L0.2,1872h606.8l117.4-240.5C730.2,1621.6,726.4,1608.9,716.2,1603.8z"/>
		<polygon class="st16" points="262.9,1376.3 0,1210.2 0,1872 		"/>
		<g>
			<path class="st17" d="M0,1275.5L221.8,1420c0.3,0.2,0.5,0.2,0.8,0.2c0.5,0,1-0.2,1.3-0.7c0.5-0.7,0.3-1.6-0.4-2.1L0,1271.9
				V1275.5z"/>
			<path class="st18" d="M195.4,1454.9c0.2,0.1,0.4,0.2,0.5,0.2c0.3,0,0.6-0.2,0.8-0.5c0.3-0.5,0.2-1.1-0.3-1.4L0,1325.3v2.4
				L195.4,1454.9z"/>
			<path class="st18" d="M173,1489.3c0.2,0.1,0.4,0.2,0.5,0.2c0.3,0,0.6-0.2,0.8-0.5c0.3-0.5,0.2-1.1-0.3-1.4L0,1374.2v2.4
				L173,1489.3z"/>
			<path class="st18" d="M150.7,1523.6c0.2,0.1,0.4,0.2,0.5,0.2c0.3,0,0.6-0.2,0.8-0.5c0.3-0.5,0.2-1.1-0.3-1.4L0,1423.1v2.4
				L150.7,1523.6z"/>
			<path class="st18" d="M128.3,1558c0.2,0.1,0.4,0.2,0.5,0.2c0.3,0,0.6-0.2,0.8-0.5c0.3-0.5,0.2-1.1-0.3-1.4L0,1472v2.4L128.3,1558
				z"/>
			<path class="st18" d="M106,1592.3c0.2,0.1,0.4,0.2,0.5,0.2c0.3,0,0.6-0.2,0.8-0.5c0.3-0.5,0.2-1.1-0.3-1.4L0,1520.9v2.4
				L106,1592.3z"/>
			<path class="st18" d="M91.2,1618.8c0.2,0.1,0.4,0.2,0.5,0.2c0.3,0,0.6-0.2,0.8-0.5c0.3-0.5,0.2-1.1-0.3-1.4L0,1557v2.4
				L91.2,1618.8z"/>
			<path class="st18" d="M76.9,1645.4c0.3,0,0.6-0.2,0.8-0.5c0.3-0.5,0.2-1.1-0.3-1.4L0,1593.1v2.4l76.4,49.7
				C76.5,1645.3,76.7,1645.4,76.9,1645.4z"/>
			<path class="st18" d="M62.1,1671.8c0.3,0,0.6-0.2,0.8-0.5c0.3-0.5,0.2-1.1-0.3-1.4L0,1629.2v2.4l61.6,40.1
				C61.8,1671.8,62,1671.8,62.1,1671.8z"/>
			<path class="st18" d="M47.4,1698.3c0.3,0,0.6-0.2,0.8-0.4c0.3-0.5,0.2-1.1-0.3-1.4L0,1664.6v2.4l46.8,31.1
				C47,1698.2,47.2,1698.3,47.4,1698.3z"/>
			<path class="st18" d="M32.6,1724.7c0.3,0,0.6-0.2,0.8-0.5c0.3-0.5,0.2-1.1-0.3-1.4L0,1701.3v2.4l32,20.9
				C32.2,1724.6,32.4,1724.7,32.6,1724.7z"/>
			<path class="st18" d="M17.8,1751.1c0.3,0,0.6-0.2,0.8-0.5c0.3-0.5,0.2-1.1-0.3-1.4L0,1737.4v2.4l17.2,11.2
				C17.4,1751.1,17.6,1751.1,17.8,1751.1z"/>
			<path class="st18" d="M3,1777.6c0.3,0,0.6-0.2,0.8-0.5c0.3-0.5,0.2-1.1-0.3-1.4l-3.5-2.3v2.4l2.5,1.6
				C2.6,1777.5,2.8,1777.6,3,1777.6z"/>
		</g>
		<g>
			<g>
				<path class="st17" d="M670.8,1654.7c-0.2,0-0.5-0.1-0.7-0.2l-407.9-212c-0.7-0.4-1-1.3-0.6-2c0.4-0.7,1.3-1,2-0.6l407.9,212
					c0.7,0.4,1,1.3,0.6,2C671.9,1654.4,671.3,1654.7,670.8,1654.7z"/>
			</g>
			<g>
				<path class="st18" d="M653.1,1694.8c-0.2,0-0.3,0-0.5-0.1l-407.9-212c-0.5-0.3-0.7-0.9-0.4-1.3c0.3-0.5,0.9-0.7,1.3-0.4
					l407.9,212c0.5,0.3,0.7,0.9,0.4,1.3C653.8,1694.6,653.4,1694.8,653.1,1694.8z"/>
			</g>
			<g>
				<path class="st18" d="M634.2,1731.2c-0.2,0-0.3,0-0.5-0.1l-407.9-212c-0.5-0.3-0.7-0.9-0.4-1.3c0.3-0.5,0.9-0.7,1.3-0.4
					l407.9,212c0.5,0.3,0.7,0.9,0.4,1.3C634.9,1731,634.5,1731.2,634.2,1731.2z"/>
			</g>
			<g>
				<path class="st18" d="M615.3,1767.5c-0.2,0-0.3,0-0.5-0.1l-407.9-212c-0.5-0.3-0.7-0.9-0.4-1.3c0.3-0.5,0.9-0.7,1.3-0.4
					l407.9,212c0.5,0.3,0.7,0.9,0.4,1.3C616,1767.3,615.6,1767.5,615.3,1767.5z"/>
			</g>
			<g>
				<path class="st18" d="M596.4,1803.9c-0.2,0-0.3,0-0.5-0.1l-407.9-212c-0.5-0.3-0.7-0.9-0.4-1.3c0.3-0.5,0.9-0.7,1.3-0.4
					l407.9,212c0.5,0.3,0.7,0.9,0.4,1.3C597.1,1803.7,596.7,1803.9,596.4,1803.9z"/>
			</g>
			<g>
				<path class="st18" d="M577.5,1840.3c-0.2,0-0.3,0-0.5-0.1l-407.9-212c-0.5-0.3-0.7-0.9-0.4-1.3c0.3-0.5,0.9-0.7,1.3-0.4
					l407.9,212c0.5,0.3,0.7,0.9,0.4,1.3C578.2,1840.1,577.8,1840.3,577.5,1840.3z"/>
			</g>
			<g>
				<path class="st18" d="M561.7,1866.1c-0.2,0-0.3,0-0.5-0.1l-407.9-212c-0.5-0.3-0.7-0.9-0.4-1.3c0.3-0.5,0.9-0.7,1.3-0.4
					l407.9,212c0.5,0.3,0.7,0.9,0.4,1.3C562.4,1865.9,562.1,1866.1,561.7,1866.1z"/>
			</g>
			<g>
				<path class="st18" d="M496.2,1866.1c-0.2,0-0.3,0-0.5-0.1l-358.1-186.1c-0.5-0.3-0.7-0.9-0.4-1.3c0.3-0.5,0.9-0.7,1.3-0.4
					l358.1,186.1c0.5,0.3,0.7,0.9,0.4,1.3C496.9,1865.9,496.5,1866.1,496.2,1866.1z"/>
			</g>
			<g>
				<path class="st18" d="M426,1863.8c-0.2,0-0.3,0-0.5-0.1l-303.7-157.8c-0.5-0.3-0.7-0.9-0.4-1.3c0.3-0.5,0.9-0.7,1.3-0.4
					l303.7,157.8c0.5,0.3,0.7,0.9,0.4,1.3C426.8,1863.6,426.4,1863.8,426,1863.8z"/>
			</g>
			<g>
				<path class="st18" d="M369.7,1865.4c-0.2,0-0.3,0-0.5-0.1l-263.1-133.6c-0.5-0.2-0.7-0.9-0.4-1.3c0.3-0.5,0.9-0.7,1.3-0.4
					l263.1,133.6c0.5,0.2,0.7,0.9,0.4,1.3C370.4,1865.2,370.1,1865.4,369.7,1865.4z"/>
			</g>
			<g>
				<path class="st18" d="M299.5,1866.1c-0.2,0-0.3,0-0.5-0.1L90.4,1757.6c-0.5-0.3-0.7-0.9-0.4-1.3c0.3-0.5,0.9-0.7,1.3-0.4
					L300,1864.2c0.5,0.3,0.7,0.9,0.4,1.3C300.2,1865.9,299.9,1866.1,299.5,1866.1z"/>
			</g>
			<g>
				<path class="st18" d="M236,1867.1c-0.2,0-0.3,0-0.5-0.1l-160.9-83.6c-0.5-0.3-0.7-0.9-0.4-1.3c0.3-0.5,0.9-0.7,1.3-0.4
					l160.9,83.6c0.5,0.3,0.7,0.9,0.4,1.3C236.7,1866.9,236.3,1867.1,236,1867.1z"/>
			</g>
			<g>
				<path class="st18" d="M169.4,1867.1c-0.2,0-0.3,0-0.5-0.1l-110.1-57.7c-0.5-0.3-0.7-0.9-0.4-1.3s0.9-0.7,1.4-0.4l110.1,57.7
					c0.5,0.3,0.7,0.9,0.4,1.3C170.1,1866.9,169.8,1867.1,169.4,1867.1z"/>
			</g>
			<g>
				<path class="st18" d="M119.3,1870c-0.1,0-0.3,0-0.4-0.1l-75.7-34.7c-0.5-0.2-0.7-0.8-0.5-1.3s0.8-0.7,1.3-0.5l75.7,34.7
					c0.5,0.2,0.7,0.8,0.5,1.3C120.1,1869.8,119.7,1870,119.3,1870z"/>
			</g>
		</g>
	</g>
	<path class="st16" d="M716.2,1603.8l-453.3-227.4l-1.9,3.6l446.2,223.9c10.2,5.1,14,17.8,8.3,27.7L598.1,1872h9l117.4-240.5
		C730.2,1621.6,726.4,1608.9,716.2,1603.8z"/>
</g>
</svg>
