<?xml version="1.0" encoding="utf-8"?>
<!-- Generator: Adobe Illustrator 21.0.0, SVG Export Plug-In . SVG Version: 6.00 Build 0)  -->
<svg version="1.1" id="vv" xmlns="http://www.w3.org/2000/svg" xmlns:xlink="http://www.w3.org/1999/xlink" x="0px" y="0px"
	 viewBox="0 0 2272 1872" style="enable-background:new 0 0 2272 1872;" xml:space="preserve">
<style type="text/css">
	.st0{clip-path:url(#SVGID_2_);}
	.st1{fill:#53666B;}
	.st2{fill:#57A6CE;}
	.st3{fill:#70D2F9;}
	.st4{fill:#468AA5;}
	.st5{fill:#3D3D3D;}
	.st6{fill:#666666;}
	.st7{fill:#494949;}
	.st8{fill:#898989;}
	.st9{fill:#4A4642;}
	.st10{fill:#BDBFC1;}
	.st11{fill:#6D6D6D;}
	.st12{fill:#ACAEAF;}
	.st13{fill:#FFFFFF;}
	.st14{fill:#CECECE;}
	.st15{fill:#0071BE;}
	.st16{fill:#9B9B9B;}
	.st17{fill:#312E2D;}
	.st18{fill:#6B6B6B;}
	.st19{fill:#565656;}
	.st20{fill:#C99273;}
	.st21{fill:#EAAF88;}
	.st22{fill:#5E433C;}
	.st23{fill:#442F2A;}
	.st24{fill:#75544E;}
	.st25{opacity:0.13;fill:#0071BE;}
	.st26{fill:#D1D1D1;}
	.st27{fill:#7F574F;}
	.st28{fill:#4C3531;}
	.st29{clip-path:url(#SVGID_2_);fill:#BDBFC1;}
</style>
<g id="Layer_1_1_">
</g>
<g id="Layer_2">
</g>
<g>
	<defs>
		<rect id="SVGID_1_" x="0.2" width="2271.8" height="1872"/>
	</defs>
	<clipPath id="SVGID_2_">
		<use xlink:href="#SVGID_1_"  style="overflow:visible;"/>
	</clipPath>
	<g class="st0">
		<g>
			<rect x="0.2" class="st1" width="2271.8" height="1872"/>
		</g>
	</g>
	<g class="st0">
		<g>
			<rect x="0.2" y="352.2" class="st2" width="2271.8" height="1519.8"/>
		</g>
	</g>
	<g class="st0">
		<g>
			<rect x="0.2" y="352.2" class="st3" width="2271.8" height="15.6"/>
		</g>
	</g>
	<g class="st0">
		<path class="st4" d="M2215.9,1048.5c-25.9-13.4-55.6-15.7-81.2-16.2c-58.7-1.1-118.7,6.2-176.7,13.2
			c-51,6.2-103.7,12.6-154.3,13.1c-56.1,0.4-104.2-6.7-146.8-21.9c-15.1-5.4-23.2-11.6-24.7-19c-1.8-8.6,6.1-18.5,12.9-25.2
			c29.9-29.4,78-60.8,207.8-71.4c8-0.7,16.3-1.3,24.3-1.9c70-5.3,142.4-10.8,204.3-46c8.5-4.8,18.2-11,25-20.4
			c16.7-22.7,9.9-54.3-5.3-73.8c-15.3-19.5-38.4-30.7-59-39.2c-150.3-61.4-319.8-51.4-469.4-42.6c-5.5,0.3-9.7,5.1-9.4,10.6
			c0.3,5.5,5.1,9.7,10.6,9.4c147.5-8.7,314.6-18.5,460.7,41.1c19.1,7.8,38.4,17.2,50.9,33c10.4,13.2,15.6,35.1,5,49.6
			c-4.6,6.3-11.7,10.8-18.8,14.8c-58,33-128.2,38.3-196,43.4c-8,0.6-16.3,1.2-24.4,1.9c-76.4,6.2-162.3,20.2-220.2,77
			c-15.1,14.9-21.4,29.5-18.5,43.5c4.5,22.1,29.4,30.9,37.6,33.8c48.3,17.2,98.2,23,148.6,23c53.8,0,108.2-6.6,161.6-13.2
			c57.3-7,116.5-14.2,173.9-13.1c23.3,0.5,50.2,2.5,72.5,13.9c25.7,13.2,36.9,36.2,36.7,53.1c-0.2,18.4-11.7,37.6-34.1,57.2
			c-48.1,42.1-110.4,65.6-170.8,88.4c-9,3.4-18.4,6.9-27.5,10.5c-56.8,22-113,47.1-167.2,74.9c-48.5,24.8-100.3,57.4-116.1,110.9
			c-7.9,26.8-6.2,55.8,5.3,88.7c9.8,28.1,25.2,55,40.1,80.2c30.3,51,55.8,104.8,37.9,153c-10.7,28.9-45.3,65.1-107.3,72
			c-43.6,4.8-88.5-5.2-131.8-14.9c-3.4-0.8-6.8-1.5-10.3-2.3c-145-32.1-294.1-50.9-443.3-56c-91.2-3.1-182.7-1.1-273.6,6
			c-4.3-7.1-12.3-11.5-21-10.8c-0.4,0-40.2,3.2-83.9,8.3c-25.1,2.9-44.7,5.7-60.1,8.3l-4.9-23.4c-62.7,5.1-169.7,29.3-169.7,29.3
			l0.1,0.2h0l6.6,24.7c-2.9,0.4-5.6,0.9-8.1,1.3c-0.6,0.1-1.2,0.2-1.8,0.3c-2.4,0.4-4.6,0.8-6.5,1.2c-6.2,1.2-9.7,2.1-9.7,2.1l0,0.1
			h0l15.9,60.7h1.5h13.1l4.1-0.9l0-0.1l8.4-2.1l3.2,11.9h3h26.9l8.3-1.9l0,0l125.3-28.9l-6.4-30.4c41.7-6.7,99.4-12.7,138.3-15.7
			c8.8-0.7,16.1-6.4,19.1-14.1c90.1-7,180.9-9.1,271.3-6c148,5,295.9,23.7,439.7,55.6c3.4,0.8,6.8,1.5,10.2,2.3
			c36.7,8.2,74.4,16.6,112.6,16.6c8.6,0,17.2-0.4,25.8-1.4c26.5-2.9,52.7-12,73.9-25.5c23.9-15.2,41.1-35.8,49.9-59.4
			c20.8-56.1-6.6-114.9-39.4-170.2c-31.2-52.5-57.9-103.7-43.4-153c7.6-25.9,26.2-58,106-98.8c53.6-27.4,109.2-52.3,165.3-74
			c9.1-3.5,18.4-7,27.4-10.4c62-23.4,126.1-47.6,176.9-92.1c26.9-23.5,40.6-47.7,40.9-72C2263.8,1091.5,2245.2,1063.6,2215.9,1048.5
			z"/>
		<g>
			<g>
				<path class="st5" d="M1680.2,1849.5c-38.1,0-75.9-8.4-112.6-16.6c-3.4-0.8-6.8-1.5-10.2-2.3c-143.8-31.8-291.7-50.5-439.7-55.6
					c-148-5-296.9,3.6-442.5,25.5c-5.5,0.8-10.6-2.9-11.4-8.4c-0.8-5.5,2.9-10.6,8.4-11.4c146.8-22.2,296.9-30.8,446.1-25.7
					c149.2,5.1,298.4,23.9,443.3,56c3.4,0.8,6.8,1.5,10.3,2.3c43.4,9.7,88.2,19.7,131.8,14.9c62-6.8,96.5-43.1,107.3-72
					c17.9-48.2-7.6-102-37.9-153c-14.9-25.1-30.3-52.1-40.1-80.2c-11.4-32.9-13.2-61.9-5.3-88.7c15.8-53.5,67.5-86.1,116.1-110.9
					c54.2-27.7,110.5-52.9,167.2-74.9c9.1-3.5,18.5-7.1,27.5-10.5c60.3-22.8,122.7-46.4,170.8-88.4c22.4-19.6,33.9-38.9,34.1-57.2
					c0.2-16.9-11.1-39.8-36.7-53.1c-22.3-11.5-49.1-13.5-72.5-13.9c-57.3-1.1-116.6,6.1-173.9,13.1c-53.4,6.5-107.8,13.1-161.6,13.2
					c-50.4,0-100.4-5.8-148.6-23c-8.2-2.9-33.1-11.8-37.6-33.8c-2.9-14,3.4-28.6,18.5-43.5c57.8-56.8,143.7-70.8,220.2-77
					c8.1-0.7,16.4-1.3,24.4-1.9c67.8-5.1,137.9-10.4,196-43.4c7-4,14.2-8.5,18.8-14.8c10.7-14.5,5.4-36.4-5-49.6
					c-12.4-15.8-31.8-25.2-50.9-33c-146.1-59.7-313.2-49.8-460.7-41.1c-5.5,0.3-10.2-3.9-10.6-9.4c-0.3-5.5,3.9-10.2,9.4-10.6
					c149.6-8.8,319.1-18.8,469.4,42.6c20.6,8.4,43.7,19.6,59,39.2c15.3,19.5,22,51,5.3,73.8c-6.8,9.3-16.5,15.5-25,20.4
					c-61.9,35.2-134.3,40.7-204.3,46c-8,0.6-16.2,1.2-24.3,1.9c-129.8,10.6-177.9,42-207.8,71.4c-6.9,6.7-14.7,16.6-12.9,25.2
					c1.5,7.4,9.6,13.6,24.7,19c42.7,15.2,90.7,22.3,146.8,21.9c50.6-0.4,103.3-6.8,154.3-13.1c58-7.1,118-14.4,176.7-13.2
					c25.6,0.5,55.3,2.8,81.2,16.2c29.2,15.1,47.9,43,47.5,71.1c-0.3,24.3-14.1,48.5-40.9,72c-50.8,44.5-114.9,68.7-176.9,92.1
					c-9,3.4-18.3,6.9-27.4,10.4c-56.1,21.7-111.8,46.6-165.3,74c-79.8,40.8-98.3,72.8-106,98.8c-14.5,49.3,12.2,100.6,43.4,153
					c32.8,55.2,60.3,114.1,39.4,170.2c-8.8,23.6-26,44.1-49.9,59.4c-21.2,13.5-47.4,22.6-73.9,25.5
					C1697.4,1849,1688.8,1849.5,1680.2,1849.5z"/>
			</g>
			<g>
				<path class="st5" d="M632.6,1823.6c-8.6,0-16.8-4.9-20.5-13.3c-5.1-11.3-0.1-24.7,11.3-29.8c6.3-2.9,25.6-11.5,116.5-22.1
					c43.7-5.1,83.5-8.2,83.9-8.3c12.4-1,23.2,8.3,24.2,20.7c1,12.4-8.3,23.2-20.7,24.2c-59.2,4.7-161.9,16-185.4,26.6
					C638.8,1823,635.7,1823.6,632.6,1823.6z"/>
			</g>
			<g>
				<g>
					<path class="st5" d="M674.8,1743.4l20.5,97.8L561.7,1872h-26.9l-29.8-99.3C505.1,1772.7,612.1,1748.5,674.8,1743.4z"/>
				</g>
				<g>
					<path class="st6" d="M505.1,1772.7l0.1,0.2l35.4,0.6l0.3,1.1c15.6-4.4,83.2-22.8,134.3-29.2l-0.4-2
						C612.1,1748.5,505.1,1772.7,505.1,1772.7z"/>
				</g>
				<g>
					<polygon class="st7" points="505.2,1772.9 531.9,1872 561.7,1872 570,1870.1 540.5,1773.5 					"/>
				</g>
			</g>
			<g>
				<g>
					<path class="st8" d="M537.5,1794.6l12.9,60.1l-34.1,8.5h-13.1l-17.4-60.8C485.7,1802.4,506.8,1797.1,537.5,1794.6z"/>
				</g>
				<g>
					<path class="st6" d="M485.7,1802.4l0,0.1l17.3,0.3l0.2,0.5c8.5-0.8,10.4-2.8,34.5-7.8l-0.2-1
						C506.8,1797.1,485.7,1802.4,485.7,1802.4z"/>
				</g>
				<g>
					<polygon class="st7" points="485.7,1802.5 501.6,1863.2 516.2,1863.2 520.3,1862.3 503,1802.8 					"/>
				</g>
				<g>
					<polygon class="st5" points="508.4,1855.3 518.3,1855.3 504.5,1807.8 496,1807.7 					"/>
				</g>
			</g>
		</g>
		<polygon class="st4" points="1583,1549 277.8,1553 527.5,666.6 1465.3,605.5 		"/>
		<g>
			<g>
				<path class="st9" d="M318.7,1427.2v49.6c0,12.2,9.9,22.1,22.1,22.1h1145.1c12.2,0,22.1-9.9,22.1-22.1v-49.6H318.7z"/>
				<path class="st10" d="M582.5,552.2h665.1c9.8,0,18.5,6.2,21.7,15.5l257.4,755.2c0.8,2.4,1.2,4.9,1.2,7.4v101.6
					c0,12.6-10.3,22.9-22.9,22.9H321.7c-12.6,0-22.9-10.3-22.9-22.9v-103c0-2.5,0.4-5.1,1.3-7.5l260.8-753.7
					C564,558.4,572.7,552.2,582.5,552.2z"/>
				<path class="st11" d="M1061.2,1340.2L1061.2,1340.2c-12.3,6.4-25.9,9.7-39.8,9.7H857.8c-15.7,0-31.2-2.5-46.1-7.3l-27.6-8.9
					c-7.7-2.5-15.7-3.7-23.7-3.7H298.8v101.8c0,12.6,10.3,22.9,22.9,22.9H1505c12.6,0,22.9-10.3,22.9-22.9v-101.6
					c-0.1-0.1-0.1-0.1-0.2-0.2h-424.8C1088.3,1330,1074.1,1333.5,1061.2,1340.2z"/>
				<path class="st12" d="M1338.1,881.9c-7.1,2-15.4,2.4-24.1,0.8c-21.7-4.1-37-19.8-34.2-34.9c2.7-14.3,20.8-23.1,41.1-20.4
					l-55.5-177l-13.1-8.7c-7.5,2.5-16.1,3.9-25.3,3.9c-29.2,0-52.9-14.4-52.9-32.1c0-6.6,3.3-12.8,9.1-17.9l-44.3-29.6H680.3
					l-97.1,39.4l-72.7,220.9c0.1,0,0.1,0,0.2,0c22-2.4,41.2,8.1,42.9,23.4c1.7,15.3-14.8,29.7-36.8,32.1c-8.6,0.9-16.7-0.1-23.6-2.6
					l-116.8,355.1l68.9,56.3h948.2l54.9-56.3L1338.1,881.9z"/>
				<g>
					<ellipse class="st11" cx="363.5" cy="1297.6" rx="41.8" ry="23.1"/>
					<ellipse class="st13" cx="362.5" cy="1295.6" rx="34" ry="18.8"/>
					<path class="st14" d="M362.5,1309.2c-17.2,0-31.3-7-33.6-16.2c-0.2,0.8-0.3,1.7-0.3,2.6c0,10.4,15.2,18.8,34,18.8
						c18.8,0,34-8.4,34-18.8c0-0.9-0.1-1.7-0.3-2.6C393.8,1302.2,379.6,1309.2,362.5,1309.2z"/>
					<g>
						<g>
							<path class="st14" d="M345.3,1303.5c-0.9,0-1.8-0.5-2.3-1.4c-0.6-1.3,0-2.7,1.2-3.3l34.6-16.1c1.3-0.6,2.7,0,3.3,1.2
								c0.6,1.3,0,2.7-1.2,3.3l-34.6,16.1C346,1303.4,345.6,1303.5,345.3,1303.5z"/>
						</g>
						<g>
							<path class="st14" d="M379.8,1303.5c-0.4,0-0.7-0.1-1.1-0.2l-34.6-16.1c-1.3-0.6-1.8-2.1-1.2-3.3c0.6-1.3,2.1-1.8,3.3-1.2
								l34.6,16.1c1.3,0.6,1.8,2.1,1.2,3.3C381.7,1303,380.8,1303.5,379.8,1303.5z"/>
						</g>
					</g>
				</g>
				<g>
					<ellipse class="st11" cx="1466.3" cy="1297.6" rx="41.8" ry="23.1"/>
					<ellipse class="st13" cx="1465.3" cy="1295.6" rx="34" ry="18.8"/>
					<path class="st14" d="M1465.3,1309.2c-17.2,0-31.3-7-33.6-16.2c-0.2,0.8-0.3,1.7-0.3,2.6c0,10.4,15.2,18.8,34,18.8
						s34-8.4,34-18.8c0-0.9-0.1-1.7-0.3-2.6C1496.6,1302.2,1482.4,1309.2,1465.3,1309.2z"/>
					<g>
						<g>
							<path class="st14" d="M1448.1,1303.5c-0.9,0-1.8-0.5-2.3-1.4c-0.6-1.3,0-2.7,1.2-3.3l34.6-16.1c1.3-0.6,2.7,0,3.3,1.2
								c0.6,1.3,0,2.7-1.2,3.3l-34.6,16.1C1448.8,1303.4,1448.4,1303.5,1448.1,1303.5z"/>
						</g>
						<g>
							<path class="st14" d="M1482.6,1303.5c-0.4,0-0.7-0.1-1.1-0.2l-34.6-16.1c-1.3-0.6-1.8-2.1-1.2-3.3c0.6-1.3,2.1-1.8,3.3-1.2
								l34.6,16.1c1.3,0.6,1.8,2.1,1.2,3.3C1484.5,1303,1483.6,1303.5,1482.6,1303.5z"/>
						</g>
					</g>
				</g>
				<g>
					<ellipse class="st11" cx="1320.9" cy="851.3" rx="28.5" ry="15.8"/>
					<ellipse class="st13" cx="1320.2" cy="850" rx="23.2" ry="12.8"/>
					<path class="st14" d="M1320.2,859.3c-11.7,0-21.4-4.8-23-11.1c-0.1,0.6-0.2,1.2-0.2,1.8c0,7.1,10.4,12.8,23.2,12.8
						s23.2-5.7,23.2-12.8c0-0.6-0.1-1.2-0.2-1.8C1341.6,854.5,1331.9,859.3,1320.2,859.3z"/>
					<g>
						<g>
							<path class="st14" d="M1308.5,855.3c-0.6,0-1.3-0.4-1.5-1c-0.4-0.9,0-1.9,0.8-2.3l23.6-11c0.9-0.4,1.9,0,2.3,0.8
								c0.4,0.9,0,1.9-0.8,2.3l-23.6,11C1308.9,855.3,1308.7,855.3,1308.5,855.3z"/>
						</g>
						<g>
							<path class="st14" d="M1332.1,855.3c-0.2,0-0.5-0.1-0.7-0.2l-23.6-11c-0.9-0.4-1.2-1.4-0.8-2.3c0.4-0.9,1.4-1.2,2.3-0.8
								l23.6,11c0.9,0.4,1.2,1.4,0.8,2.3C1333.3,855,1332.7,855.3,1332.1,855.3z"/>
						</g>
					</g>
				</g>
				<g>
					<ellipse class="st11" cx="514.6" cy="851.3" rx="28.5" ry="15.8"/>
					<ellipse class="st13" cx="513.9" cy="850" rx="23.2" ry="12.8"/>
					<path class="st14" d="M513.9,859.3c-11.7,0-21.4-4.8-23-11.1c-0.1,0.6-0.2,1.2-0.2,1.8c0,7.1,10.4,12.8,23.2,12.8
						c12.8,0,23.2-5.7,23.2-12.8c0-0.6-0.1-1.2-0.2-1.8C535.3,854.5,525.6,859.3,513.9,859.3z"/>
					<g>
						<g>
							<path class="st14" d="M502.1,855.3c-0.6,0-1.3-0.4-1.5-1c-0.4-0.9,0-1.9,0.8-2.3l23.6-11c0.9-0.4,1.9,0,2.3,0.8
								c0.4,0.9,0,1.9-0.8,2.3l-23.6,11C502.6,855.3,502.4,855.3,502.1,855.3z"/>
						</g>
						<g>
							<path class="st14" d="M525.7,855.3c-0.2,0-0.5-0.1-0.7-0.2l-23.6-11c-0.9-0.4-1.2-1.4-0.8-2.3c0.4-0.9,1.4-1.2,2.3-0.8
								l23.6,11c0.9,0.4,1.2,1.4,0.8,2.3C527,855,526.4,855.3,525.7,855.3z"/>
						</g>
					</g>
				</g>
				<g>
					
						<ellipse transform="matrix(0.9988 -4.818029e-02 4.818029e-02 0.9988 -26.9842 29.5288)" class="st11" cx="599" cy="574.5" rx="20.6" ry="11.4"/>
					
						<ellipse transform="matrix(0.9988 -4.818029e-02 4.818029e-02 0.9988 -26.9384 29.5016)" class="st13" cx="598.5" cy="573.5" rx="16.8" ry="9.3"/>
					<path class="st14" d="M598.8,580.3c-8.5,0.4-15.6-2.7-17-7.2c-0.1,0.4-0.1,0.9-0.1,1.3c0.2,5.1,7.9,8.9,17.2,8.5
						c9.3-0.4,16.6-5,16.3-10.1c0-0.4-0.1-0.9-0.2-1.3C614.1,576,607.3,579.8,598.8,580.3z"/>
					<g>
						<g>
							<path class="st14" d="M590.2,577.8c-0.5,0-0.9-0.2-1.2-0.7c-0.3-0.6-0.1-1.4,0.5-1.7l16.7-8.8c0.6-0.3,1.4-0.1,1.7,0.5
								c0.3,0.6,0.1,1.4-0.5,1.7l-16.7,8.8C590.5,577.8,590.4,577.8,590.2,577.8z"/>
						</g>
						<g>
							<path class="st14" d="M607.2,577c-0.2,0-0.4,0-0.5-0.1l-17.4-7.1c-0.6-0.3-0.9-1-0.7-1.6c0.3-0.6,1-0.9,1.6-0.7l17.4,7.1
								c0.6,0.3,0.9,1,0.7,1.6C608.1,576.7,607.7,577,607.2,577z"/>
						</g>
					</g>
				</g>
				<g>
					
						<ellipse transform="matrix(0.9988 -4.818029e-02 4.818029e-02 0.9988 -26.2907 58.302)" class="st11" cx="1196.2" cy="574.5" rx="20.6" ry="11.4"/>
					
						<ellipse transform="matrix(0.9988 -4.818029e-02 4.818029e-02 0.9988 -26.2449 58.2748)" class="st13" cx="1195.7" cy="573.5" rx="16.8" ry="9.3"/>
					<path class="st14" d="M1196,580.3c-8.5,0.4-15.6-2.7-17-7.2c-0.1,0.4-0.1,0.9-0.1,1.3c0.2,5.1,7.9,8.9,17.2,8.5
						c9.3-0.4,16.6-5,16.3-10.1c0-0.4-0.1-0.9-0.2-1.3C1211.3,576,1204.5,579.8,1196,580.3z"/>
					<g>
						<g>
							<path class="st14" d="M1187.4,577.8c-0.5,0-0.9-0.2-1.2-0.7c-0.3-0.6-0.1-1.4,0.5-1.7l16.7-8.8c0.6-0.3,1.4-0.1,1.7,0.5
								c0.3,0.6,0.1,1.4-0.5,1.7l-16.7,8.8C1187.7,577.8,1187.6,577.8,1187.4,577.8z"/>
						</g>
						<g>
							<path class="st14" d="M1204.4,577c-0.2,0-0.4,0-0.5-0.1l-17.4-7.1c-0.6-0.3-0.9-1-0.7-1.6c0.3-0.6,1-0.9,1.6-0.7l17.4,7.1
								c0.6,0.3,0.9,1,0.7,1.6C1205.3,576.7,1204.9,577,1204.4,577z"/>
						</g>
					</g>
				</g>
				<ellipse class="st13" cx="1228.3" cy="618.6" rx="41.2" ry="17.9"/>
				<path class="st13" d="M657.7,591.9H1037c5.5,0,11,1.2,15.9,3.6l141.6,68.3c15.5,7.5,26.8,21.4,31,38.1l117.7,469.2
					c4.8,19.1-9.7,37.7-29.4,37.7H509.4c-15.3,0-26.5-14.5-22.6-29.3l151.1-572.4C640.3,598.2,648.4,591.9,657.7,591.9z"/>
				<path class="st15" d="M1225.6,702c-4.2-16.7-15.5-30.6-31-38.1l-141.6-68.3c-5-2.4-10.4-3.6-15.9-3.6H657.7
					c-9.3,0-17.5,6.3-19.8,15.3l-28.7,108.9h620L1225.6,702z"/>
				<polygon class="st13" points="1015,636.5 698.2,636.5 705.7,608.4 1011,608.4 				"/>
				<polygon class="st13" points="1042.6,680.6 689,680.6 697.4,652.5 1038,652.5 				"/>
				<polygon class="st9" points="850.6,811.9 677.3,811.9 682.7,783.9 854.1,783.9 				"/>
				<polygon class="st9" points="749.2,846.9 673.6,846 676.9,827.4 752.7,828.3 				"/>
				<path class="st16" d="M726.9,1401.3H354.2c-14.2,0-25.7-11.5-25.7-25.7l0,0c0-14.2,11.5-25.7,25.7-25.7h372.7
					c14.2,0,25.7,11.5,25.7,25.7l0,0C752.6,1389.8,741.1,1401.3,726.9,1401.3z"/>
				<g>
					<polygon class="st9" points="830.9,961 825.7,961 821.3,989.1 826.5,989.1 					"/>
					<polygon class="st9" points="816.6,961 811.5,961 807.1,989.1 812.2,989.1 					"/>
					<polygon class="st9" points="802.4,961 797.2,961 792.9,989.1 798,989.1 					"/>
					<polygon class="st9" points="859.4,961 854.2,961 849.8,989.1 855,989.1 					"/>
					<polygon class="st9" points="880.3,961 868.5,961 864.1,989.1 878.6,989.1 					"/>
					<polygon class="st9" points="845.1,961 840,961 835.6,989.1 840.7,989.1 					"/>
					<polygon class="st9" points="788.1,961 783,961 778.6,989.1 783.7,989.1 					"/>
					<polygon class="st9" points="756.8,961 751,961 744.9,989.1 751,989.1 					"/>
					<polygon class="st9" points="698.5,961 692.1,961 685.9,989.1 692.3,989.1 					"/>
					<polygon class="st9" points="659.6,989.1 676.7,989.1 682.9,961 665.7,961 					"/>
					<polygon class="st9" points="1169.9,989.1 1196.2,989.1 1191.7,961 1167.1,961 					"/>
					<polygon class="st9" points="773.9,961 765.9,961 760.2,989.1 769.5,989.1 					"/>
					<polygon class="st9" points="720.1,961 707.7,961 701.5,989.1 714,989.1 					"/>
					<polygon class="st9" points="897.3,961 889.3,961 887.6,989.1 895.6,989.1 					"/>
					<polygon class="st9" points="741.8,961 729.3,961 723.2,989.1 735.6,989.1 					"/>
					<polygon class="st9" points="1089.7,961 1083.2,961 1083.3,989.1 1091.1,989.1 					"/>
					<polygon class="st9" points="1074.2,961 1065.1,961 1065.2,989.1 1074.3,989.1 					"/>
					<polygon class="st9" points="1056.1,961 1047,961 1047.1,989.1 1056.2,989.1 					"/>
					<polygon class="st9" points="1105.3,961 1098.7,961 1100.1,989.1 1106.8,989.1 					"/>
					<polygon class="st9" points="1158.1,961 1135.5,961 1136.9,989.1 1160.9,989.1 					"/>
					<polygon class="st9" points="656.5,961 640.5,961 632.6,989.1 650.4,989.1 					"/>
					<polygon class="st9" points="1038,961 1028.9,961 1029,989.1 1038.1,989.1 					"/>
					<polygon class="st9" points="1126.4,961 1114.4,961 1115.8,989.1 1127.9,989.1 					"/>
					<polygon class="st9" points="1001.8,961 992.7,961 992.8,989.1 1001.9,989.1 					"/>
					<polygon class="st9" points="1019.9,961 1010.8,961 1010.9,989.1 1020,989.1 					"/>
					<polygon class="st9" points="948.2,961 940.3,961 938.6,989.1 946.5,989.1 					"/>
					<polygon class="st9" points="931.2,961 923.3,961 921.6,989.1 929.5,989.1 					"/>
					<polygon class="st9" points="969.9,961 957.2,961 955.5,989.1 969.1,989.1 					"/>
					<polygon class="st9" points="983.7,961 978.9,961 978.1,989.1 983.8,989.1 					"/>
					<polygon class="st9" points="914.2,961 906.3,961 904.6,989.1 912.6,989.1 					"/>
				</g>
				<g>
					<polygon class="st9" points="825.5,1018.6 820,1018.6 815.4,1046.7 820.8,1046.7 					"/>
					<polygon class="st9" points="810.4,1018.6 804.9,1018.6 800.3,1046.7 805.7,1046.7 					"/>
					<polygon class="st9" points="795.3,1018.6 789.8,1018.6 785.2,1046.7 790.6,1046.7 					"/>
					<polygon class="st9" points="855.6,1018.6 850.2,1018.6 845.6,1046.7 851,1046.7 					"/>
					<polygon class="st9" points="877.8,1018.6 865.3,1018.6 860.7,1046.7 876,1046.7 					"/>
					<polygon class="st9" points="840.6,1018.6 835.1,1018.6 830.5,1046.7 835.9,1046.7 					"/>
					<polygon class="st9" points="780.2,1018.6 774.7,1018.6 770.1,1046.7 775.6,1046.7 					"/>
					<polygon class="st9" points="747,1018.6 740.9,1018.6 734.4,1046.7 740.9,1046.7 					"/>
					<polygon class="st9" points="685.2,1018.6 678.5,1018.6 672,1046.7 678.7,1046.7 					"/>
					<polygon class="st9" points="644,1046.7 662.2,1046.7 668.7,1018.6 650.6,1018.6 					"/>
					<polygon class="st9" points="1184.6,1046.7 1212.5,1046.7 1207.7,1018.6 1181.6,1018.6 					"/>
					<polygon class="st9" points="765.1,1018.6 756.7,1018.6 750.6,1046.7 760.5,1046.7 					"/>
					<polygon class="st9" points="708.2,1018.6 695,1018.6 688.5,1046.7 701.6,1046.7 					"/>
					<polygon class="st9" points="895.8,1018.6 887.3,1018.6 885.5,1046.7 894,1046.7 					"/>
					<polygon class="st9" points="731.1,1018.6 717.9,1018.6 711.4,1046.7 724.6,1046.7 					"/>
					<polygon class="st9" points="1099.6,1018.6 1092.7,1018.6 1092.8,1046.7 1101.1,1046.7 					"/>
					<polygon class="st9" points="1083.2,1018.6 1073.5,1018.6 1073.6,1046.7 1083.3,1046.7 					"/>
					<polygon class="st9" points="1064,1018.6 1054.3,1018.6 1054.4,1046.7 1064.1,1046.7 					"/>
					<polygon class="st9" points="1116.2,1018.6 1109.1,1018.6 1110.7,1046.7 1117.7,1046.7 					"/>
					<polygon class="st9" points="1172.1,1018.6 1148.1,1018.6 1149.6,1046.7 1175,1046.7 					"/>
					<polygon class="st9" points="640.8,1018.6 623.8,1018.6 615.4,1046.7 634.3,1046.7 					"/>
					<polygon class="st9" points="1044.8,1018.6 1035.2,1018.6 1035.3,1046.7 1044.9,1046.7 					"/>
					<polygon class="st9" points="1138.5,1018.6 1125.7,1018.6 1127.3,1046.7 1140.1,1046.7 					"/>
					<polygon class="st9" points="1006.5,1018.6 996.8,1018.6 996.9,1046.7 1006.6,1046.7 					"/>
					<polygon class="st9" points="1025.6,1018.6 1016,1018.6 1016.1,1046.7 1025.7,1046.7 					"/>
					<polygon class="st9" points="949.8,1018.6 941.3,1018.6 939.5,1046.7 948,1046.7 					"/>
					<polygon class="st9" points="931.8,1018.6 923.3,1018.6 921.5,1046.7 930,1046.7 					"/>
					<polygon class="st9" points="972.7,1018.6 959.3,1018.6 957.5,1046.7 971.9,1046.7 					"/>
					<polygon class="st9" points="987.3,1018.6 982.3,1018.6 981.4,1046.7 987.4,1046.7 					"/>
					<polygon class="st9" points="913.8,1018.6 905.3,1018.6 903.5,1046.7 912,1046.7 					"/>
				</g>
				<g>
					<polygon class="st9" points="817.4,1100.5 811.7,1100.5 806.9,1128.5 812.6,1128.5 					"/>
					<polygon class="st9" points="801.7,1100.5 796,1100.5 791.2,1128.5 796.9,1128.5 					"/>
					<polygon class="st9" points="786,1100.5 780.3,1100.5 775.5,1128.5 781.2,1128.5 					"/>
					<polygon class="st9" points="848.8,1100.5 843.2,1100.5 838.3,1128.5 844,1128.5 					"/>
					<polygon class="st9" points="871.9,1100.5 858.9,1100.5 854,1128.5 870,1128.5 					"/>
					<polygon class="st9" points="833.1,1100.5 827.5,1100.5 822.6,1128.5 828.3,1128.5 					"/>
					<polygon class="st9" points="770.3,1100.5 764.6,1100.5 759.8,1128.5 765.5,1128.5 					"/>
					<polygon class="st9" points="735.7,1100.5 729.4,1100.5 722.6,1128.5 729.4,1128.5 					"/>
					<polygon class="st9" points="671.4,1100.5 664.4,1100.5 657.6,1128.5 664.6,1128.5 					"/>
					<polygon class="st9" points="628.5,1128.5 647.4,1128.5 654.2,1100.5 635.3,1100.5 					"/>
					<polygon class="st9" points="1191.3,1128.5 1220.3,1128.5 1215.3,1100.5 1188.2,1100.5 					"/>
					<polygon class="st9" points="754.6,1100.5 745.8,1100.5 739.5,1128.5 749.7,1128.5 					"/>
					<polygon class="st9" points="695.3,1100.5 681.6,1100.5 674.8,1128.5 688.5,1128.5 					"/>
					<polygon class="st9" points="890.6,1100.5 881.8,1100.5 880,1128.5 888.8,1128.5 					"/>
					<polygon class="st9" points="719.2,1100.5 705.5,1100.5 698.7,1128.5 712.4,1128.5 					"/>
					<polygon class="st9" points="1102.8,1100.5 1095.6,1100.5 1095.7,1128.5 1104.4,1128.5 					"/>
					<polygon class="st9" points="1085.7,1100.5 1075.7,1100.5 1075.8,1128.5 1085.8,1128.5 					"/>
					<polygon class="st9" points="1065.7,1100.5 1055.7,1100.5 1055.8,1128.5 1065.8,1128.5 					"/>
					<polygon class="st9" points="1120.1,1100.5 1112.7,1100.5 1114.3,1128.5 1121.7,1128.5 					"/>
					<polygon class="st9" points="1178.3,1100.5 1153.3,1100.5 1154.9,1128.5 1181.3,1128.5 					"/>
					<polygon class="st9" points="625.2,1100.5 607.4,1100.5 598.7,1128.5 618.4,1128.5 					"/>
					<polygon class="st9" points="1045.8,1100.5 1035.7,1100.5 1035.8,1128.5 1045.9,1128.5 					"/>
					<polygon class="st9" points="1143.3,1100.5 1130,1100.5 1131.6,1128.5 1144.9,1128.5 					"/>
					<polygon class="st9" points="1005.9,1100.5 995.8,1100.5 995.9,1128.5 1006,1128.5 					"/>
					<polygon class="st9" points="1025.8,1100.5 1015.8,1100.5 1015.9,1128.5 1025.9,1128.5 					"/>
					<polygon class="st9" points="946.8,1100.5 938,1100.5 936.2,1128.5 945,1128.5 					"/>
					<polygon class="st9" points="928.1,1100.5 919.3,1100.5 917.4,1128.5 926.2,1128.5 					"/>
					<polygon class="st9" points="970.7,1100.5 956.8,1100.5 954.9,1128.5 969.9,1128.5 					"/>
					<polygon class="st9" points="985.9,1100.5 980.7,1100.5 979.8,1128.5 986,1128.5 					"/>
					<polygon class="st9" points="909.4,1100.5 900.6,1100.5 898.7,1128.5 907.5,1128.5 					"/>
				</g>
				<rect x="921.5" y="783.9" class="st12" width="227.3" height="3.7"/>
				<rect x="921.5" y="796.9" class="st12" width="230.2" height="3.7"/>
				<rect x="921.5" y="810" class="st12" width="235.6" height="3.7"/>
				<rect x="921.5" y="823" class="st12" width="239.7" height="3.7"/>
				<rect x="921.5" y="836.1" class="st12" width="243.1" height="3.7"/>
				<rect x="921.5" y="849.2" class="st12" width="245.6" height="3.7"/>
				<rect x="921.5" y="865.3" class="st12" width="191.9" height="3.7"/>
			</g>
			<g>
				<g>
					<path class="st13" d="M1261.5,496c-41.3,0-81.2,5.8-119,16.6h237.9C1342.7,501.8,1302.8,496,1261.5,496z"/>
					<path class="st13" d="M1406.5,520.9h-290c-17,6.1-33.6,13.2-49.6,21.2h389.1C1440.1,534.1,1423.6,527,1406.5,520.9z"/>
					<path class="st13" d="M1567.1,1233.9h-15.9l-3.6-63.6h56.5l2,18.7c31.5-41.6,55.7-89.1,70.6-140.5h-58.2l-6.7-63.6h58.9l9,52.8
						c9.1-34.9,14-71.6,14-109.4c0-126.1-54-239.6-140.1-318.6h-530.7v-8.3h521.3c-8.6-7.4-17.4-14.5-26.6-21.2h-494.8v-8.3H1506
						c-11-7.6-22.5-14.7-34.2-21.2h-420.5c-127.3,71-214.9,204.4-221.6,358.9l8.5-54.8h11.6l-9.9,63.6h-10.6
						c-0.1,3.3-0.1,6.7-0.1,10.1c0,12.4,0.5,24.6,1.5,36.7c1.3,6.7,2.8,13.3,4.2,19.9h4.5l-1.9,11.4c4,17.1,8.5,34.1,13.5,50.8
						l10.3-62.2h12.3l-10.5,63.6h-11.7c8.5,28.9,18.4,57.2,29.5,84.9c6.9,12.7,14.3,25,22.4,36.9h7.1l-0.6,9.3
						c6.6,9.2,13.5,18.1,20.7,26.7l2.4-36h19.9l-3.8,56.7c78.7,82.2,189.5,133.5,312.4,133.5
						C1380.9,1360.4,1488.9,1312.1,1567.1,1233.9z M872.2,918.2h-11.6l9.9-63.6h11.6L872.2,918.2z M919.8,1048.5h-34.7l10.5-63.6
						h28.3L919.8,1048.5z M925.7,918.2h-32.8l9.9-63.6h26.7L925.7,918.2z M1265.9,854.5h20.6l0.2,63.6h-20.6L1265.9,854.5z
						 M1280.2,984.8h21.8l0.2,63.6h-21.8L1280.2,984.8z M1281.7,1233.9l-0.2-63.6h22.7l0.2,63.6H1281.7z M1306.9,854.5h20.6
						l0.2,63.6h-20.6L1306.9,854.5z M1323.6,984.8h21.8l0.2,63.6h-21.8L1323.6,984.8z M1326.9,1233.9l-0.2-63.6h22.7l0.2,63.6
						H1326.9z M1347.9,854.5h20.6l0.2,63.6h-20.6L1347.9,854.5z M1367.1,984.8h21.8l0.2,63.6h-21.8L1367.1,984.8z M1372.1,1233.9
						l-0.2-63.6h22.7l0.2,63.6H1372.1z M1389.1,918.2l-0.2-63.6h14.8l3.3,63.6H1389.1z M1410.5,984.8h15.7l3.4,63.6h-18.9
						L1410.5,984.8z M1417.3,1233.9l-0.2-63.6h16.3l3.6,63.6H1417.3z M1427.3,918.2l-3.3-63.6h15l3.3,63.6H1427.3z M1447.7,984.8
						h15.9l3.4,63.6h-15.9L1447.7,984.8z M1459.5,1233.9l-3.6-63.6h16.6l3.6,63.6H1459.5z M1485.3,984.8h29l3.4,63.6h-29
						L1485.3,984.8z M1498.6,1233.9l-3.6-63.6h30.2l3.6,63.6H1498.6z M1634.6,854.5l10.3,63.6h-59.6l-6.3-63.6H1634.6z
						 M1590.2,984.8l6.7,63.6h-57.5l-3.4-63.6H1590.2z M1558.6,854.5l6.3,63.6h-54.3l-3.3-63.6H1558.6z M1486.9,854.5l3.3,63.6
						h-27.4l-3.3-63.6H1486.9z M1022.9,637.8h434.5v8.3h-434.5V637.8z M1258.9,1048.5h-21.8l-0.2-63.6h21.8L1258.9,1048.5z
						 M1132.5,854.5l-1.8,63.6H1100l3.8-63.6H1132.5z M1083.4,854.5l-3.8,63.6h-18.1l3.8-63.6H1083.4z M1044.9,854.5l-3.8,63.6H1023
						l3.8-63.6H1044.9z M960.6,1048.5h-19.1l4.1-63.6h19.1L960.6,1048.5z M964.1,918.2h-18.1l3.8-63.6H968L964.1,918.2z
						 M991.1,1233.9h-19.9l4.2-63.6h19.9L991.1,1233.9z M1001.3,1048.5h-19.1l4.1-63.6h19.1L1001.3,1048.5z M1002.6,918.2h-18.1
						l3.8-63.6h18.1L1002.6,918.2z M1033.6,1233.9h-19.9l4.2-63.6h19.9L1033.6,1233.9z M1042.1,1048.5h-19.1l4.1-63.6h19.1
						L1042.1,1048.5z M1076,1233.9h-19.9l4.2-63.6h19.9L1076,1233.9z M1082.8,1048.5h-19.1l4.1-63.6h19.1L1082.8,1048.5z
						 M1132.3,1233.9h-33.9l4.2-63.6h31.6L1132.3,1233.9z M1137,1048.5h-32.5l4.1-63.6h30.4L1137,1048.5z M1152.9,854.5h10.7
						l0.2,63.6H1151L1152.9,854.5z M1154.8,1233.9l2-63.6h11.8l0.2,63.6H1154.8z M1158.5,1048.5l1.9-63.6h11.4l0.2,63.6H1158.5z
						 M1184,854.5h20.6l0.2,63.6h-20.6L1184,854.5z M1191.4,1233.9l-0.2-63.6h22.7l0.2,63.6H1191.4z M1193.7,1048.5l-0.2-63.6h21.8
						l0.2,63.6H1193.7z M1225,854.5h20.6l0.2,63.6h-20.6L1225,854.5z M1236.6,1233.9l-0.2-63.6h22.7l0.2,63.6H1236.6z"/>
					<polygon class="st9" points="860.6,918.2 872.2,918.2 882.2,854.5 870.5,854.5 					"/>
					<polygon class="st9" points="892.9,918.2 925.7,918.2 929.5,854.5 902.8,854.5 					"/>
					<path class="st9" d="M849.9,854.5h-11.6l-8.5,54.8c-0.1,2.9-0.2,5.9-0.3,8.8H840L849.9,854.5z"/>
					<polygon class="st9" points="1644.9,918.2 1634.6,854.5 1579.1,854.5 1585.3,918.2 					"/>
					<polygon class="st9" points="946.1,918.2 964.1,918.2 968,854.5 949.9,854.5 					"/>
					<polygon class="st9" points="1388.9,854.5 1389.1,918.2 1406.9,918.2 1403.7,854.5 					"/>
					<polygon class="st9" points="1368.5,854.5 1347.9,854.5 1348.1,918.2 1368.7,918.2 					"/>
					<polygon class="st9" points="1327.5,854.5 1306.9,854.5 1307.1,918.2 1327.7,918.2 					"/>
					<polygon class="st9" points="1424.1,854.5 1427.3,918.2 1442.4,918.2 1439.1,854.5 					"/>
					<polygon class="st9" points="1564.9,918.2 1558.6,854.5 1507.3,854.5 1510.6,918.2 					"/>
					<polygon class="st9" points="1286.5,854.5 1265.9,854.5 1266.1,918.2 1286.8,918.2 					"/>
					<polygon class="st9" points="1490.2,918.2 1486.9,854.5 1459.5,854.5 1462.8,918.2 					"/>
					<polygon class="st9" points="1204.6,854.5 1184,854.5 1184.2,918.2 1204.8,918.2 					"/>
					<polygon class="st9" points="1245.6,854.5 1225,854.5 1225.2,918.2 1245.8,918.2 					"/>
					<polygon class="st9" points="1079.5,918.2 1083.4,854.5 1065.3,854.5 1061.5,918.2 					"/>
					<polygon class="st9" points="1041.1,918.2 1044.9,854.5 1026.9,854.5 1023,918.2 					"/>
					<polygon class="st9" points="1130.7,918.2 1132.5,854.5 1103.8,854.5 1100,918.2 					"/>
					<polygon class="st9" points="1163.6,854.5 1152.9,854.5 1151,918.2 1163.8,918.2 					"/>
					<polygon class="st9" points="984.5,918.2 1002.6,918.2 1006.4,854.5 988.4,854.5 					"/>
					<path class="st9" d="M873.7,984.8h-12.3l-10.3,62.2c0.1,0.5,0.3,0.9,0.4,1.4h11.7L873.7,984.8z"/>
					<polygon class="st9" points="885.1,1048.5 919.8,1048.5 923.9,984.8 895.6,984.8 					"/>
					<path class="st9" d="M835.1,984.8c0.9,3.8,1.7,7.6,2.6,11.4l1.9-11.4H835.1z"/>
					<path class="st9" d="M1611.9,984.8l6.7,63.6h58.2c1-3.6,2-7.2,3-10.9l-9-52.8H1611.9z"/>
					<polygon class="st9" points="941.5,1048.5 960.6,1048.5 964.6,984.8 945.5,984.8 					"/>
					<polygon class="st9" points="1426.1,984.8 1410.5,984.8 1410.7,1048.5 1429.6,1048.5 					"/>
					<polygon class="st9" points="1388.9,984.8 1367.1,984.8 1367.3,1048.5 1389.1,1048.5 					"/>
					<polygon class="st9" points="1345.5,984.8 1323.6,984.8 1323.9,1048.5 1345.7,1048.5 					"/>
					<polygon class="st9" points="1463.7,984.8 1447.7,984.8 1451.2,1048.5 1467.1,1048.5 					"/>
					<polygon class="st9" points="1539.3,1048.5 1596.9,1048.5 1590.2,984.8 1535.9,984.8 					"/>
					<polygon class="st9" points="1302.1,984.8 1280.2,984.8 1280.5,1048.5 1302.3,1048.5 					"/>
					<polygon class="st9" points="1514.3,984.8 1485.3,984.8 1488.7,1048.5 1517.7,1048.5 					"/>
					<polygon class="st9" points="1193.4,984.8 1193.7,1048.5 1215.5,1048.5 1215.2,984.8 					"/>
					<polygon class="st9" points="1237.1,1048.5 1258.9,1048.5 1258.7,984.8 1236.8,984.8 					"/>
					<polygon class="st9" points="1063.7,1048.5 1082.8,1048.5 1086.9,984.8 1067.8,984.8 					"/>
					<polygon class="st9" points="1022.9,1048.5 1042.1,1048.5 1046.1,984.8 1027,984.8 					"/>
					<polygon class="st9" points="1104.4,1048.5 1137,1048.5 1138.9,984.8 1108.5,984.8 					"/>
					<polygon class="st9" points="1160.5,984.8 1158.5,1048.5 1172.1,1048.5 1171.8,984.8 					"/>
					<polygon class="st9" points="982.2,1048.5 1001.3,1048.5 1005.4,984.8 986.3,984.8 					"/>
					<path class="st9" d="M903.4,1170.3c2.1,3.1,4.3,6.3,6.5,9.3l0.6-9.3H903.4z"/>
					<path class="st9" d="M933,1170.3l-2.4,36c6,7.1,12.1,14,18.5,20.7l3.8-56.7H933z"/>
					<polygon class="st9" points="1417.1,1170.3 1417.3,1233.9 1437,1233.9 1433.4,1170.3 					"/>
					<polygon class="st9" points="1371.9,1170.3 1372.1,1233.9 1394.8,1233.9 1394.6,1170.3 					"/>
					<polygon class="st9" points="1326.7,1170.3 1326.9,1233.9 1349.7,1233.9 1349.4,1170.3 					"/>
					<polygon class="st9" points="1455.9,1170.3 1459.5,1233.9 1476.1,1233.9 1472.5,1170.3 					"/>
					<path class="st9" d="M1547.7,1170.3l3.6,63.6h15.9c14-14,27.1-29,39.1-44.9l-2-18.7H1547.7z"/>
					<polygon class="st9" points="1281.5,1170.3 1281.7,1233.9 1304.5,1233.9 1304.2,1170.3 					"/>
					<polygon class="st9" points="1495,1170.3 1498.6,1233.9 1528.8,1233.9 1525.2,1170.3 					"/>
					<polygon class="st9" points="1191.1,1170.3 1191.4,1233.9 1214.1,1233.9 1213.9,1170.3 					"/>
					<polygon class="st9" points="1236.3,1170.3 1236.6,1233.9 1259.3,1233.9 1259,1170.3 					"/>
					<polygon class="st9" points="1056.1,1233.9 1076,1233.9 1080.2,1170.3 1060.3,1170.3 					"/>
					<polygon class="st9" points="1013.6,1233.9 1033.6,1233.9 1037.8,1170.3 1017.9,1170.3 					"/>
					<polygon class="st9" points="1098.5,1233.9 1132.3,1233.9 1134.3,1170.3 1102.7,1170.3 					"/>
					<polygon class="st9" points="1156.8,1170.3 1154.8,1233.9 1168.9,1233.9 1168.7,1170.3 					"/>
					<polygon class="st9" points="971.2,1233.9 991.1,1233.9 995.4,1170.3 975.5,1170.3 					"/>
					<path class="st12" d="M1380.5,512.6h-237.9c-8.8,2.5-17.5,5.3-26,8.3h290C1398,517.9,1389.3,515.1,1380.5,512.6z"/>
					<path class="st12" d="M1456.1,542.1H1067c-5.3,2.7-10.5,5.5-15.7,8.3h420.5C1466.6,547.6,1461.4,544.8,1456.1,542.1z"/>
					<path class="st12" d="M1022.9,580.1h494.8c-3.9-2.8-7.8-5.6-11.7-8.3h-483.1V580.1z"/>
					<path class="st12" d="M1022.9,609.6h530.7c-3.1-2.8-6.2-5.6-9.3-8.3h-521.3V609.6z"/>
					<rect x="1022.9" y="637.8" class="st12" width="434.5" height="8.3"/>
				</g>
				<g>
					<g>
						<path class="st17" d="M1781.7,1329.5c-7.7,0-15.5-2.3-22.3-7l-138-96.2c-17.7-12.3-22-36.6-9.7-54.3s36.6-22,54.3-9.7
							l138,96.2c17.7,12.3,22,36.6,9.7,54.3C1806.2,1323.6,1794,1329.5,1781.7,1329.5z"/>
					</g>
					<g>
						<path class="st5" d="M1260.4,1395.1c-63.6,0-125.3-12.5-183.4-37c-56.1-23.7-106.5-57.7-149.8-101
							c-43.3-43.3-77.2-93.7-101-149.8c-24.6-58.1-37-119.8-37-183.4c0-63.6,12.5-125.3,37-183.4c23.7-56.1,57.7-106.5,101-149.8
							c43.3-43.3,93.7-77.2,149.8-101c58.1-24.6,119.8-37,183.4-37s125.3,12.5,183.4,37c56.1,23.7,106.5,57.7,149.8,101
							c43.3,43.3,77.2,93.7,101,149.8c24.6,58.1,37,119.8,37,183.4c0,63.6-12.5,125.3-37,183.4c-23.7,56.1-57.7,106.5-101,149.8
							s-93.7,77.2-149.8,101C1385.7,1382.7,1324,1395.1,1260.4,1395.1z M1260.4,530.7c-53.1,0-104.6,10.4-153,30.9
							c-46.8,19.8-88.9,48.2-125,84.3c-36.1,36.1-64.5,78.2-84.3,125c-20.5,48.5-30.9,99.9-30.9,153s10.4,104.6,30.9,153
							c19.8,46.8,48.2,88.9,84.3,125c36.1,36.1,78.2,64.5,125,84.3c48.5,20.5,99.9,30.9,153,30.9s104.6-10.4,153-30.9
							c46.8-19.8,88.9-48.2,125-84.3s64.5-78.2,84.3-125c20.5-48.5,30.9-99.9,30.9-153s-10.4-104.6-30.9-153
							c-19.8-46.8-48.2-88.9-84.3-125s-78.2-64.5-125-84.3C1365,541.1,1313.5,530.7,1260.4,530.7z"/>
					</g>
					<path class="st18" d="M1677,703.5c-21.9-41.5-49.9-79.3-83.4-112.9c-16.5-16.5-34.1-31.7-52.6-45.4
						c-10.2-7.6-24.6-5.6-32.5,4.4l0,0c-8.3,10.5-6.3,25.7,4.4,33.7c16.6,12.3,32.4,26,47.2,40.8c30.2,30.2,55.4,64.3,75.1,101.6
						c6.9,13,23.9,16.5,35.4,7.5h0C1679.7,726.2,1682.4,713.7,1677,703.5z"/>
					<path class="st19" d="M1560.1,624.1c-38.9-38.9-84.3-69.5-134.7-90.8c-52.3-22.1-107.8-33.3-165-33.3s-112.7,11.2-165,33.3
						c-50.5,21.4-95.8,51.9-134.7,90.8c-38.9,38.9-69.5,84.3-90.8,134.7c-22.1,52.3-33.3,107.8-33.3,165c0,57.2,11.2,112.7,33.3,165
						c21.4,50.5,51.9,95.8,90.8,134.7c38.9,38.9,84.3,69.5,134.7,90.8c52.3,22.1,107.8,33.3,165,33.3s112.7-11.2,165-33.3
						c50.5-21.4,95.8-51.9,134.7-90.8s69.5-84.3,90.8-134.7c22.1-52.3,33.3-107.8,33.3-165c0-57.2-11.2-112.7-33.3-165
						C1629.6,708.4,1599.1,663.1,1560.1,624.1z M1622.7,1076.9c-19.8,46.8-48.2,88.9-84.3,125s-78.2,64.5-125,84.3
						c-48.5,20.5-99.9,30.9-153,30.9s-104.6-10.4-153-30.9c-46.8-19.8-88.9-48.2-125-84.3c-36.1-36.1-64.5-78.2-84.3-125
						c-20.5-48.5-30.9-99.9-30.9-153s10.4-104.6,30.9-153c19.8-46.8,48.2-88.9,84.3-125c36.1-36.1,78.2-64.5,125-84.3
						c48.5-20.5,99.9-30.9,153-30.9s104.6,10.4,153,30.9c46.8,19.8,88.9,48.2,125,84.3s64.5,78.2,84.3,125
						c20.5,48.5,30.9,99.9,30.9,153S1643.2,1028.5,1622.7,1076.9z"/>
					<g>
						<g>
							<polygon class="st20" points="2181.9,1089.1 2272,1068.7 2272,1139.5 							"/>
							<path class="st21" d="M2272,1101.7l-77-22c-11.2-3.2-23.1-3.7-34.5-1.4c-34.3,7.1-65.7,24.9-89.5,51.1L1829.9,1395l-7.2,82
								c-1.3,14.3,1.7,28.7,8.5,41.3l45.9,84.9c10.1,18.7,29.6,30.3,50.9,30.3h37.9l44.5,77.4c9.4,16.3,25.2,28,43.6,32.1l69.8,15.5
								l25.9,33.7c14.7,19.1,36.5,31.4,60.5,34.1l61.9,6.8V1101.7z"/>
							<path class="st20" d="M1959.8,1633.6h6.1l15.1,26.2c46.4-17.5,135.3-52.9,135.3-52.9
								C2071.3,1619.3,2005.4,1628.6,1959.8,1633.6z"/>
							<path class="st20" d="M2107.8,1755.1l16,3.6l13.3,17.3c48.2-18.5,118.8-46.6,118.8-46.6
								C2213.6,1741,2152.8,1749.9,2107.8,1755.1z"/>
							<path class="st20" d="M1935.9,1473c0,3.1,2,18.7,3.9,32.3c1.7,12.5,11.8,22.1,24.3,23.3l66.2,6.2L1935.9,1473z"/>
							<path class="st20" d="M2083.8,1576.1c0,3.1,2,18.7,3.9,32.3c1.7,12.5,11.8,22.1,24.3,23.3l66.2,6.2L2083.8,1576.1z"/>
							<path class="st20" d="M2178.2,1630.7c0,3.1,2,18.7,3.9,32.3c1.7,12.5,11.8,22.1,24.3,23.3l66.2,6.2L2178.2,1630.7z"/>
							<path class="st20" d="M2257.2,1276.8l-29.5,26.9c-32.3-9.1-93.9-4.3-143.9,2.5c97.9,36.5,188.2,95.1,188.2,95.1v-98.5
								L2257.2,1276.8z"/>
							<path class="st22" d="M2575.2,1887.5c-16,0-32.2-4.5-46.6-13.8l-805.4-520.9c-39.9-25.8-51.3-79-25.5-118.9
								c25.8-39.9,79-51.3,118.9-25.5l805.4,520.9c39.9,25.8,51.3,79,25.5,118.9C2631.1,1873.6,2603.4,1887.5,2575.2,1887.5z"/>
						</g>
						<path class="st23" d="M1684,1278.2c-0.8,29,13.1,57.7,39.3,74.6l805.4,520.9c14.4,9.3,30.6,13.8,46.6,13.8
							c15.5,0,30.9-4.2,44.3-12.2L1684,1278.2z"/>
						<path class="st24" d="M2229.6,1541.2l-481.8-299.6c-8.8-5.5-20.5-2.6-25.8,6.3l0,0c-5.1,8.7-2.4,19.8,6.2,25.2l481.5,300.2
							c8.5,5.3,19.7,2.9,25.3-5.5l0.4-0.6C2241,1558.6,2238.5,1546.8,2229.6,1541.2z"/>
					</g>
				</g>
				<ellipse class="st25" cx="1388.9" cy="666.6" rx="79.1" ry="62.1"/>
				<polygon class="st25" points="1511.9,692 956.8,1100.5 979.8,1128.5 1536.1,728 				"/>
				<polygon class="st25" points="1575.2,742.7 1020.1,1151.2 1043.1,1179.3 1599.4,778.7 				"/>
				<path class="st21" d="M2272,1401.3c0,0-316-205.2-407.2-86.9c-91.1,118.3,175.5,118.3,307.8,304.1l99.4,193.2V1401.3z"/>
				<path class="st20" d="M2272,1460.4v-59.1c0,0-316-205.2-407.2-86.9C1864.8,1314.4,2048.3,1286.8,2272,1460.4z"/>
				<path class="st20" d="M1973.5,1339.1l0.5,5.3c3.1,30.5-7.3,60.7-28.5,82.9l0,0c0,0-104.1-32.4-87.9-88.2
					C1864.8,1314.4,1930.1,1314.4,1973.5,1339.1z"/>
				<path class="st20" d="M2083.8,1381.2c0,0-45.9,32.7-45.9,91.8C2038,1473,2020.4,1410.7,2083.8,1381.2z"/>
				<path class="st20" d="M2095.3,1388.8c0,0-45.9,32.7-45.9,91.8C2049.4,1480.7,2031.8,1418.3,2095.3,1388.8z"/>
				<path class="st20" d="M2107.9,1395.1c0,0-45.9,32.7-45.9,91.8C2062,1487,2044.4,1424.6,2107.9,1395.1z"/>
				<path class="st20" d="M1965.9,1633.6v-50.8c0,0,75.1-37,105.3,34.4L1965.9,1633.6z"/>
			</g>
		</g>
		<ellipse class="st26" cx="88.7" cy="1467.1" rx="42.7" ry="37.9"/>
		<path class="st4" d="M352.7,823.6l115.5-387.9l-4.5-8.3l-1.2,1l-1.3,1.1l0,0l-6.5,5.5c0,0-97.7,268.1-139,379.5
			c-4,0.1-7.9,0.6-11.7,1.4l0,0c0,0,0,0,0,0c-0.5,0.1-1.1,0.2-1.6,0.4c-0.2,0.1-0.5,0.1-0.7,0.2c-0.5,0.1-1,0.3-1.5,0.4
			c-0.2,0.1-0.5,0.1-0.7,0.2c-0.5,0.1-1,0.3-1.6,0.5c-0.1,0-0.2,0.1-0.3,0.1c-1.1,0.4-2.2,0.7-3.3,1.1c-0.2,0.1-0.4,0.1-0.5,0.2
			c-0.5,0.2-1,0.4-1.4,0.6c-0.2,0.1-0.5,0.2-0.7,0.3c-0.5,0.2-0.9,0.4-1.4,0.6c-0.2,0.1-0.5,0.2-0.7,0.3c-1.5,0.7-3,1.5-4.5,2.3
			c-0.3,0.1-0.5,0.3-0.8,0.4c-0.4,0.2-0.8,0.5-1.2,0.7c-0.3,0.2-0.6,0.3-0.9,0.5c-0.4,0.2-0.8,0.5-1.1,0.7c-0.3,0.2-0.6,0.4-0.9,0.6
			c-0.6,0.4-1.1,0.8-1.7,1.2c-0.4,0.3-0.7,0.5-1.1,0.8c-0.3,0.2-0.6,0.5-1,0.7c-0.3,0.2-0.6,0.5-0.9,0.7c-0.3,0.2-0.6,0.5-0.9,0.8
			c-0.3,0.3-0.6,0.5-1,0.8c-0.3,0.2-0.6,0.5-0.9,0.7c-0.4,0.4-0.8,0.8-1.3,1.1c-0.3,0.3-0.6,0.6-0.9,0.9c-0.4,0.4-0.8,0.8-1.2,1.2
			c-0.2,0.2-0.5,0.5-0.7,0.7c-0.3,0.3-0.7,0.7-1,1.1c-0.2,0.3-0.5,0.5-0.7,0.8c-0.3,0.4-0.7,0.8-1,1.2c-0.2,0.2-0.4,0.4-0.6,0.7
			c-0.5,0.6-1,1.2-1.5,1.8c-0.1,0.2-0.3,0.4-0.4,0.5c-0.4,0.5-0.7,1-1.1,1.4c-0.2,0.2-0.3,0.5-0.5,0.7c-0.3,0.4-0.6,0.9-0.9,1.4
			c-0.2,0.2-0.3,0.5-0.5,0.7c-0.3,0.5-0.7,1.1-1,1.7c-0.1,0.2-0.2,0.3-0.3,0.4c-0.4,0.7-0.8,1.4-1.2,2.1c-0.1,0.2-0.2,0.4-0.3,0.6
			c-0.3,0.5-0.6,1.1-0.8,1.6c-0.1,0.3-0.3,0.5-0.4,0.8c-0.3,0.5-0.5,1.1-0.7,1.6c-0.1,0.2-0.2,0.5-0.3,0.7c-0.3,0.8-0.7,1.6-1,2.3
			l-9.4,23.9l0,0L51.8,1375.9l0,0l-23.1,59c-3.6,13.4-4.4,26.8-2.7,39.6c0,0,0,0,0,0c0.1,0.8,0.2,1.5,0.3,2.2c0,0.1,0,0.1,0,0.2
			c0.1,0.7,0.2,1.5,0.4,2.2c0,0,0,0,0,0c0.7,3.8,1.6,7.6,2.6,11.3c0,0.1,0,0.2,0.1,0.2c0.2,0.7,0.4,1.4,0.6,2.1c0,0.1,0,0.1,0.1,0.2
			c0.9,2.9,2,5.8,3.2,8.6c0,0,0,0,0,0c0.3,0.6,0.6,1.3,0.8,1.9c0.1,0.1,0.1,0.2,0.2,0.3c0.3,0.6,0.6,1.2,0.8,1.8
			c0.1,0.1,0.1,0.2,0.2,0.4c0.3,0.6,0.6,1.2,0.9,1.8c0,0,0,0.1,0,0.1c1,2,2.1,4,3.3,5.9c0,0,0.1,0.1,0.1,0.1c0.3,0.6,0.7,1.1,1,1.6
			c0.1,0.2,0.2,0.3,0.3,0.5c0.3,0.5,0.7,1,1,1.5c0.1,0.2,0.2,0.4,0.4,0.5c0.3,0.5,0.7,1,1,1.5c0.1,0.1,0.2,0.3,0.3,0.4
			c1.2,1.7,2.4,3.3,3.7,5c0.1,0.1,0.2,0.2,0.3,0.4c0.4,0.4,0.7,0.9,1.1,1.3c0.2,0.2,0.3,0.4,0.5,0.6c0.3,0.4,0.7,0.8,1,1.2
			c0.2,0.2,0.4,0.5,0.6,0.7c0.4,0.4,0.7,0.8,1.1,1.2c0.2,0.2,0.4,0.4,0.6,0.7c0.4,0.4,0.7,0.8,1.1,1.2c0.2,0.2,0.3,0.3,0.5,0.5
			c0.7,0.8,1.5,1.5,2.3,2.3c0.2,0.2,0.4,0.4,0.6,0.6c0.4,0.3,0.7,0.7,1.1,1c0.3,0.2,0.5,0.5,0.8,0.7c0.3,0.3,0.7,0.6,1,0.9
			c0.3,0.3,0.6,0.5,0.9,0.8c0.3,0.3,0.7,0.6,1,0.9c0.3,0.3,0.6,0.5,0.9,0.8c0.3,0.3,0.7,0.6,1,0.8c0.4,0.3,0.7,0.6,1.1,0.8
			c0.5,0.4,1,0.8,1.5,1.2c0.4,0.3,0.9,0.7,1.4,1c0.3,0.2,0.6,0.5,1,0.7c0.4,0.3,0.8,0.5,1.1,0.8c0.3,0.2,0.7,0.5,1,0.7
			c0.4,0.3,0.8,0.5,1.1,0.8c0.3,0.2,0.7,0.4,1,0.7c0.4,0.3,0.8,0.5,1.2,0.8c0.3,0.2,0.7,0.4,1,0.6c0.5,0.3,1,0.6,1.4,0.8
			c0.3,0.2,0.5,0.3,0.8,0.5c0.7,0.4,1.5,0.8,2.2,1.2c0.3,0.1,0.6,0.3,0.8,0.4c0.5,0.3,1,0.5,1.5,0.8c0.3,0.2,0.6,0.3,1,0.5
			c0.5,0.2,0.9,0.5,1.4,0.7c0.3,0.2,0.7,0.3,1,0.5c0.5,0.2,1,0.4,1.5,0.6c0.3,0.1,0.6,0.3,1,0.4c0.6,0.2,1.1,0.5,1.7,0.7
			c0.3,0.1,0.5,0.2,0.8,0.3c0.8,0.3,1.6,0.6,2.4,0.9c0.2,0.1,0.4,0.2,0.7,0.2c0.6,0.2,1.2,0.4,1.9,0.7c0.3,0.1,0.6,0.2,0.9,0.3
			c0.5,0.2,1.1,0.3,1.6,0.5c0.3,0.1,0.7,0.2,1,0.3c0.5,0.2,1.1,0.3,1.6,0.5c0.3,0.1,0.7,0.2,1,0.3c0.6,0.2,1.2,0.3,1.8,0.5
			c0.3,0.1,0.5,0.1,0.8,0.2c0.9,0.2,1.8,0.4,2.6,0.6c0.1,0,0.3,0.1,0.4,0.1c0.8,0.2,1.5,0.3,2.3,0.4c0.3,0.1,0.6,0.1,0.9,0.2
			c0.6,0.1,1.2,0.2,1.8,0.3c0.3,0.1,0.7,0.1,1,0.2c0.6,0.1,1.2,0.2,1.8,0.2c0.3,0,0.7,0.1,1,0.1c0.6,0.1,1.3,0.1,1.9,0.2
			c0.3,0,0.6,0.1,0.9,0.1c0.9,0.1,1.9,0.2,2.8,0.2h0c1.4,0.1,2.8,0.1,4.2,0.2c0.5,0,1,0,1.6,0c0.8,0,1.7,0,2.5,0c0.7,0,1.3,0,2-0.1
			c0.6,0,1.3-0.1,1.9-0.1c0.8,0,1.6-0.1,2.4-0.1c0.4,0,0.8-0.1,1.1-0.1c4.6-0.4,9.1-1.1,13.5-2.1h0l0,0
			c36.5-8.2,66.7-36.1,76.8-73.8l157.2-587.3C393,869.6,378.5,838.5,352.7,823.6z"/>
		<g>
			<path class="st10" d="M277.8,837.9c4.8-9.5,157-426.9,157-426.9l8.9-7.6l4.5,8.3L318.2,848.1L277.8,837.9z"/>
			<polygon class="st12" points="441.2,405.5 296,842.5 318.2,848.1 448.2,411.7 443.7,403.4 			"/>
			<path class="st22" d="M302.7,790.6L302.7,790.6c-29.8-1.9-57.3,15.7-68.2,43.4L8.7,1410.9c-16.8,62.7,28,125.1,92.9,129.3h0
				c48.9,3.1,93.2-28.7,105.9-76.1l157.2-587.3C375.8,834.9,345.9,793.3,302.7,790.6z"/>
			<path class="st27" d="M284.1,791.9c-22.2,4.7-41,20.2-49.6,42.1L20.2,1381.4C36.3,1372.6,51,1368,51,1368L284.1,791.9z"/>
			<path class="st28" d="M56.5,1332.9l180.1-454.1c3.4-8.5-1.4-18-10.2-20.4l-1.3-0.3L31.8,1351.9
				C42.9,1350.5,52.4,1343.3,56.5,1332.9z"/>
			<path class="st28" d="M185.7,1463.1c0-45-41.2-81.6-91.9-81.6c-42.1,0-77.6,25.1-88.5,59.4c1.7,51.3,42,95.7,96.3,99.2h0
				c10,0.6,19.8-0.2,29.1-2.3C163,1525.2,185.7,1496.5,185.7,1463.1z"/>
			<ellipse class="st28" cx="93.7" cy="1463.1" rx="63.4" ry="56.3"/>
			<ellipse class="st10" cx="93.7" cy="1463.1" rx="54.2" ry="48.1"/>
			<path class="st28" d="M311.5,880.3l-175.3,480.2c-2.7,7.3,0.9,15.4,8.1,18.3l18.9,7.7c7.8,3.2,16.6-1,19.2-9l156.4-487.9
				c2.3-7.1-1.2-14.8-8.1-17.7h0C323,868.8,314.3,872.6,311.5,880.3z"/>
			<path class="st28" d="M280.3,855.5L280.3,855.5c-5-1.1-10.1,1.6-12,6.3L74.9,1341.4c-2.6,6.4,1.6,13.5,8.4,14.3l24.3,3
				c4.9,0.6,9.6-2.3,11.2-6.9l169.1-482.7C290,863.3,286.4,856.9,280.3,855.5z"/>
		</g>
		<path class="st4" d="M41.3,1043.8L241.4,692l-2.5-9.1l-2.5,1.3l-0.4,0.2l0,0l-7.5,3.9c0,0-155.8,239.1-221.1,338.3
			c-3.9-0.7-7.8-1.2-11.7-1.2l0,0c0,0,0,0,0,0c-0.6,0-1.1,0-1.6,0c-0.2,0-0.5,0-0.7,0c-0.5,0-1.1,0-1.6,0c-0.2,0-0.5,0-0.7,0
			c-0.5,0-1.1,0.1-1.6,0.1c-0.1,0-0.2,0-0.3,0c-1.2,0.1-2.3,0.2-3.5,0.4c-0.2,0-0.4,0-0.6,0.1c-0.5,0.1-1,0.2-1.5,0.2
			c-0.3,0-0.5,0.1-0.8,0.1c-0.5,0.1-1,0.2-1.5,0.3c-0.3,0.1-0.5,0.1-0.8,0.2c-1.6,0.3-3.3,0.7-4.9,1.2c-0.3,0.1-0.6,0.2-0.9,0.3
			c-0.4,0.1-0.9,0.3-1.3,0.4c-0.3,0.1-0.6,0.2-1,0.3c-0.4,0.1-0.9,0.3-1.3,0.4c-0.3,0.1-0.7,0.2-1,0.4c-0.6,0.2-1.3,0.5-1.9,0.8
			c-0.4,0.2-0.8,0.3-1.3,0.5c-0.4,0.2-0.7,0.3-1.1,0.5c-0.4,0.2-0.7,0.3-1.1,0.5c-0.4,0.2-0.7,0.3-1.1,0.5c-0.4,0.2-0.8,0.4-1.1,0.6
			c-0.3,0.2-0.7,0.3-1,0.5c-0.5,0.3-1,0.6-1.5,0.8c-0.4,0.2-0.7,0.4-1.1,0.7c-0.5,0.3-1,0.6-1.4,0.9c-0.3,0.2-0.6,0.4-0.9,0.6
			c-0.4,0.3-0.8,0.5-1.2,0.8c-0.3,0.2-0.6,0.4-0.8,0.6c-0.4,0.3-0.8,0.6-1.3,0.9c-0.2,0.2-0.5,0.3-0.7,0.5c-0.6,0.5-1.2,1-1.9,1.5
			c-0.2,0.1-0.3,0.3-0.5,0.4c-0.5,0.4-0.9,0.8-1.4,1.2c-0.2,0.2-0.4,0.4-0.7,0.6c-0.4,0.4-0.8,0.7-1.2,1.1c-0.2,0.2-0.4,0.4-0.6,0.6
			c-0.5,0.5-0.9,0.9-1.4,1.4c-0.1,0.1-0.2,0.2-0.4,0.4c-0.6,0.6-1.1,1.2-1.7,1.8c-0.2,0.2-0.3,0.4-0.5,0.5c-0.4,0.5-0.8,0.9-1.2,1.4
			c-0.2,0.2-0.4,0.4-0.5,0.7c-0.4,0.5-0.7,0.9-1.1,1.4c-0.2,0.2-0.3,0.4-0.5,0.6c-0.5,0.7-1,1.4-1.5,2.1l-14.5,21.2l0,0
			l-299.9,437.5h0l-35.8,52.3c-4.9,9.2-8.3,18.8-10.2,28.5l0,0c0,0,0,0,0,0c-0.6,3.1-1.1,6.3-1.4,9.4c0,0,0,0,0,0
			c-0.1,0.8-0.1,1.5-0.2,2.3c0,0.1,0,0.1,0,0.2c-0.1,0.7-0.1,1.5-0.1,2.2c0,0,0,0,0,0.1c-0.2,3.9-0.2,7.7,0,11.6c0,0.1,0,0.2,0,0.2
			c0,0.7,0.1,1.4,0.2,2.2c0,0.1,0,0.1,0,0.2c0.3,3.1,0.7,6.1,1.2,9.1c0,0,0,0,0,0c0.1,0.7,0.3,1.4,0.4,2.1c0,0.1,0,0.2,0.1,0.4
			c0.1,0.7,0.3,1.3,0.4,2c0,0.1,0.1,0.3,0.1,0.4c0.2,0.7,0.3,1.3,0.5,2c0,0,0,0.1,0,0.1c0.5,2.2,1.2,4.4,1.8,6.5c0,0.1,0,0.1,0,0.2
			c0.2,0.6,0.4,1.2,0.6,1.8c0.1,0.2,0.1,0.4,0.2,0.5c0.2,0.6,0.4,1.1,0.6,1.7c0.1,0.2,0.1,0.4,0.2,0.6c0.2,0.6,0.4,1.1,0.7,1.7
			c0.1,0.2,0.1,0.3,0.2,0.5c0.8,1.9,1.6,3.8,2.5,5.7c0.1,0.1,0.1,0.3,0.2,0.4c0.2,0.5,0.5,1,0.8,1.5c0.1,0.2,0.2,0.5,0.4,0.7
			c0.2,0.5,0.5,1,0.7,1.4c0.1,0.3,0.3,0.5,0.4,0.8c0.3,0.5,0.5,0.9,0.8,1.4c0.1,0.3,0.3,0.5,0.4,0.8c0.3,0.5,0.5,0.9,0.8,1.4
			c0.1,0.2,0.2,0.4,0.3,0.6c0.6,0.9,1.1,1.8,1.7,2.8c0.2,0.2,0.3,0.5,0.5,0.7c0.3,0.4,0.5,0.8,0.8,1.2c0.2,0.3,0.4,0.6,0.6,0.9
			c0.3,0.4,0.5,0.8,0.8,1.2c0.2,0.3,0.4,0.6,0.7,0.9c0.3,0.4,0.5,0.7,0.8,1.1c0.2,0.3,0.5,0.6,0.7,1c0.3,0.4,0.5,0.7,0.8,1.1
			c0.3,0.4,0.6,0.7,0.8,1.1c0.4,0.5,0.8,1,1.2,1.5c0.4,0.4,0.7,0.9,1.1,1.3c0.3,0.3,0.5,0.6,0.8,0.9c0.3,0.3,0.6,0.7,0.9,1
			c0.3,0.3,0.6,0.6,0.8,0.9c0.3,0.3,0.6,0.7,0.9,1c0.3,0.3,0.6,0.6,0.8,0.9c0.3,0.3,0.7,0.7,1,1c0.3,0.3,0.5,0.5,0.8,0.8
			c0.4,0.4,0.8,0.8,1.2,1.1c0.2,0.2,0.4,0.4,0.7,0.6c0.6,0.6,1.2,1.1,1.9,1.7c0.2,0.2,0.5,0.4,0.7,0.6c0.4,0.4,0.9,0.7,1.3,1.1
			c0.3,0.2,0.6,0.5,0.8,0.7c0.4,0.3,0.8,0.7,1.2,1c0.3,0.2,0.6,0.5,0.9,0.7c0.4,0.3,0.8,0.6,1.3,1c0.3,0.2,0.6,0.4,0.8,0.6
			c0.5,0.4,1,0.7,1.5,1c0.2,0.2,0.5,0.3,0.7,0.5c0.7,0.5,1.4,1,2.2,1.5c0.2,0.1,0.4,0.2,0.6,0.4c0.6,0.4,1.1,0.7,1.7,1.1
			c0.3,0.2,0.6,0.3,0.8,0.5c0.5,0.3,1,0.6,1.5,0.9c0.3,0.2,0.6,0.4,0.9,0.5c0.5,0.3,1,0.6,1.5,0.8c0.3,0.2,0.6,0.3,0.9,0.5
			c0.6,0.3,1.1,0.6,1.7,0.9c0.2,0.1,0.5,0.3,0.7,0.4c0.8,0.4,1.6,0.8,2.4,1.2c0.1,0.1,0.3,0.1,0.4,0.2c0.7,0.3,1.4,0.6,2.1,0.9
			c0.3,0.1,0.6,0.2,0.9,0.4c0.6,0.2,1.1,0.5,1.7,0.7c0.3,0.1,0.6,0.3,1,0.4c0.6,0.2,1.1,0.4,1.7,0.6c0.3,0.1,0.6,0.2,1,0.4
			c0.6,0.2,1.2,0.4,1.8,0.6c0.3,0.1,0.6,0.2,0.8,0.3c0.9,0.3,1.8,0.6,2.7,0.8l0,0c1.3,0.4,2.7,0.8,4,1.1c0.5,0.1,1,0.2,1.5,0.4
			c0.8,0.2,1.6,0.4,2.5,0.6c0.7,0.1,1.3,0.3,2,0.4c0.6,0.1,1.3,0.2,1.9,0.3c0.8,0.1,1.6,0.3,2.3,0.4c0.4,0.1,0.8,0.1,1.1,0.2
			c42.2,5.9,84.5-14.9,105.1-53.5L55,1126.2C70.1,1097.7,63.1,1064.2,41.3,1043.8z"/>
		<g>
			<path class="st10" d="M-43.2,1024.6c7.1-7.9,261.5-372.2,261.5-372.2l10.6-5.1l2.2,9.2L-6.7,1044.9L-43.2,1024.6z"/>
			<polygon class="st12" points="226,648.8 -26.7,1033.8 -6.7,1044.9 231.1,656.5 228.9,647.3 			"/>
			<path class="st22" d="M-6.9,985.3L-6.9,985.3c-28.3-9.5-59.4,0.4-77.1,24.4l-366.5,499.4c-32.4,56.3-5.1,128.1,56.5,148.8h0
				c46.5,15.6,97.5-3.8,121.9-46.3l302.9-527.2C52.3,1046.9,34.1,999-6.9,985.3z"/>
			<path class="st27" d="M-25.3,981.8c-22.6-1.1-44.9,9-58.7,27.9l-347.8,473.9c17.8-4.4,33.2-5,33.2-5L-25.3,981.8z"/>
			<path class="st28" d="M-384.3,1446l290.8-392.5c5.4-7.3,3.3-17.8-4.6-22.4l-1.1-0.7L-413.1,1458
				C-402,1459.6-390.9,1455-384.3,1446z"/>
			<path class="st28" d="M-293,1605.1c11.6-43.5-18.8-89.4-67.9-102.5c-40.7-10.8-81.4,4.3-100.8,34.6
				c-11.6,50,15.9,103.3,67.6,120.6h0c9.5,3.2,19.1,4.9,28.7,5.3C-330.8,1659.3-301.6,1637.4-293,1605.1z"/>
			
				<ellipse transform="matrix(0.2572 -0.9664 0.9664 0.2572 -1811.9203 805.7932)" class="st28" cx="-381.8" cy="1581.5" rx="56.3" ry="63.4"/>
			
				<ellipse transform="matrix(0.2572 -0.9664 0.9664 0.2572 -1811.9203 805.7932)" class="st10" cx="-381.8" cy="1581.5" rx="48.1" ry="54.2"/>
			<path class="st28" d="M-21.5,1074.3l-292.9,419c-4.4,6.4-3.1,15.1,3.1,19.8l16.3,12.3c6.7,5.1,16.3,3.3,20.8-3.7L2.4,1090.3
				c4-6.3,2.6-14.6-3.3-19.2h0C-7.4,1066.1-16.8,1067.5-21.5,1074.3z"/>
			<path class="st28" d="M-45.3,1042.2L-45.3,1042.2c-4.6-2.4-10.1-1.1-13.2,3L-368.7,1459c-4.1,5.5-1.9,13.4,4.5,16l22.7,9.2
				c4.6,1.9,9.8,0.3,12.6-3.8l287.5-422.9C-37.9,1052.3-39.7,1045.1-45.3,1042.2z"/>
		</g>
	</g>
	<path class="st29" d="M443.7,403.4"/>
</g>
</svg>
