<svg id="_x33_0" enable-background="new 0 0 64 64" fill="white" height="512" viewBox="0 0 64 64" width="512" xmlns="http://www.w3.org/2000/svg"><g><path d="m28 15h2v8h-2z"/><path d="m26 25h6v2h-6z"/><path d="m25 11c-.552 0-1 .448-1 1s.448 1 1 1h1v-1c0-.552-.448-1-1-1z"/><path d="m34 12c0-.552-.448-1-1-1s-1 .448-1 1v1h1c.552 0 1-.448 1-1z"/><path d="m8 15h4c3.309 0 6 2.691 6 6v.016c2.237.188 4 2.068 4 4.354 0 2.009-1.36 3.752-3.31 4.238l-.656.165c.343 3.801 3.189 6.918 7.021 7.557l2.945.49v-4.921c-2.279-.465-4-2.484-4-4.899v-3.841c-.367-1.363-1.288-2.496-2.359-3.8-1.706-2.077-3.641-4.431-3.641-8.359 0-1.801.444-3.498 1.214-5h-16.214v3c0 2.757 2.243 5 5 5z"/><path d="m25.73 23h.27v-8h-1c-1.654 0-3-1.346-3-3s1.346-3 3-3 3 1.346 3 3v1h2v-1c0-1.654 1.346-3 3-3s3 1.346 3 3-1.346 3-3 3h-1v8h.27c.557-1.487 1.563-2.717 2.543-3.91 1.567-1.907 3.187-3.879 3.187-7.09 0-4.963-4.037-9-9-9s-9 4.037-9 9c0 3.211 1.62 5.183 3.187 7.09.98 1.193 1.986 2.423 2.543 3.91z"/><path d="m29 31c1.302 0 2.402-.839 2.816-2h-5.631c.413 1.161 1.513 2 2.815 2z"/><path d="m24.728 39.302c-5.058-.843-8.728-5.175-8.728-10.302v-.78l2.205-.552c1.057-.265 1.795-1.21 1.795-2.299 0-1.306-1.063-2.369-2.369-2.369h-1.631v-2c0-2.206-1.794-4-4-4h-4c-.664 0-1.305-.099-1.914-.273l-3.068 11.322c-.01.041-.018.105-.018.17 0 .43.351.781.781.781h1.219v4c0 3.309 2.691 6 6 6h7v6.535l-.445.297c-3.479 2.319-5.555 6.199-5.555 10.379v4.789h10v-12c0-3.309 2.691-6 6-6v-3.153z"/><path d="m28 45c-2.206 0-4 1.794-4 4v12h8v-12c0-2.206-1.794-4-4-4z"/><path d="m63 19v-14c0-1.103-.897-2-2-2h-10c-1.103 0-2 .897-2 2v3.22c-2.243-.795-4.586-1.22-7-1.22-1.036 0-2.071.098-3.094.248.293.608.531 1.245.708 1.909 3.174-.397 6.42.012 9.386 1.186v8.657c0 1.103.897 2 2 2h8.646c.885 2.227 1.354 4.575 1.354 7 0 5.55-2.361 10.706-6.515 14.321l-1.103-1.924-2.393 1.409-.006-2.806h-5.967l.024 2.789.008.014-.014.008-2.418-1.413-2.979 5.198 2.435 1.395-.016.009h-.056c-4.381 0-8.619-1.527-12-4.287v.642c1.795.637 3.201 2.099 3.748 3.935 1.958.837 4.036 1.383 6.168 1.601l2.701 4.712 2.399-1.411v2.808h5.967l-.019-2.811 2.418 1.413 2.979-5.198-2.417-1.404 2.418-1.404-.867-1.513c4.778-4.006 7.505-9.815 7.505-16.083 0-2.465-.444-4.856-1.273-7.142.743-.292 1.273-1.012 1.273-1.858zm-15 30c-1.105 0-2-.895-2-2s.895-2 2-2 2 .895 2 2-.895 2-2 2zm11-32h-6v-2h6zm0-4h-6v-2h6zm0-4h-6v-2h6z"/><circle cx="39" cy="28" r="3"/><circle cx="47" cy="28" r="3"/><circle cx="55" cy="28" r="3"/></g></svg>