<svg height="512" fill="white" viewBox="0 0 64 64" width="512" xmlns="http://www.w3.org/2000/svg"><g id="project-present-pencil-graph-business"><path d="m55 58.12 3.07-1.12-3.07-1.12z"/><path d="m35.614 26.79-1.228-1.58 3.667-2.851a8.976 8.976 0 0 0 -14.821 4.641h8.768a1 1 0 0 1 .707.293l6.746 6.746a8.964 8.964 0 0 0 -.075-10.177z"/><path d="m51 59.57 2-.73v-3.68l-2-.73z"/><path d="m10 58h39v2h-39z"/><path d="m23 29a8.986 8.986 0 0 0 15.144 6.558l-6.558-6.558z"/><path d="m10 54h39v2h-39z"/><path d="m4 57a3.009 3.009 0 0 0 3 3h1v-6h-1a3.009 3.009 0 0 0 -3 3z"/><path d="m56 45v-37h-48v37a3.009 3.009 0 0 0 3 3h42a3.009 3.009 0 0 0 3-3zm-46-34h12v2h-12zm0 4h12v2h-12zm0 4h8v2h-8zm0 4h8v2h-8zm2 23h-2v-2h2zm0-4h-2v-2h2zm4 4h-2v-2h2zm2-13h-8v-2h8zm36 10h-8v-2h8zm0-8h-8v-2h8zm0-15h-9.657l-3.388 2.635a10.924 10.924 0 0 1 -.075 12.831l1.534 1.534h11.586v2h-12a1 1 0 0 1 -.707-.293l-1.735-1.735a10.985 10.985 0 0 1 -18.558-7.972h-11v-2h11.191a10.979 10.979 0 0 1 18.461-5.885l3.734-2.9a1 1 0 0 1 .614-.215h10zm0-4h-10v-2h10zm0-4h-10v-2h10z"/><path d="m4 4h56v2h-56z"/></g></svg>